<?xml version="1.0" standalone="no"?>
<!DOCTYPE svg PUBLIC "-//W3C//DTD SVG 20010904//EN"
 "http://www.w3.org/TR/2001/REC-SVG-20010904/DTD/svg10.dtd">
<svg version="1.0" xmlns="http://www.w3.org/2000/svg"
 width="960.000000pt" height="720.000000pt" viewBox="0 0 960.000000 720.000000"
 preserveAspectRatio="xMidYMid meet">

<g transform="translate(0.000000,720.000000) scale(0.100000,-0.100000)"
fill="#000000" stroke="none">
<path d="M0 3600 l0 -3600 940 0 940 0 0 25 c0 14 4 25 10 25 5 0 12 -11 16
-25 l6 -25 3844 0 3844 0 0 3600 0 3600 -1162 0 -1161 0 -36 -42 c-20 -22 -40
-49 -46 -59 -10 -18 -64 -75 -136 -144 -22 -22 -55 -61 -71 -87 -16 -27 -33
-48 -37 -48 -4 0 -27 -21 -52 -46 -24 -25 -57 -58 -73 -72 -17 -15 -44 -40
-61 -57 -18 -16 -47 -44 -66 -62 -19 -17 -49 -47 -66 -67 -26 -28 -44 -37 -90
-45 -31 -6 -58 -11 -60 -11 -2 0 -3 -6 -3 -13 0 -7 -14 -23 -30 -37 -17 -14
-30 -33 -30 -43 0 -21 -18 -59 -34 -70 -9 -6 -47 -4 -146 8 -8 1 -28 7 -43 13
-36 15 -37 15 -37 -3 0 -18 -28 -65 -50 -82 -23 -19 -57 -15 -80 9 -17 18 -20
30 -15 60 4 21 5 38 3 38 -1 0 -24 -7 -50 -15 -27 -8 -48 -12 -48 -9 0 3 -9 0
-20 -6 -22 -12 -42 -46 -77 -130 -22 -52 -22 -56 -5 -68 17 -14 160 -11 240 4
23 5 32 3 32 -7 0 -21 -13 -36 -37 -43 -13 -4 -23 -14 -23 -21 0 -8 -13 -22
-30 -32 -22 -12 -28 -22 -24 -36 10 -32 -20 -64 -62 -65 -20 -1 -46 -8 -58
-15 -11 -8 -54 -16 -95 -19 -80 -6 -84 -9 -102 -72 -13 -48 -35 -83 -71 -116
-15 -14 -37 -43 -49 -65 -12 -22 -28 -53 -37 -70 -23 -44 -38 -56 -76 -62 -28
-4 -39 -1 -60 20 -29 29 -32 54 -14 104 20 54 9 58 -178 58 -110 0 -167 4
-172 11 -16 25 -49 25 -80 -1 -17 -14 -43 -25 -58 -25 -47 0 -105 -20 -112
-38 -6 -16 -42 -69 -92 -134 -17 -22 -30 -28 -59 -28 -50 0 -78 31 -92 103 -7
31 -18 62 -26 69 -9 7 -65 13 -146 15 -150 5 -177 13 -177 55 0 20 -5 28 -17
29 -15 0 -15 2 3 10 16 8 19 17 16 42 -3 18 -11 36 -19 40 -12 7 -11 12 7 24
16 12 36 14 75 9 43 -5 55 -3 69 13 12 13 14 21 6 26 -5 3 -8 11 -5 16 4 5 -2
9 -12 9 -15 1 -14 3 6 14 l24 13 -22 15 -22 16 27 21 c15 11 32 21 38 21 6 0
31 14 56 30 25 16 53 30 63 30 48 0 85 85 66 151 -10 33 -9 61 7 180 l6 46
-64 11 c-186 32 -452 32 -525 1 -47 -20 -45 -13 -43 -140 1 -55 -4 -89 -19
-128 -24 -58 -26 -106 -8 -137 22 -38 86 -87 107 -81 11 3 20 2 20 -3 0 -4
-13 -10 -30 -13 -34 -7 -37 -18 -12 -47 9 -11 17 -26 17 -33 0 -6 15 -13 33
-14 17 -2 48 -10 68 -18 29 -12 34 -18 25 -29 -6 -8 -11 -18 -10 -22 1 -5 -2
-18 -6 -28 -6 -13 -3 -23 9 -31 15 -12 15 -13 0 -19 -9 -3 -14 -13 -10 -21 6
-17 -30 -54 -59 -60 -11 -2 -60 -6 -109 -9 -53 -3 -95 -10 -102 -18 -7 -7 -22
-42 -34 -78 -28 -84 -61 -120 -111 -120 -47 0 -79 25 -123 98 -50 83 -63 91
-148 101 -41 5 -91 14 -111 22 -33 11 -42 11 -70 -3 -18 -9 -48 -19 -67 -22
-92 -12 -115 -30 -195 -148 -13 -20 -33 -42 -44 -48 -50 -26 -115 2 -161 69
-21 30 -45 53 -66 60 -23 8 -34 20 -39 39 -3 15 -30 53 -60 85 -30 33 -55 65
-55 73 0 8 -4 14 -9 14 -5 0 -11 8 -15 18 -3 9 -17 35 -30 57 -30 51 -37 108
-19 160 19 53 12 86 -52 235 -29 69 -54 134 -56 145 -5 26 -69 69 -83 55 -6
-6 -6 -17 2 -32 28 -52 31 -85 11 -117 -22 -36 -36 -38 -88 -11 -41 21 -101
93 -101 121 0 32 20 64 55 87 41 26 44 49 10 86 -19 20 -33 26 -67 26 -84 0
-241 55 -279 97 -9 10 -31 29 -48 43 -50 38 -81 71 -81 86 0 8 19 26 42 41 39
26 49 28 157 30 l116 2 28 33 c15 18 27 36 27 41 0 4 13 25 30 45 38 48 58
107 52 155 l-4 37 -1064 0 -1064 0 0 -3600z m6511 2539 c16 -16 19 -29 15 -62
-3 -23 -8 -73 -12 -110 -6 -72 -18 -82 -41 -36 -13 25 -17 166 -7 207 8 27 18
28 45 1z m-2468 -166 c-7 -2 -19 -2 -25 0 -7 3 -2 5 12 5 14 0 19 -2 13 -5z
m-10 -80 c-7 -2 -19 -2 -25 0 -7 3 -2 5 12 5 14 0 19 -2 13 -5z m44 1 c-3 -3
-12 -4 -19 -1 -8 3 -5 6 6 6 11 1 17 -2 13 -5z m1644 -272 c13 -10 32 -21 42
-25 21 -8 22 -40 2 -57 -8 -7 -12 -16 -9 -21 6 -10 -25 -19 -80 -22 -36 -2
-39 0 -52 35 -12 36 -12 39 18 73 36 40 46 42 79 17z m-3053 -88 c9 -7 -34
-63 -52 -68 -37 -10 -45 -7 -60 22 -13 26 -13 31 2 46 13 13 27 15 62 10 25
-4 47 -8 48 -10z m2856 -300 c9 -3 16 -12 16 -20 0 -8 5 -14 10 -14 19 0 90
-83 91 -106 2 -43 2 -49 -6 -92 -11 -60 -25 -65 -152 -53 -167 16 -225 19
-211 10 10 -7 8 -9 -4 -9 -10 0 -18 3 -18 8 0 4 -21 7 -47 7 -45 0 -47 1 -54
33 -4 19 -11 38 -17 44 -12 12 -5 36 15 56 7 8 10 18 7 24 -5 7 2 9 20 6 16
-3 26 -1 26 7 0 6 18 18 40 25 22 7 40 18 40 24 0 12 34 38 65 48 26 8 159 10
179 2z m-2179 -410 c22 -32 53 -93 69 -134 37 -99 83 -192 127 -260 19 -30 42
-75 49 -100 16 -51 70 -150 82 -150 4 0 8 7 8 16 0 12 9 15 47 12 l48 -3 14
-54 c14 -52 14 -54 -10 -72 -13 -10 -38 -19 -55 -19 -22 0 -39 -9 -61 -33 -22
-24 -45 -37 -87 -47 -71 -17 -86 -9 -103 50 -27 92 -73 133 -175 154 -40 9
-60 34 -56 72 2 26 -6 45 -33 81 -49 67 -66 115 -74 217 -3 28 -7 65 -10 82
-3 18 4 60 16 98 l20 68 35 -4 c22 -3 34 0 34 8 0 7 11 22 25 35 13 13 25 30
25 37 0 26 25 5 65 -54z m2380 -29 c3 -22 12 -71 20 -110 17 -84 28 -298 19
-354 -4 -23 -12 -41 -19 -41 -6 0 -32 14 -56 32 -26 19 -63 35 -92 39 -43 7
-59 19 -165 118 -128 120 -181 163 -257 206 -27 16 -52 32 -55 35 -3 4 -14 10
-24 14 -19 6 -19 7 0 21 15 11 16 15 4 15 -12 1 -12 3 2 14 10 7 15 16 11 19
-3 4 0 7 9 7 8 0 23 -9 34 -21 32 -35 92 -61 125 -54 38 9 83 47 99 84 15 37
24 39 137 32 100 -6 155 0 162 20 7 21 40 -33 46 -76z m-2755 -855 c33 -17 40
-26 40 -50 0 -24 -4 -30 -21 -30 -46 0 -87 48 -73 85 8 19 7 19 54 -5z m-723
-3565 c29 -54 33 -65 33 -80 0 -17 -2 -18 -25 -9 -22 9 -45 57 -45 94 0 38 16
36 37 -5z"/>
<path d="M5523 4688 c-19 -11 -33 -28 -33 -39 0 -36 91 -64 118 -37 20 20 14
65 -10 82 -28 20 -35 19 -75 -6z"/>
<path d="M2979 7182 c-20 -22 -24 -123 -6 -160 8 -15 20 -50 26 -79 10 -41 17
-52 37 -57 58 -15 94 17 101 89 5 66 3 119 -5 124 -4 3 -21 28 -36 55 -21 36
-31 45 -37 35 -6 -10 -9 -11 -9 -1 0 18 -52 14 -71 -6z"/>
<path d="M6495 7105 c-27 -13 -65 -29 -83 -36 -30 -11 -33 -15 -27 -38 4 -14
9 -52 12 -83 3 -32 9 -58 14 -58 20 0 72 67 110 142 55 109 54 111 -26 73z"/>
<path d="M5350 6489 c-25 -4 -106 -8 -181 -8 -134 -1 -137 -2 -153 -26 -9 -13
-16 -31 -16 -40 0 -8 -4 -15 -10 -15 -5 0 -10 -8 -10 -18 0 -20 -34 -118 -48
-135 -18 -24 -54 -137 -48 -152 3 -9 18 -15 34 -15 17 0 60 -11 96 -25 80 -30
113 -32 186 -11 30 9 73 16 95 16 53 1 123 33 134 62 14 39 22 353 9 366 -13
13 -22 13 -88 1z"/>
<path d="M6313 6490 c-22 -9 -23 -10 -7 -43 13 -27 21 -33 40 -29 29 5 65 48
57 68 -6 16 -55 18 -90 4z"/>
<path d="M3063 6463 c-42 -3 -54 -9 -68 -30 -10 -15 -13 -28 -7 -32 5 -3 15
-36 22 -74 12 -57 12 -74 -1 -115 -8 -26 -14 -69 -14 -96 l0 -50 60 -24 c33
-13 79 -25 102 -25 24 -1 43 -5 43 -9 0 -13 79 46 80 58 0 7 6 14 14 17 10 4
12 15 6 44 -14 67 -31 113 -40 113 -18 0 -10 72 11 107 16 25 19 43 15 68 -6
31 -11 34 -57 44 -49 11 -61 11 -166 4z"/>
<path d="M6050 6388 c-26 -35 -22 -42 19 -33 25 5 30 11 29 31 -3 35 -23 36
-48 2z"/>
<path d="M5080 5971 c0 -5 9 -13 21 -16 19 -7 20 -7 2 -21 -16 -12 -16 -13 -1
-14 9 0 19 -6 21 -12 4 -10 8 -10 16 2 5 8 7 19 3 25 -4 5 -5 18 -4 28 3 13
-4 17 -27 17 -17 0 -31 -4 -31 -9z"/>
<path d="M5313 5973 c9 -2 25 -2 35 0 9 3 1 5 -18 5 -19 0 -27 -2 -17 -5z"/>
<path d="M5341 5847 c-6 -8 -14 -28 -17 -45 -9 -45 16 -51 67 -18 45 30 59 54
38 67 -21 13 -75 11 -88 -4z"/>
<path d="M4200 5801 c-24 -8 -24 -8 14 -24 47 -21 56 -21 56 -2 0 9 -6 12 -15
9 -9 -4 -15 0 -15 10 0 17 -2 18 -40 7z"/>
</g>
</svg>
