<?xml version="1.0" standalone="no"?>
<!DOCTYPE svg PUBLIC "-//W3C//DTD SVG 20010904//EN"
 "http://www.w3.org/TR/2001/REC-SVG-20010904/DTD/svg10.dtd">
<svg version="1.0" xmlns="http://www.w3.org/2000/svg"
 width="750.000000pt" height="750.000000pt" viewBox="0 0 750.000000 750.000000"
 preserveAspectRatio="xMidYMid meet">

<g transform="translate(0.000000,750.000000) scale(0.100000,-0.100000)"
fill="#000000" stroke="none">
<path d="M3626 7478 c-7 -13 -20 -44 -27 -70 -7 -27 -17 -48 -21 -48 -4 0 -15
-14 -24 -31 -12 -24 -13 -33 -4 -39 7 -4 9 -13 5 -20 -5 -9 -9 -9 -14 -1 -23
37 -116 -381 -126 -562 -1 -32 -6 -61 -10 -65 -4 -4 -5 13 -2 38 4 35 4 38 -3
15 -11 -38 -47 -244 -54 -309 -4 -27 -10 -54 -15 -60 -4 -6 -12 -29 -16 -51
-4 -22 -11 -46 -17 -52 -6 -7 -8 -19 -5 -26 3 -8 1 -47 -5 -88 -5 -41 -11 -87
-13 -104 -2 -16 -9 -46 -14 -64 -7 -23 -7 -37 -1 -41 6 -4 4 -14 -5 -26 -17
-23 -20 -97 -3 -127 10 -19 9 -20 -4 -10 -12 11 -13 6 -7 -40 3 -29 5 -68 3
-87 -2 -19 -1 -27 2 -17 10 30 21 18 22 -25 3 -56 22 -76 23 -22 0 21 3 33 6
26 8 -20 23 -3 23 26 1 15 7 40 14 57 11 28 12 25 14 -45 1 -53 5 -78 16 -85
8 -6 17 -28 21 -48 4 -20 11 -37 15 -37 5 0 8 -8 8 -17 -2 -21 37 -109 51
-118 5 -3 13 -19 16 -36 4 -17 18 -56 32 -85 14 -30 22 -62 19 -70 -3 -9 -2
-12 5 -9 6 4 10 1 8 -6 -3 -26 1 -40 10 -35 10 6 31 -68 31 -108 0 -14 4 -27
9 -30 5 -4 7 20 4 56 -3 43 -1 58 5 48 6 -8 12 -44 15 -80 12 -139 21 -187 45
-234 13 -27 28 -61 32 -75 4 -14 13 -25 19 -23 7 1 10 -1 7 -6 -2 -4 -1 -26 4
-48 4 -21 11 -56 14 -76 11 -61 23 -43 14 20 -25 180 -34 269 -29 282 3 11 7
8 11 -10 6 -24 7 -24 11 7 3 18 2 30 -3 27 -4 -3 -8 -1 -8 5 0 5 -3 17 -7 27
-4 12 -3 15 6 10 8 -5 7 4 -3 29 -9 21 -15 58 -15 84 1 25 3 37 6 26 2 -11 16
-54 29 -95 14 -41 36 -133 49 -205 13 -72 28 -143 34 -156 5 -14 9 -77 9 -140
0 -123 -6 -118 -32 26 -12 69 -13 70 -20 32 -5 -20 -6 -46 -3 -57 3 -11 1 -18
-4 -14 -5 3 -9 14 -9 24 0 10 -4 21 -9 24 -17 11 -21 -27 -9 -85 9 -46 9 -69
0 -104 -7 -25 -12 -56 -12 -70 0 -14 -5 -25 -11 -25 -7 0 -9 12 -6 33 12 67
17 202 8 182 -7 -15 -8 -8 -4 24 4 30 3 42 -5 38 -6 -5 -8 0 -5 12 3 10 0 22
-6 25 -6 4 -11 2 -11 -5 0 -8 -4 -8 -13 -1 -9 8 -12 0 -10 -36 1 -39 0 -35
-10 22 l-12 69 -12 -35 c-7 -19 -13 -45 -13 -59 0 -20 -2 -21 -11 -9 -7 11 -9
5 -5 -25 3 -22 8 -61 12 -87 7 -51 -1 -75 -19 -59 -9 7 -13 -11 -15 -67 -2
-43 -8 -82 -14 -89 -5 -7 -7 -17 -4 -22 4 -5 3 -12 -2 -15 -5 -3 -14 -38 -21
-78 -14 -78 -56 -179 -90 -215 -12 -12 -21 -31 -21 -43 0 -11 -7 -23 -15 -26
-8 -4 -15 -10 -15 -15 0 -6 -10 -23 -22 -39 -36 -49 -15 -43 39 11 46 46 51
49 56 29 4 -16 2 -20 -9 -16 -8 3 -14 1 -14 -5 0 -6 -4 -7 -10 -4 -5 3 -10 -1
-10 -9 0 -9 -8 -24 -18 -34 -10 -10 -21 -26 -25 -35 -3 -9 -12 -17 -19 -17 -7
0 -26 -15 -43 -32 -16 -17 -24 -28 -18 -24 9 5 11 2 7 -8 -9 -25 3 -19 73 29
35 25 67 45 71 45 4 0 27 16 51 35 24 19 47 35 50 35 9 -1 -58 -59 -144 -125
-43 -33 -84 -66 -92 -73 -7 -7 -13 -11 -13 -8 0 3 -18 -14 -40 -37 -34 -35
-42 -40 -51 -27 -9 13 -10 12 -5 -2 3 -11 -4 -25 -21 -38 -29 -22 -43 -19 -23
5 7 8 10 15 7 15 -15 0 -79 -44 -88 -61 -5 -11 -16 -19 -23 -19 -14 0 -46 -31
-46 -44 0 -5 16 4 35 19 55 42 61 25 8 -25 -26 -25 -44 -40 -41 -35 3 6 -1 16
-9 24 -13 12 -15 12 -11 1 5 -15 -20 -50 -37 -50 -21 -1 -106 -72 -117 -98 -9
-21 -12 -23 -15 -9 -3 9 -6 17 -8 17 -10 0 -55 -49 -55 -59 0 -14 17 -15 23
-1 3 6 4 5 3 -2 -3 -16 -54 -53 -62 -45 -4 4 -1 13 6 22 8 10 9 15 1 15 -6 0
-11 -4 -11 -9 0 -5 -15 -16 -34 -25 -39 -18 -60 -41 -51 -55 8 -14 -30 -64
-65 -85 -25 -14 -29 -15 -24 -1 3 8 10 15 15 15 18 0 47 35 54 65 6 27 5 28
-8 13 -8 -10 -19 -18 -26 -18 -6 0 -11 -7 -11 -15 0 -8 -6 -15 -12 -15 -7 0
-24 -15 -38 -32 -14 -18 -37 -43 -52 -57 -38 -33 -35 -45 7 -37 30 6 34 5 28
-11 -4 -10 -18 -28 -32 -40 -14 -13 -20 -23 -13 -23 24 0 13 -57 -15 -80 -22
-17 -25 -23 -13 -30 12 -8 12 -10 -3 -10 -20 0 -49 -24 -41 -33 3 -3 -3 -18
-13 -33 -11 -17 -13 -25 -5 -20 17 11 -11 -47 -36 -73 -9 -9 -25 -33 -35 -52
-10 -19 -60 -89 -112 -154 -52 -66 -98 -125 -102 -130 -4 -6 -17 -21 -28 -34
l-20 -24 31 16 c34 17 104 86 104 102 0 5 4 4 8 -3 8 -12 10 -11 66 48 23 23
30 21 19 -7 -11 -26 -207 -203 -226 -203 -8 0 -20 -7 -27 -15 -7 -8 -16 -15
-21 -15 -18 0 -98 -66 -94 -77 3 -7 0 -13 -5 -13 -5 0 -19 -4 -32 -9 -13 -5
-25 -8 -28 -7 -3 0 -18 -9 -33 -21 -16 -12 -35 -19 -43 -16 -8 3 -14 -1 -14
-10 0 -9 -16 -21 -37 -28 -21 -6 -43 -15 -49 -20 -6 -5 -14 -6 -17 -2 -4 3 -7
1 -7 -5 0 -6 -25 -24 -55 -40 -58 -31 -71 -27 -32 11 23 22 144 113 176 132 9
6 20 16 24 22 4 7 28 34 52 60 42 46 61 79 30 53 -11 -9 -17 -9 -29 3 -13 13
-12 18 14 41 17 14 30 31 30 37 0 6 -7 4 -15 -5 -9 -8 -33 -25 -55 -37 -22
-13 -40 -26 -40 -31 0 -4 -4 -8 -10 -8 -23 0 20 58 112 152 26 26 51 48 56 48
5 0 17 9 27 20 10 11 24 20 32 20 7 0 13 3 13 8 1 4 17 25 37 47 20 22 31 33
24 23 -19 -26 3 -29 30 -4 13 12 31 20 38 18 9 -3 12 0 8 10 -3 10 0 15 10 14
14 -1 80 84 114 147 19 34 -10 16 -80 -52 -42 -41 -85 -72 -102 -76 -17 -4
-26 -11 -22 -18 4 -6 0 -8 -10 -4 -17 6 -48 -16 -151 -106 -87 -78 -177 -167
-210 -210 -19 -25 -32 -34 -36 -27 -9 15 -130 -102 -130 -125 0 -9 -5 -13 -10
-10 -8 5 -7 11 1 21 10 12 8 17 -7 29 -17 12 -19 11 -22 -6 -2 -11 -8 -16 -14
-13 -8 5 -9 1 -4 -12 4 -10 4 -15 0 -11 -12 11 -36 -31 -29 -52 3 -12 0 -21
-10 -25 -8 -3 -15 -17 -15 -31 0 -15 -5 -35 -10 -45 -9 -16 -8 -18 6 -13 15 5
16 1 11 -35 -4 -22 -4 -42 1 -45 4 -2 2 -2 -5 -1 -17 4 -28 -102 -14 -141 14
-39 14 -68 1 -60 -5 3 -10 15 -10 25 0 24 -34 20 -39 -5 -2 -12 1 -16 12 -12
10 4 13 0 10 -13 -6 -23 19 -70 59 -110 l32 -33 -74 5 c-60 4 -84 10 -119 33
-25 15 -67 35 -94 44 -44 14 -55 24 -88 76 -47 74 -53 85 -47 91 3 2 41 -6 84
-20 147 -45 207 -58 215 -44 4 7 6 15 4 19 -25 39 -30 76 -19 127 3 15 -3 30
-18 45 -30 30 -48 82 -48 140 0 36 4 47 19 52 10 3 26 26 36 53 10 26 37 76
61 112 23 36 53 88 66 115 12 28 37 66 55 85 17 19 58 71 90 115 33 44 81 95
106 114 65 48 145 151 117 151 -7 0 -8 6 -2 18 16 29 22 86 12 102 -7 11 -9 5
-8 -22 1 -20 -5 -44 -12 -52 -7 -9 -10 -26 -6 -40 3 -14 2 -28 -4 -31 -6 -3
-10 5 -10 19 0 40 -18 40 -39 -1 -21 -43 -58 -80 -68 -69 -4 3 4 16 16 27 13
13 21 29 18 39 -3 12 0 17 8 13 8 -3 20 8 30 27 9 17 21 28 27 24 6 -4 9 -1 6
7 -3 8 -13 14 -23 14 -28 0 -28 19 0 49 14 15 25 29 25 32 0 31 -131 -102
-160 -162 -13 -27 -41 -68 -62 -91 -21 -24 -47 -62 -59 -85 -15 -30 -36 -53
-74 -75 -34 -22 -59 -45 -70 -69 -20 -42 -42 -66 -140 -149 -38 -33 -76 -67
-85 -75 -15 -16 -181 -201 -188 -210 -2 -2 -42 -8 -89 -11 -114 -9 -117 -13
-120 -139 -2 -97 -3 -102 -35 -141 -30 -38 -178 -189 -222 -228 -19 -16 -86
-146 -86 -167 0 -6 -11 -37 -25 -69 -15 -32 -34 -109 -45 -178 -11 -67 -29
-144 -40 -172 -11 -28 -20 -74 -20 -105 0 -30 0 -105 -1 -167 0 -61 5 -130 11
-152 15 -59 60 -104 148 -152 42 -24 96 -55 119 -71 l42 -28 1088 0 1088 1 45
71 c93 150 189 240 303 283 59 22 171 16 267 -15 128 -42 289 -36 412 16 61
26 243 136 263 158 5 7 36 29 67 50 55 35 81 42 175 45 12 1 28 8 37 16 8 9
19 15 23 15 14 -1 147 88 172 114 28 29 28 27 -25 163 -26 66 -30 88 -14 78 6
-3 10 -18 11 -33 l1 -27 8 25 c8 24 8 24 9 2 1 -12 5 -30 10 -40 5 -9 15 -38
21 -64 11 -43 14 -46 32 -37 17 9 18 17 12 67 -4 31 -10 68 -15 82 -6 21 -8
22 -9 5 -1 -11 -6 -2 -11 20 -4 22 -6 52 -3 68 7 35 -5 89 -17 81 -6 -3 -9 5
-8 18 4 40 -1 56 -17 62 -12 4 -15 2 -11 -9 4 -8 0 -21 -8 -29 -17 -17 -20
-46 -5 -46 6 0 10 9 10 19 0 11 5 23 10 26 13 8 13 -11 -1 -36 -7 -14 -7 -35
-1 -64 5 -25 6 -42 1 -39 -5 3 -9 17 -9 31 0 38 -9 23 -18 -28 l-8 -44 -15 50
-16 49 -16 -29 -17 -30 6 49 c4 39 2 47 -9 43 -15 -6 -41 29 -32 43 4 6 -1 7
-11 3 -12 -4 -15 -3 -10 6 4 7 5 24 1 39 -7 25 -8 25 -15 7 -5 -11 -9 -37 -9
-58 -1 -23 -5 -36 -11 -32 -6 3 -15 -6 -21 -22 -5 -15 -17 -41 -25 -57 -10
-22 -11 -32 -3 -42 8 -10 8 -14 1 -14 -6 0 -14 -10 -18 -22 -8 -22 -8 -22 -15
7 -6 27 -7 25 -8 -15 -1 -25 -13 -67 -26 -95 -14 -27 -25 -66 -25 -85 0 -22
-3 -30 -9 -22 -5 9 -15 2 -33 -25 -42 -64 -51 -86 -64 -148 -10 -48 -12 -53
-13 -25 -1 54 15 108 47 159 27 45 48 101 37 101 -2 0 -12 -14 -20 -31 -9 -17
-19 -28 -23 -25 -3 4 0 12 6 18 7 7 12 24 12 39 0 15 4 30 9 33 8 5 14 76 6
76 -2 0 -17 -21 -33 -47 -17 -27 -54 -69 -81 -95 -28 -26 -58 -60 -68 -75 -32
-51 -116 -133 -161 -158 -57 -32 -67 -32 -22 -1 43 30 130 121 130 135 0 16
-12 13 -40 -9 -25 -20 -50 -26 -50 -12 0 15 18 33 48 50 51 28 123 92 116 104
-4 6 -2 8 4 4 6 -3 13 -2 16 3 4 5 1 13 -4 16 -8 5 -7 12 3 23 22 26 44 149
30 172 -7 10 -9 21 -5 25 12 12 8 30 -8 36 -9 4 -22 -2 -33 -15 -10 -11 -16
-16 -13 -9 4 6 -6 16 -21 21 -26 10 -26 10 -5 11 12 1 25 8 29 17 4 10 8 12
13 4 11 -18 38 -1 43 28 6 29 -7 52 -29 52 -16 0 -19 26 -4 35 14 9 12 25 -2
25 -15 0 -40 -49 -32 -62 3 -5 -4 -18 -17 -29 -28 -24 -32 -24 -19 0 5 11 7
27 4 35 -3 9 -1 16 6 16 6 0 8 5 5 10 -3 6 1 13 10 16 22 9 41 62 39 109 -2
22 -3 63 -4 90 -1 41 -3 46 -11 27 -5 -13 -16 -30 -24 -39 -9 -9 -14 -22 -11
-30 3 -8 2 -12 -2 -9 -9 5 -39 -28 -82 -94 -23 -34 -30 -40 -30 -24 0 12 14
40 31 64 19 26 27 45 20 49 -6 4 -2 24 14 56 13 28 24 43 25 35 1 -8 8 10 16
40 8 30 27 80 42 110 36 74 36 74 22 65 -10 -6 -12 -4 -7 8 3 10 2 17 -3 17
-6 0 -10 -11 -10 -25 0 -31 -30 -92 -76 -158 -19 -26 -34 -51 -34 -56 0 -4 -9
-20 -20 -34 -12 -14 -26 -41 -32 -59 -6 -18 -14 -35 -18 -38 -4 -3 -17 -25
-28 -50 l-22 -45 5 55 c2 30 7 71 11 90 6 32 99 238 113 250 3 3 29 50 56 105
28 55 53 102 56 105 4 3 9 16 13 30 12 41 30 74 50 91 11 9 26 34 33 55 13 39
13 39 8 5 -3 -19 -12 -48 -20 -64 -18 -37 -19 -53 -2 -35 23 25 57 77 57 87 0
6 6 8 13 6 13 -5 54 53 63 91 4 17 11 23 23 19 17 -5 56 49 45 66 -3 5 4 9 15
9 12 0 21 5 21 10 0 6 11 22 24 35 22 22 25 23 30 7 2 -9 4 -5 3 9 -2 32 52
107 63 88 5 -7 6 -19 3 -28 -4 -13 -3 -13 5 -2 6 8 8 20 5 27 -2 6 10 26 27
44 21 22 29 37 25 51 -8 23 4 24 31 3 13 -11 15 -17 6 -20 -6 -3 -10 -10 -6
-15 3 -5 0 -9 -5 -9 -6 0 -11 -8 -12 -17 0 -11 -3 -13 -6 -5 -2 6 -9 10 -13 7
-5 -3 -7 -12 -3 -21 3 -8 -5 -26 -17 -39 -13 -14 -20 -28 -17 -32 4 -3 28 18
55 47 26 29 64 71 85 93 20 22 37 44 37 48 0 4 7 9 15 13 20 7 19 4 -5 -24
-20 -23 -26 -40 -14 -40 4 0 13 8 20 17 7 10 15 15 19 11 6 -6 -55 -95 -97
-142 -10 -11 -15 -22 -12 -25 3 -3 18 9 33 27 15 17 30 32 32 32 3 0 6 -15 7
-32 2 -25 0 -29 -8 -18 -8 13 -13 12 -32 -7 -22 -23 -20 -42 4 -27 47 30 51
-11 6 -55 -17 -17 -26 -31 -20 -31 7 0 12 5 12 11 0 5 5 7 11 4 5 -4 20 4 32
17 85 95 107 120 107 126 0 4 8 16 16 27 15 19 15 19 8 -10 -4 -16 -10 -32
-14 -35 -12 -9 -100 -134 -100 -142 0 -5 -11 -21 -25 -36 -14 -15 -25 -30 -25
-35 0 -8 -11 -23 -42 -58 -11 -11 -13 -19 -6 -19 6 0 34 24 61 52 51 54 41 25
-13 -37 -55 -63 -63 -75 -53 -75 18 0 233 197 233 213 0 6 20 31 44 56 25 25
58 62 75 81 17 19 31 30 31 23 0 -7 -8 -20 -18 -30 -30 -30 -52 -71 -46 -87 7
-18 -25 -68 -39 -59 -6 4 -8 -3 -5 -20 3 -16 1 -24 -6 -21 -6 2 -20 -15 -31
-39 -11 -23 -25 -48 -32 -55 -7 -7 -25 -40 -40 -72 -15 -33 -32 -60 -39 -60
-15 0 -44 -44 -44 -67 0 -10 -7 -48 -16 -85 -15 -62 -15 -68 0 -83 9 -9 16
-25 16 -36 0 -10 5 -19 11 -19 7 0 8 7 4 18 -8 21 -17 132 -9 114 7 -16 54 43
54 68 0 9 7 25 15 36 14 18 15 17 9 -10 -11 -48 17 -26 34 27 8 27 24 52 34
58 12 6 18 6 18 -1 0 -26 18 -6 25 26 8 46 18 37 17 -16 -1 -23 3 -38 9 -35
12 8 11 3 -1 -31 -8 -21 -8 -29 2 -36 10 -7 9 -11 -4 -18 -14 -9 -15 -16 -8
-36 6 -14 10 -43 10 -65 0 -38 0 -38 20 -22 11 10 20 25 20 33 0 9 12 39 26
68 20 40 31 52 49 52 18 0 22 4 18 20 -3 11 -10 17 -15 14 -6 -4 -5 4 2 16 10
18 14 20 21 9 7 -11 9 -11 9 -1 0 7 4 10 10 7 13 -8 43 29 52 63 5 17 6 7 4
-28 -2 -30 -1 -45 1 -32 2 12 8 22 12 22 16 0 20 43 5 58 -13 13 -13 16 5 28
13 9 22 31 27 62 12 82 21 77 17 -10 -3 -84 -2 -84 26 -15 8 19 10 17 11 -18
l2 -40 13 40 13 40 1 -58 c1 -41 4 -56 12 -51 9 5 10 -1 5 -21 -5 -18 -3 -31
4 -35 9 -6 9 -13 1 -28 -18 -34 -14 -55 9 -49 21 5 29 -16 10 -28 -5 -3 -11
-25 -12 -48 l-1 -42 -7 45 c-4 25 -8 43 -9 40 -2 -5 -9 -131 -15 -277 -2 -50
-7 -96 -10 -102 -4 -5 -6 -22 -5 -38 2 -30 -9 -87 -21 -113 -4 -8 -18 -48 -30
-88 -23 -75 -85 -183 -116 -200 -18 -10 -11 -34 9 -31 7 1 50 -1 96 -6 70 -6
98 -15 160 -47 42 -22 93 -48 114 -59 84 -44 9 -149 -107 -149 -19 0 -76 10
-126 21 -72 17 -97 19 -117 10 -13 -6 -52 -11 -86 -11 -79 0 -105 -14 -134
-70 -25 -47 -79 -110 -96 -110 -5 0 -22 -15 -38 -32 l-28 -33 20 -16 c12 -9
38 -22 58 -29 103 -36 239 -154 426 -368 l90 -102 622 0 c343 0 623 3 623 6 0
4 11 57 25 118 53 242 97 454 105 506 6 41 25 82 74 164 132 218 271 515 347
738 23 68 52 152 66 188 13 36 28 97 33 135 6 39 17 113 25 165 36 222 46 343
54 667 10 351 7 389 -27 434 -10 13 -40 64 -67 112 -27 49 -72 114 -100 145
-28 31 -66 77 -85 102 -56 72 -62 80 -113 139 -27 31 -119 125 -205 209 -109
106 -149 151 -132 147 l25 -6 -4 68 c-2 46 -6 62 -11 48 -5 -12 -8 10 -8 58 0
45 -4 83 -11 90 -6 6 -11 22 -11 35 0 13 -4 20 -10 17 -6 -4 -10 6 -9 22 0 25
1 26 10 8 7 -15 8 -11 4 15 -18 107 -24 157 -19 177 4 14 0 29 -10 38 -10 10
-14 25 -10 40 3 12 1 26 -5 29 -6 4 -11 16 -11 28 0 16 3 18 14 9 11 -10 13
-3 9 36 -6 61 -39 229 -48 242 -3 6 -1 11 4 11 16 0 13 42 -4 64 -17 23 -19
73 -6 110 6 13 7 41 4 61 l-6 36 -28 -43 c-16 -24 -29 -49 -29 -55 0 -7 -4
-13 -8 -13 -5 0 -7 15 -4 33 3 29 1 26 -25 -23 -16 -30 -35 -74 -43 -97 -7
-24 -18 -43 -24 -43 -24 0 -76 -148 -76 -217 0 -23 -5 -45 -10 -48 -6 -4 -8
-11 -4 -16 13 -21 15 -120 3 -135 -7 -9 -9 -30 -6 -56 4 -27 2 -37 -4 -27 -6
10 -9 5 -9 -18 0 -18 5 -33 10 -33 6 0 9 -12 9 -27 -1 -17 -3 -21 -6 -10 -2 9
-8 17 -12 17 -14 0 -53 -49 -47 -59 4 -5 -5 -36 -20 -68 -14 -32 -29 -52 -31
-45 -3 8 0 24 6 35 21 42 40 108 35 122 -8 21 6 41 17 24 15 -25 20 14 11 82
-9 63 -9 64 -21 34 -7 -16 -16 -48 -21 -70 -5 -22 -20 -74 -35 -115 -14 -41
-27 -89 -28 -107 -3 -36 -16 -57 -18 -27 -2 22 -2 18 5 69 2 22 9 54 15 70 5
17 12 77 15 135 3 70 11 117 22 139 19 38 20 58 6 146 -5 33 -12 78 -16 100
l-6 40 13 -40 c7 -22 17 -39 22 -38 14 2 34 61 34 101 1 19 7 35 15 38 8 3 15
13 15 22 0 41 10 94 21 107 7 9 12 47 13 92 0 67 1 72 7 33 6 -38 8 -41 15
-22 4 12 11 22 16 22 5 0 9 7 9 15 0 8 -4 15 -9 15 -6 0 -6 11 0 28 5 15 8 37
7 47 -2 11 1 21 6 22 14 2 26 26 26 53 0 20 -2 22 -10 10 -9 -13 -10 -13 -11
0 0 10 -3 8 -9 -5 -6 -13 -9 12 -11 75 -1 52 -4 154 -6 225 -3 72 -5 156 -6
188 -1 31 -5 57 -9 57 -13 0 -9 58 3 62 8 3 7 20 -3 63 -9 35 -11 62 -6 66 18
12 -6 272 -32 353 -5 16 -8 32 -5 34 6 6 25 -44 25 -64 0 -9 4 -23 10 -33 14
-27 32 -131 49 -296 6 -49 19 -148 30 -220 10 -71 19 -139 18 -150 -1 -53 15
-170 25 -182 15 -18 22 -8 24 30 1 18 4 75 8 127 11 155 6 277 -12 290 -11 7
-33 82 -31 105 1 11 -1 48 -5 83 -8 66 7 89 19 30 8 -37 35 -88 47 -88 4 0 8
13 8 30 0 32 -29 100 -42 100 -4 0 -8 7 -8 16 0 8 4 13 9 10 17 -11 21 84 6
141 -8 32 -15 65 -15 75 0 9 -6 32 -14 50 -8 18 -25 66 -37 105 -19 62 -21 76
-10 97 8 13 10 30 5 37 -5 9 -9 8 -14 -7 -6 -14 -10 -5 -15 31 -4 28 -14 63
-22 79 -12 22 -12 26 -1 20 8 -5 5 3 -5 20 -13 19 -16 31 -9 38 7 7 5 19 -6
36 -9 15 -22 42 -29 62 -11 31 -10 33 2 16 8 -11 17 -17 20 -15 9 9 -63 188
-127 316 l-40 81 -179 2 c-117 0 -179 -3 -179 -10 0 -5 4 -10 10 -10 13 0 60
-52 60 -67 0 -7 5 -13 10 -13 6 0 10 -5 10 -12 0 -6 8 -21 18 -32 16 -18 46
-83 118 -254 17 -41 18 -64 2 -81 -11 -11 -9 -12 8 -3 20 11 22 7 38 -64 9
-41 16 -82 16 -90 0 -9 6 -30 14 -47 30 -68 36 -94 39 -145 1 -28 5 -52 8 -52
4 0 14 -41 23 -91 16 -87 15 -119 -3 -90 -7 11 -9 11 -14 0 -7 -22 -27 37 -26
79 l0 37 15 -49 c22 -71 28 -49 7 30 -14 56 -18 64 -23 44 -6 -24 -7 -23 -13
9 -10 46 -9 63 3 56 6 -3 10 0 10 7 0 21 -17 41 -28 34 -5 -3 -15 9 -22 27 -6
17 -19 49 -28 70 -17 43 -12 59 8 22 13 -24 30 -34 30 -17 0 4 -11 23 -24 42
-13 20 -26 42 -29 50 -2 8 -3 3 -1 -12 2 -16 -1 -28 -6 -28 -15 0 -23 49 -11
64 11 13 0 47 -40 128 -12 25 -11 41 2 32 7 -4 10 -1 7 7 -3 8 -10 13 -16 12
-6 -1 -15 11 -21 27 -5 17 -23 42 -38 56 -26 25 -26 26 -5 20 l22 -7 -21 45
c-13 25 -27 44 -32 43 -16 -3 -53 66 -39 71 9 3 7 12 -5 33 -20 33 -28 36 -37
12 -5 -12 -16 1 -40 48 -29 55 -37 64 -62 65 -16 1 -35 -3 -41 -8 -9 -7 -13
-7 -13 1 0 6 -7 11 -16 11 -15 0 -15 -2 -1 -22 8 -13 21 -22 27 -20 6 1 9 -2
5 -8 -4 -6 3 -26 15 -45 12 -19 17 -35 11 -35 -6 0 -11 5 -11 12 0 6 -2 9 -5
6 -10 -10 8 -39 20 -34 8 3 16 -1 19 -9 3 -10 0 -12 -12 -9 -10 3 -7 0 5 -8
12 -7 22 -17 22 -23 0 -5 18 -32 39 -60 46 -59 74 -110 65 -119 -4 -3 1 -6 10
-6 24 0 21 15 -13 62 -30 42 -38 68 -20 68 6 0 10 -7 10 -15 0 -8 5 -15 10
-15 6 0 10 -5 10 -12 0 -6 6 -19 14 -27 7 -9 17 -34 21 -55 6 -36 5 -39 -10
-26 -15 12 -15 11 -4 -14 8 -17 15 -22 20 -15 4 8 13 1 23 -20 9 -17 14 -31
12 -31 -10 0 24 -82 45 -112 21 -28 21 -32 6 -43 -9 -7 -17 -16 -17 -20 0 -4
7 -2 15 5 13 10 18 6 32 -26 9 -22 17 -41 18 -44 1 -3 5 -12 8 -20 11 -25 28
-102 33 -144 2 -22 8 -44 13 -50 15 -18 26 -136 12 -136 -6 0 -11 -5 -11 -11
0 -5 5 -7 10 -4 6 4 10 -30 10 -94 0 -65 4 -101 11 -101 6 0 8 -9 4 -20 -4
-11 -8 -31 -9 -45 -2 -14 -6 -28 -9 -32 -4 -3 -4 -18 -1 -32 5 -18 3 -23 -4
-16 -15 14 -27 85 -14 85 5 0 7 11 4 25 -2 14 -8 23 -12 20 -4 -2 -5 19 -2 47
3 34 1 49 -6 44 -7 -4 -7 5 -1 30 7 24 7 45 0 66 -6 17 -11 47 -11 67 0 27 -3
32 -10 21 -7 -11 -10 -7 -10 18 0 17 -3 32 -7 32 -5 0 -7 23 -6 52 0 30 -6 72
-17 97 -9 26 -15 52 -13 59 3 7 0 19 -6 26 -13 16 -4 49 11 40 6 -4 8 2 6 12
-2 12 -12 19 -26 20 -30 2 -37 10 -22 28 10 13 6 27 -19 78 -33 66 -81 132
-81 111 0 -7 9 -27 20 -45 24 -39 26 -55 5 -38 -8 7 -15 19 -15 26 0 8 -4 14
-10 14 -13 0 -13 -2 4 -36 15 -27 12 -49 -4 -39 -4 3 -11 17 -15 32 -3 15 -10
30 -14 33 -22 16 -38 59 -34 90 3 27 2 31 -6 20 -6 -8 -11 -22 -11 -30 0 -27
52 -151 66 -157 8 -3 14 -12 14 -20 0 -8 -4 -11 -10 -8 -15 9 -12 -1 11 -46
12 -24 17 -48 13 -57 -5 -13 -9 -9 -16 16 -5 17 -13 32 -19 32 -6 0 -6 -7 -1
-17 5 -10 15 -47 22 -83 7 -36 17 -73 22 -84 7 -12 7 -16 0 -12 -6 3 -20 35
-32 71 -12 36 -26 65 -31 65 -6 0 -8 4 -4 10 8 14 -38 140 -52 140 -7 0 -9 9
-5 22 4 17 2 20 -11 15 -12 -5 -17 -1 -17 13 0 30 -23 110 -32 110 -4 0 -8 10
-8 23 -1 30 -34 93 -48 90 -6 -2 -9 4 -6 11 7 18 -24 86 -42 93 -7 2 -11 10
-8 17 2 6 -4 21 -15 32 -10 12 -26 35 -35 53 -9 17 -21 29 -27 26 -5 -4 -8 -3
-7 2 2 4 -1 9 -5 10 -5 1 -19 13 -32 27 -22 24 -31 26 -100 26 l-77 0 46 -54
c25 -29 46 -58 46 -65 0 -6 7 -14 15 -17 8 -4 15 -12 15 -20 0 -8 9 -19 20
-26 11 -7 20 -21 20 -31 0 -10 4 -16 9 -12 5 3 12 -4 16 -15 3 -11 11 -20 16
-20 11 0 11 3 -1 34 -5 14 -6 26 -1 26 12 0 32 -48 22 -54 -5 -3 -11 -14 -14
-25 -3 -14 -1 -18 9 -14 13 5 19 -8 15 -31 -1 -5 5 -4 13 3 12 10 17 9 25 -8
16 -29 13 -39 -5 -16 -16 20 -16 20 -10 -2 3 -13 9 -33 13 -45 4 -13 6 -33 4
-45 -3 -27 13 -30 29 -5 9 14 11 14 7 1 -3 -9 1 -29 9 -44 7 -14 15 -44 16
-66 2 -21 8 -39 13 -39 20 0 36 -39 25 -60 -8 -14 -4 -30 15 -66 14 -26 23
-49 20 -52 -2 -3 -7 3 -11 12 -7 17 -34 22 -34 6 0 -5 -4 -10 -10 -10 -5 0
-10 8 -10 19 0 10 -9 30 -20 44 -11 14 -20 28 -20 32 0 15 -54 130 -64 137 -6
4 -14 2 -19 -5 -5 -7 -6 -3 -2 11 4 14 -1 32 -14 51 -12 16 -21 32 -21 36 0 3
-11 23 -25 43 -26 39 -35 71 -10 38 8 -11 15 -16 15 -11 0 13 -52 77 -58 71
-8 -9 -63 77 -58 91 6 14 -19 66 -39 83 -8 7 -15 20 -15 28 0 9 14 -4 32 -29
18 -24 35 -46 39 -49 3 -3 14 -19 23 -37 9 -17 21 -35 28 -39 6 -4 1 10 -12
32 -33 53 -87 153 -101 187 l-11 27 -494 0 c-272 0 -494 -2 -494 -4 0 -8 104
-78 144 -97 22 -11 61 -30 85 -44 53 -30 115 -49 154 -46 15 1 27 -3 27 -9 0
-5 7 -10 15 -10 7 0 19 -8 24 -17 10 -17 10 -17 11 0 0 9 5 17 10 17 6 0 10
-4 10 -10 0 -5 6 -10 13 -10 7 0 31 -17 53 -37 35 -33 134 -90 134 -77 0 3 9
0 20 -6 11 -6 20 -17 20 -25 0 -7 10 -17 22 -21 12 -3 29 -15 37 -25 9 -11 28
-20 43 -21 15 -1 26 -7 25 -12 -1 -6 8 -12 20 -14 14 -2 29 -17 40 -39 9 -20
19 -31 21 -25 2 7 8 12 14 12 6 0 8 -6 5 -14 -4 -9 20 -39 62 -78 55 -52 99
-102 159 -183 4 -5 8 -20 9 -31 2 -21 0 -21 -35 -11 -20 6 -44 16 -52 22 -22
18 -50 26 -50 15 0 -6 6 -10 13 -10 19 0 51 -37 39 -44 -5 -3 -16 2 -23 11
-13 15 -68 43 -85 43 -4 0 3 -8 15 -19 18 -15 19 -20 6 -25 -9 -3 -15 0 -15
11 0 13 -2 14 -17 2 -9 -8 -24 -13 -35 -11 -10 2 -18 0 -18 -5 0 -18 17 -28
50 -31 19 -1 72 -15 118 -30 l83 -27 -156 -1 c-86 -1 -151 2 -144 6 8 6 6 9
-7 13 -16 4 -16 5 4 6 29 1 28 19 -3 33 -30 14 -32 28 -5 35 11 3 20 12 20 19
0 8 10 14 22 14 12 0 19 3 15 6 -10 10 -341 -77 -350 -92 -4 -8 -15 -14 -22
-14 -8 0 -15 -9 -15 -20 0 -11 -6 -29 -12 -40 -11 -16 -9 -22 7 -34 13 -9 22
-11 26 -4 4 5 15 8 25 6 14 -2 8 -10 -26 -30 -25 -14 -89 -58 -143 -98 -95
-70 -98 -71 -168 -75 -60 -4 -78 -1 -120 20 -26 14 -56 27 -66 28 -43 9 -81
20 -118 37 -22 10 -47 21 -55 24 -8 3 23 5 69 3 55 -1 86 2 88 9 6 18 -69 92
-111 109 -50 21 -157 17 -208 -7 -46 -22 -48 -22 -48 2 0 11 -7 20 -16 20 -8
0 -13 -4 -10 -9 4 -5 -7 -7 -24 -4 -28 4 -32 1 -52 -44 l-22 -48 -8 45 c-5 25
-7 119 -5 210 6 196 36 389 74 468 13 29 22 60 19 68 -3 8 -2 13 2 10 4 -3 13
4 20 14 10 16 9 18 -3 14 -8 -4 -15 -1 -15 5 0 6 5 11 10 11 6 0 10 7 10 15 0
8 9 23 20 32 13 12 16 19 8 24 -14 9 39 58 63 59 9 0 22 7 29 15 7 8 16 15 21
15 12 0 59 41 59 52 0 4 -35 8 -79 8 -68 0 -79 -2 -84 -19 -3 -12 -16 -20 -38
-23 -33 -5 -55 1 -33 9 6 2 20 10 30 18 18 13 17 14 -13 15 -23 0 -37 -7 -47
-22z m1259 -9 c11 -17 2 -18 -19 -3 -17 12 -17 14 -4 14 9 0 20 -5 23 -11z
m239 -5 c10 -25 -1 -29 -14 -5 -6 12 -7 21 -1 21 5 0 12 -7 15 -16z m780 0 c3
-8 2 -12 -4 -9 -6 3 -10 10 -10 16 0 14 7 11 14 -7z m-954 -1 c0 -5 7 -17 16
-28 11 -15 17 -17 23 -7 6 10 10 10 21 -3 11 -13 10 -15 -3 -9 -12 4 -14 1
-10 -18 5 -19 2 -17 -23 12 -16 19 -36 40 -44 47 -13 11 -13 12 3 13 9 0 17
-3 17 -7z m521 -10 c13 -16 12 -17 -3 -4 -10 7 -18 15 -18 17 0 8 8 3 21 -13z
m-1819 -73 c-25 -27 -49 -47 -53 -44 -15 9 -10 19 22 37 22 12 30 23 26 36 -3
15 0 17 16 13 13 -3 18 -1 13 6 -4 7 -2 10 7 6 10 -3 1 -19 -31 -54z m1247 16
c-3 -3 -11 5 -18 17 -13 21 -12 21 5 5 10 -10 16 -20 13 -22z m601 14 c-10 -6
-7 -16 10 -40 12 -17 20 -33 18 -36 -5 -4 -58 70 -58 81 0 4 5 3 10 0 6 -3 10
-1 10 5 0 6 5 8 11 4 8 -5 8 -9 -1 -14z m248 -29 c30 -52 28 -62 -4 -20 -38
51 -47 70 -31 63 8 -3 24 -22 35 -43z m-883 19 c10 -11 14 -20 8 -20 -5 0 -18
9 -28 20 -10 11 -14 20 -8 20 5 0 18 -9 28 -20z m102 -25 c-2 -5 1 -15 7 -22
6 -6 22 -26 36 -44 14 -18 33 -42 43 -53 17 -21 17 -21 11 -1 l-6 20 17 -20
c9 -11 19 -32 22 -47 3 -15 12 -33 19 -39 8 -6 14 -16 14 -22 0 -5 10 -25 21
-44 17 -27 24 -32 31 -21 7 10 8 8 4 -5 -3 -10 2 -35 13 -55 43 -87 65 -121
74 -115 6 3 7 1 3 -5 -3 -6 5 -27 19 -48 14 -20 25 -41 25 -45 0 -5 9 -18 20
-29 11 -11 20 -28 20 -39 0 -10 7 -24 15 -31 8 -7 15 -20 15 -29 0 -9 4 -21 9
-26 5 -6 5 -19 1 -30 -8 -22 -6 -24 -59 82 -31 61 -30 60 -42 43 -9 -13 -10
-12 -6 2 3 9 -3 35 -14 57 -11 23 -24 52 -29 66 -5 14 -14 25 -20 25 -5 0 -10
-2 -10 -4 0 -11 42 -96 50 -101 6 -4 8 -11 4 -17 -3 -5 -15 5 -26 22 -10 18
-22 30 -25 26 -3 -3 2 -15 12 -26 10 -11 15 -20 11 -20 -11 0 54 -114 70 -123
8 -4 14 -17 14 -27 0 -10 6 -23 13 -27 18 -11 46 -89 40 -112 -2 -10 4 -48 15
-85 11 -36 16 -63 11 -60 -5 3 -9 9 -9 13 0 5 -10 30 -22 57 -12 27 -22 52
-23 56 -1 16 -17 21 -25 8 -8 -12 -10 -12 -10 -1 0 8 7 19 15 25 13 10 12 16
-10 48 -14 20 -25 42 -25 48 0 6 -5 16 -10 23 -24 28 -70 103 -70 114 0 17
-191 213 -208 213 -7 0 -12 5 -10 11 5 14 -78 99 -119 124 -41 24 -43 39 -3
19 17 -9 39 -13 51 -9 18 6 21 4 16 -10 -5 -11 5 -28 30 -53 79 -76 101 -93
109 -81 4 8 3 9 -4 5 -7 -4 -12 -1 -12 8 0 9 -6 15 -12 14 -7 -2 -13 6 -13 17
-1 12 -11 36 -24 55 -15 23 -4 15 34 -24 31 -33 66 -65 78 -71 12 -7 21 -17
19 -23 -1 -7 2 -12 7 -12 15 0 9 39 -7 45 -9 3 -11 13 -7 27 4 17 4 19 -3 9
-8 -11 -12 -9 -22 10 -7 13 -20 35 -28 49 l-14 25 21 -24 c37 -41 36 1 -1 52
-87 119 -97 137 -92 150 3 9 -11 32 -35 57 -49 51 -57 70 -29 62 18 -4 19 -3
9 19 -12 23 -11 23 4 4 8 -10 14 -24 12 -30z m-120 -5 c18 -16 28 -30 20 -30
-7 0 -26 14 -42 30 -16 17 -25 30 -21 30 5 0 24 -13 43 -30z m343 4 c0 -8 -4
-12 -10 -9 -5 3 -10 13 -10 21 0 8 5 12 10 9 6 -3 10 -13 10 -21z m350 4 c0
-6 -6 -5 -15 2 -8 7 -15 14 -15 16 0 2 7 1 15 -2 8 -4 15 -11 15 -16z m-488
-36 c21 -31 23 -40 12 -50 -19 -18 -26 -15 -19 8 4 13 1 22 -9 26 -9 3 -13 10
-10 15 3 5 0 9 -5 9 -6 0 -11 7 -11 15 0 25 16 17 42 -23z m-118 -43 c4 6 4
16 0 23 -4 7 -3 8 4 4 7 -4 12 -17 12 -30 0 -21 14 -41 88 -123 12 -14 22 -33
22 -41 0 -16 -14 -2 -54 53 -11 14 -28 36 -38 47 -10 12 -18 25 -18 30 0 4 -4
8 -10 8 -16 0 -61 51 -54 62 4 5 14 -2 24 -17 11 -17 20 -23 24 -16z m811 31
c3 -5 1 -10 -4 -10 -6 0 -11 5 -11 10 0 6 2 10 4 10 3 0 8 -4 11 -10z m-2174
-23 c-10 -9 -11 -8 -5 6 3 10 9 15 12 12 3 -3 0 -11 -7 -18z m1999 -38 c0 -5
-4 -9 -8 -9 -9 0 -32 44 -32 58 1 10 40 -38 40 -49z m-800 20 c0 -14 -16 -11
-29 5 -10 12 -8 13 8 9 12 -3 21 -9 21 -14z m1046 -57 c-6 -5 -36 54 -36 70 0
7 9 -5 20 -27 11 -21 18 -40 16 -43z m-1000 45 c17 6 19 -13 2 -21 -7 -3 -3
-3 9 0 16 3 23 -1 28 -16 4 -11 10 -18 15 -15 15 9 20 -12 6 -24 -10 -9 -21
-4 -47 20 -18 17 -34 41 -35 52 -2 12 0 17 2 10 3 -7 12 -9 20 -6z m78 -12 c3
-8 1 -15 -4 -15 -6 0 -10 7 -10 15 0 8 2 15 4 15 2 0 6 -7 10 -15z m996 -37
c0 -17 -15 -7 -27 18 -12 26 -12 26 7 9 11 -10 20 -22 20 -27z m-1195 12 c10
-11 14 -20 9 -20 -5 0 -17 9 -27 20 -9 11 -13 20 -8 20 4 0 16 -9 26 -20z
m965 0 c0 -5 -4 -10 -10 -10 -5 0 -10 5 -10 10 0 6 5 10 10 10 6 0 10 -4 10
-10z m-839 -38 c24 -21 59 -48 77 -61 18 -13 31 -25 28 -28 -3 -3 -17 4 -32
16 -15 11 -31 21 -36 21 -5 0 -29 20 -54 45 -54 55 -43 59 17 7z m464 28 c3
-5 1 -10 -4 -10 -6 0 -11 5 -11 10 0 6 2 10 4 10 3 0 8 -4 11 -10z m-1754 -61
c-8 -38 -9 -40 -10 -12 -1 17 2 39 5 48 11 29 14 10 5 -36z m1154 41 c3 -5 15
-10 26 -10 10 0 19 -4 19 -9 0 -6 -12 -6 -32 0 -38 10 -60 29 -36 29 9 0 20
-4 23 -10z m1370 -20 c3 -5 1 -10 -4 -10 -6 0 -11 5 -11 10 0 6 2 10 4 10 3 0
8 -4 11 -10z m-1124 -13 c9 -7 16 -20 16 -29 0 -26 -15 -22 -19 4 -2 12 -9 23
-17 26 -9 3 -11 0 -6 -8 5 -8 3 -11 -5 -8 -8 2 -16 10 -18 16 -5 16 28 15 49
-1z m479 -32 c0 -5 -5 -3 -10 5 -5 8 -10 20 -10 25 0 6 5 3 10 -5 5 -8 10 -19
10 -25z m-48 -8 c-4 -14 -7 -16 -13 -5 -12 19 -11 25 5 25 8 0 11 -8 8 -20z
m-547 3 c3 -5 1 -10 -4 -10 -6 0 -11 5 -11 10 0 6 2 10 4 10 3 0 8 -4 11 -10z
m875 -4 c0 -8 6 -17 13 -20 6 -3 3 -5 -8 -3 -20 2 -35 37 -16 37 6 0 11 -6 11
-14z m-661 -29 c12 -15 12 -17 -3 -11 -9 3 -16 13 -16 22 0 8 1 13 3 11 1 -2
9 -12 16 -22z m303 -35 c-8 -24 -9 -23 -9 17 0 32 2 39 9 27 6 -10 6 -27 0
-44z m-338 33 c3 -8 1 -15 -4 -15 -6 0 -10 7 -10 15 0 8 2 15 4 15 2 0 6 -7
10 -15z m-1508 -103 c-11 -10 -13 3 -7 48 l6 45 3 -44 c2 -23 1 -46 -2 -49z
m1529 27 c11 -13 3 -8 -18 10 -20 19 -37 39 -37 43 0 9 23 -13 55 -53z m424 1
c0 -9 -4 -8 -9 5 -5 11 -9 27 -9 35 0 9 4 8 9 -5 5 -11 9 -27 9 -35z m-339
-10 c0 -5 -2 -10 -4 -10 -3 0 -8 5 -11 10 -3 6 -1 10 4 10 6 0 11 -4 11 -10z
m-130 -31 c0 -6 -4 -7 -10 -4 -5 3 -10 11 -10 16 0 6 5 7 10 4 6 -3 10 -11 10
-16z m-1495 -18 c3 -5 1 -12 -5 -16 -5 -3 -10 1 -10 9 0 18 6 21 15 7z m2592
-63 c-3 -8 -6 -5 -6 6 -1 11 2 17 5 13 3 -3 4 -12 1 -19z m-427 -16 c0 -15 -2
-15 -10 -2 -13 20 -13 33 0 25 6 -3 10 -14 10 -23z m54 -24 c-5 -8 -10 -6 -15
8 -14 35 -10 50 7 26 8 -12 12 -27 8 -34z m-1 -101 c-3 -5 -13 8 -24 27 -26
50 -24 57 5 16 13 -19 22 -39 19 -43z m431 28 c9 -14 14 -25 12 -25 -8 0 -36
31 -36 41 0 15 7 10 24 -16z m-670 -11 c3 -8 2 -12 -4 -9 -6 3 -10 10 -10 16
0 14 7 11 14 -7z m186 -42 c0 -15 -2 -15 -10 -2 -13 20 -13 33 0 25 6 -3 10
-14 10 -23z m70 -8 c0 -8 -4 -12 -10 -9 -5 3 -10 10 -10 16 0 5 5 9 10 9 6 0
10 -7 10 -16z m-41 -74 c0 -9 -6 -4 -14 10 -8 14 -14 32 -14 40 0 9 6 4 14
-10 8 -14 14 -32 14 -40z m202 -63 c22 -89 23 -101 10 -92 -6 3 -10 13 -10 23
0 32 -23 137 -32 147 -5 5 -9 18 -8 30 0 18 2 17 11 -5 5 -14 19 -60 29 -103z
m-128 79 c8 -19 18 -51 22 -72 6 -38 6 -38 -9 -14 -8 14 -12 28 -9 33 2 4 1
13 -4 20 -16 22 -33 67 -25 67 5 0 16 -15 25 -34z m411 8 c3 -8 2 -12 -4 -9
-6 3 -10 10 -10 16 0 14 7 11 14 -7z m-1354 -44 c0 -5 -8 -10 -17 -10 -15 0
-16 2 -3 10 19 12 20 12 20 0z m1370 -11 c0 -11 -4 -17 -10 -14 -5 3 -10 13
-10 21 0 8 5 14 10 14 6 0 10 -9 10 -21z m-1275 -29 c-26 -11 -65 -12 -65 -2
0 5 19 9 43 10 32 0 37 -1 22 -8z m534 -34 c-3 -3 -11 5 -18 17 -13 21 -12 21
5 5 10 -10 16 -20 13 -22z m-125 -15 c3 -4 -6 -6 -19 -3 -14 2 -25 6 -25 8 0
8 39 4 44 -5z m-59 -17 c28 -3 54 -10 60 -15 12 -12 -7 -11 -165 11 l-135 19
95 -5 c52 -2 118 -7 145 -10z m-173 -55 c83 -17 105 -40 123 -127 52 -251 -38
-404 -267 -457 -85 -19 -220 -19 -285 0 -99 30 -213 192 -213 305 0 150 134
235 435 276 118 16 141 16 207 3z m-1305 -52 c3 -4 -5 -7 -18 -8 -13 0 -34 -2
-46 -3 -24 -3 -31 9 -10 17 16 7 65 2 74 -6z m108 -7 c13 -6 15 -9 5 -9 -8 0
-22 4 -30 9 -18 12 -2 12 25 0z m2033 -65 c0 -16 -2 -15 -8 5 -4 14 -8 36 -8
50 0 22 1 22 8 -5 4 -16 8 -39 8 -50z m46 34 c3 -17 6 -42 6 -56 0 -14 4 -22
10 -18 6 4 8 28 5 58 -4 44 -3 47 4 17 5 -19 17 -80 26 -135 9 -55 21 -113 25
-130 5 -16 12 -56 16 -87 3 -32 10 -55 15 -52 5 3 9 1 9 -5 0 -5 -6 -11 -12
-14 -10 -3 -10 -7 -2 -18 6 -8 12 -30 12 -49 1 -19 5 -55 10 -80 4 -25 5 -85
1 -135 -4 -49 -10 -137 -14 -195 -3 -58 -10 -121 -15 -140 -5 -19 -12 -68 -14
-108 -3 -40 -8 -77 -11 -82 -13 -21 -45 -158 -45 -193 0 -21 -4 -36 -9 -32
-15 9 -25 -16 -32 -80 -16 -147 -31 -265 -39 -325 -24 -158 -49 -297 -60 -325
-6 -16 -16 -70 -21 -119 -5 -49 -18 -119 -28 -155 -10 -36 -29 -122 -41 -191
-12 -69 -33 -157 -46 -195 -13 -39 -28 -95 -34 -125 -13 -70 -46 -154 -121
-306 -32 -66 -59 -125 -59 -130 0 -5 -11 -18 -25 -28 -14 -10 -25 -24 -25 -31
0 -7 -7 -19 -16 -26 -15 -12 -16 -11 -9 11 4 14 14 37 21 52 8 15 14 30 14 34
0 14 -41 -46 -57 -83 -9 -21 -18 -33 -20 -26 -2 7 5 34 17 60 27 59 36 117 18
111 -7 -3 -17 -18 -22 -34 -11 -39 -78 -176 -70 -144 11 44 -20 3 -62 -80 -43
-86 -59 -78 -20 9 14 32 26 66 26 74 0 9 4 19 10 22 9 6 35 83 32 96 -1 4 12
44 28 90 16 45 28 85 25 87 -5 5 -9 -5 -54 -138 -18 -52 -40 -111 -48 -130
-33 -78 -57 -125 -66 -131 -5 -3 -8 -9 -8 -13 2 -18 -13 -66 -20 -66 -12 0
-12 27 0 34 15 10 21 79 8 95 -9 11 -9 13 0 8 15 -9 37 29 27 45 -5 8 -10 5
-15 -8 -5 -15 -8 -11 -14 19 -6 31 -3 44 14 67 11 16 21 35 21 43 0 7 4 17 9
22 14 16 50 135 41 135 -5 0 -16 -21 -26 -47 -26 -70 -82 -168 -93 -166 -6 2
-7 -5 -4 -14 4 -9 2 -14 -3 -10 -6 3 -18 -8 -28 -24 -26 -44 -31 -28 -7 22 12
23 21 50 21 58 0 9 -8 2 -16 -16 -11 -23 -21 -30 -32 -25 -15 5 -15 3 -4 -10
9 -11 10 -18 2 -23 -5 -3 -10 -1 -10 5 0 7 -6 5 -15 -4 -8 -8 -15 -19 -15 -25
0 -6 -5 -11 -11 -11 -6 0 -8 6 -5 13 3 6 9 20 12 30 4 9 11 17 16 17 5 0 7 3
5 8 -2 4 2 21 9 37 13 29 13 29 14 5 l1 -25 14 25 c8 14 14 32 15 40 0 8 6 26
13 40 18 34 27 71 17 65 -5 -3 -14 -21 -20 -41 -8 -24 -16 -34 -27 -30 -11 5
-13 1 -8 -15 5 -14 3 -19 -4 -15 -6 4 -18 -8 -27 -31 -32 -73 -37 -83 -46 -83
-4 0 -8 5 -8 11 0 5 -4 7 -10 4 -5 -3 -10 1 -10 10 0 9 -4 13 -10 10 -16 -10
-12 7 14 55 13 25 26 59 30 75 7 28 6 28 -7 10 -7 -11 -20 -36 -27 -55 -7 -19
-20 -44 -28 -55 -13 -19 -14 -19 -8 7 4 17 1 28 -6 30 -10 4 -10 10 0 32 6 15
12 37 12 49 -1 16 -6 11 -20 -20 -11 -23 -25 -45 -30 -48 -14 -8 -13 -1 5 42
19 46 19 59 -1 42 -14 -11 -15 -9 -9 27 4 21 18 80 31 129 13 50 28 128 34
175 5 47 14 112 19 145 14 88 21 204 11 180 -8 -18 -9 -18 -9 5 -1 24 -1 24
-14 5 -20 -30 -37 -141 -39 -256 l-1 -104 -7 80 c-4 44 -4 105 0 135 5 30 4
59 -1 64 -5 6 -9 1 -9 -12 0 -12 -4 -22 -9 -22 -5 0 -7 10 -4 23 5 21 5 21
-10 2 -8 -10 -14 -24 -13 -30 2 -5 1 -7 -1 -2 -9 14 -23 7 -23 -13 0 -18 -11
-25 -33 -21 -5 1 -6 -3 -2 -9 3 -5 1 -10 -5 -10 -6 0 -8 -4 -5 -10 3 -5 2 -10
-3 -10 -5 0 -12 -9 -15 -20 -3 -11 -10 -20 -17 -20 -6 0 -8 5 -5 10 14 23 -11
7 -48 -30 -24 -25 -37 -46 -33 -56 3 -8 2 -13 -3 -9 -5 3 -54 -40 -108 -94
l-98 -99 -45 11 c-41 11 -45 15 -47 47 -1 19 2 71 7 115 6 44 12 123 14 175 2
52 11 147 20 210 16 107 16 121 1 207 -23 129 -25 139 -29 218 -2 41 0 60 4
45 l8 -25 2 25 c1 14 4 20 6 13 4 -8 16 -10 35 -6 22 4 33 1 43 -12 23 -32
276 -18 276 16 0 6 17 18 38 27 39 18 74 41 125 83 18 14 45 29 61 33 16 4 30
15 33 27 3 11 11 18 19 15 7 -3 24 4 38 15 24 19 26 19 26 2 1 -17 1 -17 14 0
11 14 15 15 20 5 3 -7 3 -3 1 8 -5 17 1 24 25 33 18 6 30 7 28 3 -2 -4 -18
-37 -37 -75 -19 -37 -31 -70 -28 -74 4 -3 15 12 24 33 20 42 50 91 70 112 7 7
13 22 13 32 0 10 5 22 11 25 5 4 8 12 6 18 -2 7 4 28 14 48 17 35 17 36 -1 34
-11 -1 -23 -5 -27 -10 -5 -4 -2 -5 5 -1 6 4 12 3 12 -2 0 -14 -38 -54 -48 -50
-5 1 17 46 49 98 33 52 62 102 66 110 3 8 26 45 50 82 33 50 43 74 38 90 -5
18 -4 20 4 8 9 -12 11 -9 11 13 0 16 5 37 11 48 5 11 9 30 6 42 -3 21 -4 21
-11 2 -4 -11 -13 -30 -19 -43 -10 -22 -12 -22 -18 -5 -7 16 -8 15 -8 -4 -1
-29 -70 -125 -83 -117 -6 4 -8 -2 -3 -17 5 -18 4 -20 -4 -9 -8 12 -13 10 -31
-13 -12 -15 -35 -34 -51 -43 -17 -8 -38 -23 -47 -32 -24 -24 -220 -122 -244
-122 -19 0 -100 -41 -128 -65 -24 -20 -127 -76 -136 -74 -5 2 -22 -4 -37 -11
-67 -32 -256 27 -344 108 -20 17 -37 32 -40 32 -2 0 -17 14 -33 30 -17 17 -30
29 -30 27 0 -3 -17 12 -38 32 -47 45 -80 71 -90 71 -4 0 -19 11 -34 25 -17 16
-28 20 -31 12 -2 -7 -9 -1 -17 13 -7 14 -19 29 -26 33 -21 12 -75 111 -128
232 -26 61 -51 119 -56 130 -20 44 -63 175 -87 265 -28 106 -24 157 13 153
207 -23 217 -23 282 -8 185 42 222 80 279 287 29 107 43 128 89 128 26 0 37
-6 50 -27 95 -157 154 -220 241 -260 139 -64 392 -24 540 85 60 45 101 111
140 226 45 137 45 137 53 96 l7 -35 2 40 c1 33 3 37 12 22 6 -10 7 -32 4 -49
-5 -20 -4 -28 3 -24 6 4 16 -3 22 -14 6 -12 20 -30 31 -41 19 -19 19 -19 20 4
1 19 2 18 14 -9 16 -36 18 -77 11 -186 -5 -65 -3 -78 9 -78 9 0 15 10 16 23 0
21 1 21 10 -3 8 -19 6 -27 -7 -37 -25 -18 -15 -134 16 -186 12 -21 24 -36 26
-34 2 1 -3 27 -11 56 -12 48 -20 112 -15 136 1 6 13 -33 27 -85 30 -116 29
-112 36 -130 19 -52 27 -89 28 -129 0 -46 16 -102 19 -71 5 41 3 97 -4 117 -6
19 -4 22 11 17 11 -4 14 -3 7 3 -15 11 -30 148 -15 139 6 -4 11 -19 11 -34 0
-15 5 -43 10 -62 6 -19 11 -109 11 -199 1 -152 3 -163 16 -136 9 16 21 62 28
104 l12 76 -1 -112 c0 -61 -3 -110 -7 -107 -4 2 -9 -15 -12 -39 -2 -23 -12
-73 -21 -111 -18 -78 -16 -96 4 -36 7 21 17 37 21 34 5 -3 6 2 3 10 -3 8 2 38
11 65 9 28 19 72 21 98 3 26 9 73 14 103 l8 55 1 -67 c0 -37 -4 -100 -9 -141
-7 -46 -7 -83 -1 -98 l9 -24 7 27 c4 15 4 32 -1 39 -4 7 -3 10 3 6 11 -7 23
58 23 125 0 24 5 41 14 44 20 8 26 42 27 152 0 80 4 104 20 128 18 28 28 14 9
-16 -5 -8 -5 -19 -1 -25 28 -35 16 -199 -44 -655 -8 -58 -16 -133 -19 -168 -3
-34 -8 -75 -12 -90 -4 -19 -3 -23 4 -12 5 8 12 40 16 70 7 59 58 332 63 339 2
2 6 1 10 -2 3 -4 0 -25 -7 -47 -13 -40 -7 -67 10 -41 9 16 26 183 22 219 -2
15 1 21 7 17 7 -4 12 8 13 32 2 59 -1 75 -20 96 -16 19 -16 20 7 7 15 -7 21
-8 17 -1 -4 6 -4 16 0 22 3 6 15 -13 25 -42 22 -61 25 -94 7 -83 -8 5 -9 0 -5
-17 4 -13 7 -53 8 -89 l2 -65 11 65 c7 36 17 78 24 93 12 29 26 227 23 327 -1
30 -3 87 -4 126 -1 40 -4 71 -7 69 -3 -2 -5 26 -5 61 0 35 3 64 6 64 12 0 17
38 6 49 -5 5 -12 47 -14 93 -3 74 -7 134 -17 246 -1 19 -7 37 -13 40 -6 4 -14
25 -18 47 -4 22 -9 48 -12 58 -2 9 0 17 5 17 5 0 12 -14 16 -31z m96 -39 c6
-11 7 -20 2 -20 -6 0 -12 9 -15 20 -3 11 -3 20 -1 20 2 0 8 -9 14 -20z m-2131
-15 c-3 -2 -37 -5 -77 -6 -58 -1 -73 -5 -77 -19 -4 -13 -12 -16 -28 -12 -20 5
-21 4 -7 -14 8 -10 20 -22 25 -26 19 -14 -10 -9 -30 6 -22 14 -55 17 -55 4 0
-4 -7 -8 -16 -8 -15 0 -16 -8 -9 -57 4 -32 8 -78 8 -103 -1 -25 1 -35 4 -22 2
12 10 34 18 48 l13 26 7 -31 c4 -18 15 -33 26 -36 28 -9 71 3 86 24 8 13 33
21 75 26 35 5 65 9 68 10 3 1 22 9 42 18 21 10 57 17 80 18 24 0 37 3 31 6
-15 5 -18 33 -4 33 5 0 13 -9 16 -20 6 -19 16 -24 42 -21 19 2 27 -88 14 -162
-13 -80 -28 -112 -73 -156 -117 -117 -401 -117 -524 -2 -18 17 -35 27 -39 23
-5 -4 -5 -1 -1 6 4 6 -2 25 -13 40 -53 75 -92 292 -58 321 14 11 15 9 4 -18
-14 -39 2 -139 38 -233 25 -63 108 -168 134 -168 11 0 10 67 -4 357 l-7 141
23 5 c32 6 274 8 268 2z m81 -95 c0 -5 -4 -10 -10 -10 -5 0 -10 5 -10 10 0 6
5 10 10 10 6 0 10 -4 10 -10z m1455 -10 c3 -5 1 -10 -4 -10 -6 0 -11 5 -11 10
0 6 2 10 4 10 3 0 8 -4 11 -10z m-1555 -19 c0 -11 5 -23 10 -26 19 -12 1 -22
-30 -17 -33 5 -36 12 -18 42 16 26 38 26 38 1z m2297 -28 c-3 -10 -5 -4 -5 12
0 17 2 24 5 18 2 -7 2 -21 0 -30z m-261 -60 c-10 -10 -19 5 -10 18 6 11 8 11
12 0 2 -7 1 -15 -2 -18z m262 -19 c-3 -14 -5 -12 -10 9 -3 19 -2 25 4 19 6 -6
8 -18 6 -28z m-100 -21 c-1 -16 2 -36 6 -45 5 -11 4 -18 -2 -18 -12 0 -21 45
-15 71 8 27 12 23 11 -8z m-158 -3 c0 -5 -2 -10 -4 -10 -3 0 -8 5 -11 10 -3 6
-1 10 4 10 6 0 11 -4 11 -10z m0 -42 c0 -19 -2 -20 -10 -8 -13 19 -13 30 0 30
6 0 10 -10 10 -22z m-65 -79 c-5 -57 -11 -69 -28 -68 -9 0 -9 2 1 6 8 3 12 26
12 64 0 37 4 58 10 54 5 -3 8 -29 5 -56z m65 -16 c0 -7 -4 -13 -10 -13 -5 0
-10 12 -10 28 0 21 2 24 10 12 5 -8 10 -21 10 -27z m47 -55 c-3 -8 -6 -5 -6 6
-1 11 2 17 5 13 3 -3 4 -12 1 -19z m-2347 -138 c0 -5 -4 -10 -10 -10 -5 0 -10
5 -10 10 0 6 5 10 10 10 6 0 10 -4 10 -10z m-373 -102 c-3 -8 -6 -5 -6 6 -1
11 2 17 5 13 3 -3 4 -12 1 -19z m2726 -47 c4 -29 2 -40 -4 -30 -8 13 -14 88
-5 78 2 -2 6 -24 9 -48z m-386 -13 c-3 -7 -5 -2 -5 12 0 14 2 19 5 13 2 -7 2
-19 0 -25z m-2240 -35 c-3 -10 -5 -4 -5 12 0 17 2 24 5 18 2 -7 2 -21 0 -30z
m2438 -132 c0 -27 -3 -53 -7 -57 -9 -9 -11 67 -2 90 3 9 7 16 8 16 0 0 1 -22
1 -49z m125 -32 c0 -6 -4 -7 -10 -4 -5 3 -10 11 -10 16 0 6 5 7 10 4 6 -3 10
-11 10 -16z m60 -107 c0 -15 -2 -15 -10 -2 -13 20 -13 33 0 25 6 -3 10 -14 10
-23z m80 7 c0 -11 -4 -18 -10 -14 -5 3 -7 12 -3 20 7 21 13 19 13 -6z m-170
-25 c0 -14 -4 -23 -9 -20 -5 3 -7 15 -4 26 7 28 13 25 13 -6z m-2203 -136 c-3
-7 -5 -2 -5 12 0 14 2 19 5 13 2 -7 2 -19 0 -25z m-68 -80 c0 -28 -2 -30 -9
-13 -12 28 -12 45 0 45 6 0 10 -15 9 -32z m58 -40 c-2 -13 -4 -3 -4 22 0 25 2
35 4 23 2 -13 2 -33 0 -45z m2560 25 c-10 -22 -13 -24 -15 -9 -2 10 2 22 10
27 19 12 19 12 5 -18z m-896 -60 c-12 -20 -14 -14 -5 12 4 9 9 14 11 11 3 -2
0 -13 -6 -23z m879 11 c0 -8 -5 -12 -10 -9 -6 4 -8 11 -5 16 9 14 15 11 15 -7z
m-29 -51 c-12 -20 -14 -14 -5 12 4 9 9 14 11 11 3 -2 0 -13 -6 -23z m-15 -60
c-11 -11 -17 4 -9 23 7 18 8 18 11 1 2 -10 1 -21 -2 -24z m-2473 -28 c5 -28 4
-34 -3 -20 -8 19 -14 73 -6 64 2 -2 6 -22 9 -44z m-19 -35 c4 -24 3 -29 -3
-15 -4 11 -11 36 -15 55 -4 24 -3 29 3 15 4 -11 11 -36 15 -55z m193 -238 c-3
-10 -6 -3 -7 13 -1 24 -3 26 -9 11 -4 -12 -7 1 -8 35 l0 54 14 -48 c8 -27 12
-56 10 -65z m2059 51 c-11 -11 -17 4 -9 23 7 18 8 18 11 1 2 -10 1 -21 -2 -24z
m-775 -15 c-4 -12 -13 -24 -20 -26 -9 -3 -9 2 0 22 15 32 32 35 20 4z m-1334
-30 c-3 -8 -6 -5 -6 6 -1 11 2 17 5 13 3 -3 4 -12 1 -19z m1369 -15 c-11 -11
-17 4 -9 23 7 18 8 18 11 1 2 -10 1 -21 -2 -24z m-1306 -40 c0 -27 -15 -23
-22 5 -3 11 0 19 8 19 8 0 14 -11 14 -24z m-253 -125 c-2 -13 -4 -3 -4 22 0
25 2 35 4 23 2 -13 2 -33 0 -45z m2733 -42 c0 -3 -4 -8 -10 -11 -5 -3 -10 -1
-10 4 0 6 5 11 10 11 6 0 10 -2 10 -4z m-363 -168 c-3 -8 -6 -5 -6 6 -1 11 2
17 5 13 3 -3 4 -12 1 -19z m-40 -10 c-3 -8 -6 -5 -6 6 -1 11 2 17 5 13 3 -3 4
-12 1 -19z m-2250 -60 c-3 -8 -6 -5 -6 6 -1 11 2 17 5 13 3 -3 4 -12 1 -19z
m2280 -10 c-3 -7 -5 -2 -5 12 0 14 2 19 5 13 2 -7 2 -19 0 -25z m-1800 -30
c-3 -7 -5 -2 -5 12 0 14 2 19 5 13 2 -7 2 -19 0 -25z m1690 0 c-3 -8 -6 -5 -6
6 -1 11 2 17 5 13 3 -3 4 -12 1 -19z m46 -28 c-3 -12 -8 -19 -11 -16 -5 6 5
36 12 36 2 0 2 -9 -1 -20z m-2326 -22 c-3 -8 -6 -5 -6 6 -1 11 2 17 5 13 3 -3
4 -12 1 -19z m-120 -330 c-3 -8 -6 -5 -6 6 -1 11 2 17 5 13 3 -3 4 -12 1 -19z
m79 -186 c-17 -16 -18 -16 -5 5 7 12 15 20 18 17 3 -2 -3 -12 -13 -22z m444 6
c0 -13 0 -32 2 -43 4 -43 -2 -86 -12 -80 -5 3 -10 0 -11 -7 0 -7 -4 -4 -8 6
-7 17 2 98 14 134 7 19 15 14 15 -10z m-467 0 c-4 -7 -8 -17 -9 -23 -3 -24
-17 -55 -25 -55 -4 0 -6 -11 -3 -25 4 -25 -17 -77 -42 -103 -23 -22 -16 -34 9
-16 12 9 29 31 37 48 8 17 24 33 35 35 11 2 28 12 38 22 23 24 26 24 20 -1 -3
-11 -9 -20 -13 -20 -11 0 -44 -79 -37 -87 4 -3 7 1 7 10 0 10 5 17 11 17 18 0
4 -24 -19 -35 -12 -5 -22 -17 -22 -26 0 -9 -9 -23 -20 -30 -11 -8 -21 -26 -22
-41 -2 -20 -9 -28 -30 -32 -17 -3 -28 -12 -28 -21 0 -9 -4 -13 -10 -10 -11 7
-56 -63 -52 -81 1 -6 -5 -17 -13 -24 -9 -7 -15 -8 -15 -2 0 6 6 12 13 15 6 2
9 8 5 12 -4 4 -34 -17 -67 -47 -33 -30 -73 -61 -88 -68 -34 -18 -131 -97 -156
-127 -10 -13 -24 -20 -33 -16 -16 6 -54 -23 -54 -42 0 -7 -7 -18 -15 -25 -8
-7 -13 -16 -10 -20 3 -4 -3 -14 -12 -21 -15 -12 -16 -12 -9 5 7 20 6 20 -14 1
-11 -10 -18 -25 -15 -32 3 -9 0 -11 -7 -7 -7 5 -9 2 -5 -9 4 -11 2 -14 -8 -11
-8 3 -19 -4 -26 -18 -13 -25 -68 -78 -80 -78 -4 0 -11 -9 -14 -20 -3 -11 -10
-20 -15 -20 -13 0 -1 29 27 66 13 17 23 35 23 40 0 5 9 15 20 22 12 7 18 17
15 23 -8 12 21 59 35 59 6 0 3 -11 -6 -25 -24 -36 -9 -31 17 7 13 17 18 28 11
24 -24 -14 -11 7 28 50 37 40 52 71 32 62 -5 -1 -46 -45 -92 -96 -46 -51 -85
-90 -87 -88 -6 6 41 76 79 117 18 19 40 48 48 63 8 15 26 34 40 41 15 8 37 30
51 49 13 20 30 36 37 36 6 0 12 4 12 10 0 5 17 24 37 42 73 65 155 149 150
154 -5 5 -51 -31 -88 -70 -23 -24 -25 -14 -3 18 9 15 11 26 5 30 -12 8 -41
-44 -41 -72 0 -20 -18 -42 -34 -42 -6 0 -5 5 2 12 7 7 12 19 12 27 0 23 -40
-18 -41 -43 0 -12 -3 -15 -6 -9 -3 8 -33 -15 -76 -57 -39 -39 -75 -70 -80 -70
-4 0 -5 -4 -2 -10 3 -5 1 -10 -6 -10 -6 0 -18 -8 -25 -17 -12 -16 -13 -15 -4
10 5 15 35 51 66 80 31 29 79 73 106 100 26 26 53 47 58 47 6 0 10 3 10 8 0 4
14 23 30 42 17 19 28 40 26 47 -3 6 9 17 25 23 16 7 29 16 29 20 0 4 13 22 30
41 16 19 40 50 53 69 13 19 29 34 36 32 7 -1 28 16 48 38 20 22 41 40 47 40 8
0 8 -3 1 -8 -6 -4 -32 -37 -57 -74 -35 -51 -43 -69 -34 -78 8 -10 7 -12 -6 -7
-10 4 -17 3 -16 -1 1 -4 -6 -21 -15 -39 -9 -18 -17 -35 -17 -39 0 -14 71 62
86 93 9 17 38 55 65 85 27 29 56 67 64 83 9 17 32 42 53 57 42 31 46 33 35 16z
m607 -173 c-6 -15 -13 -25 -16 -23 -2 3 1 17 7 32 16 34 23 27 9 -9z m-404
-52 c-8 -15 -15 -22 -16 -15 0 17 20 55 27 49 2 -3 -2 -18 -11 -34z m-596 2
c0 -2 -9 -9 -20 -15 -16 -9 -18 -8 -14 5 5 13 34 22 34 10z m535 -17 c-6 -16
-4 -20 8 -15 11 4 14 2 11 -8 -3 -8 -9 -14 -12 -13 -21 2 -32 -4 -32 -17 0 -9
-12 -21 -27 -27 -39 -15 -54 -18 -47 -7 3 5 12 9 20 9 8 0 14 7 14 16 0 8 4
13 10 9 5 -3 19 13 32 35 26 45 33 50 23 18z m-55 -128 c0 -5 -9 -14 -20 -20
-19 -10 -20 -10 -8 9 13 22 28 28 28 11z m-50 -13 c0 -8 -11 -19 -25 -25 -36
-17 -37 -15 -12 12 25 28 37 32 37 13z m-60 -14 c-14 -9 -27 -19 -30 -22 -3
-3 -15 -12 -27 -19 -19 -10 -23 -10 -23 1 0 7 19 23 43 34 51 26 71 29 37 6z
m-476 -10 c4 -10 4 -14 0 -10 -4 4 -23 -5 -41 -19 -19 -14 -36 -24 -39 -22 -2
3 8 14 22 24 15 10 32 24 38 31 14 16 13 16 20 -4z m2506 -40 c-34 -63 -50
-84 -50 -65 0 7 5 12 10 12 6 0 10 6 10 14 0 13 49 96 57 96 2 0 -11 -26 -27
-57z m-2644 -7 c-3 -27 -17 -48 -69 -100 -36 -36 -77 -68 -90 -71 -14 -4 -27
-15 -30 -26 -3 -13 -11 -17 -21 -13 -22 8 -20 21 5 34 54 29 155 126 170 163
10 26 26 46 36 47 1 0 0 -15 -1 -34z m524 24 c0 -5 -2 -10 -4 -10 -3 0 -8 5
-11 10 -3 6 -1 10 4 10 6 0 11 -4 11 -10z m-28 -35 c-6 -12 -11 -14 -16 -6 -4
6 -3 11 3 11 6 0 8 8 4 18 -5 13 -3 14 7 5 8 -7 9 -16 2 -28z m-460 -7 c-7 -7
-12 -8 -12 -2 0 6 3 14 7 17 3 4 9 5 12 2 2 -3 -1 -11 -7 -17z m1003 -28 c-10
-11 -20 -18 -23 -15 -3 3 3 14 13 25 10 11 20 18 23 15 3 -3 -3 -14 -13 -25z
m1550 -60 c-4 -12 -9 -19 -12 -17 -3 3 -2 15 2 27 4 12 9 19 12 17 3 -3 2 -15
-2 -27z m-2775 -20 c0 -5 -8 -10 -17 -10 -15 0 -16 2 -3 10 19 12 20 12 20 0z
m786 -26 c8 3 14 3 14 -1 0 -12 -103 -103 -117 -103 -7 0 -13 -9 -13 -20 0
-11 -7 -20 -15 -20 -9 0 -18 -7 -21 -15 -4 -8 -11 -15 -16 -15 -6 0 -29 -13
-52 -28 -22 -15 -56 -34 -73 -41 -20 -8 -33 -21 -33 -31 0 -23 -26 -44 -46
-36 -12 4 -15 2 -11 -9 4 -8 2 -17 -3 -20 -6 -4 -10 2 -11 12 0 10 -3 13 -6 6
-2 -7 -27 -25 -54 -39 -27 -15 -49 -31 -49 -36 0 -5 11 -1 25 8 31 20 33 12 3
-15 -16 -16 -25 -18 -35 -10 -9 8 -13 8 -13 0 0 -6 -4 -11 -9 -11 -34 0 -247
-182 -236 -200 3 -5 -22 -32 -55 -62 -33 -29 -60 -56 -60 -60 0 -4 -11 -19
-24 -33 -14 -15 -23 -32 -20 -38 2 -7 -21 -40 -51 -74 -38 -42 -56 -72 -58
-92 -1 -16 -6 -29 -12 -28 -5 1 -10 -2 -10 -8 -2 -16 -41 -75 -47 -70 -2 3 -5
-1 -5 -7 0 -18 -43 -88 -53 -88 -5 0 -11 -8 -15 -17 -3 -10 -22 -36 -41 -58
-38 -42 -36 -32 2 20 36 50 84 144 84 168 0 12 9 41 20 64 18 41 27 54 60 91
8 10 32 43 53 74 21 31 42 60 47 63 6 4 8 11 5 16 -4 5 0 9 7 9 7 0 19 14 26
30 8 17 20 30 28 30 8 0 14 6 14 13 0 7 27 41 59 77 33 36 57 69 54 75 -4 5
-3 7 2 3 15 -14 103 60 122 101 6 14 12 20 12 14 2 -22 22 -14 66 25 73 65
107 92 115 92 5 0 17 11 28 25 11 14 23 25 27 25 10 0 35 27 29 33 -3 2 7 7
21 11 14 4 25 10 25 15 0 5 13 12 30 16 16 4 33 12 37 18 5 7 28 23 53 37 25
13 54 32 64 42 11 10 25 18 31 18 7 0 22 9 35 20 13 11 27 20 32 20 4 0 9 10
9 23 1 18 2 18 6 4 3 -11 11 -16 19 -13z m114 2 c0 -3 -4 -8 -10 -11 -5 -3
-10 -1 -10 4 0 6 5 11 10 11 6 0 10 -2 10 -4z m1850 -26 c0 -5 -5 -10 -11 -10
-5 0 -7 5 -4 10 3 6 8 10 11 10 2 0 4 -4 4 -10z m-2785 -39 c3 -5 -3 -12 -13
-15 -10 -4 -36 -22 -57 -41 -21 -20 -41 -33 -44 -29 -3 3 7 16 23 28 16 11 38
31 49 44 22 24 33 27 42 13z m2352 -33 c-3 -8 -6 -5 -6 6 -1 11 2 17 5 13 3
-3 4 -12 1 -19z m-727 -5 c0 -10 -61 -45 -67 -39 -3 3 10 14 28 25 38 24 39
24 39 14z m1049 -47 c-8 -33 -15 -44 -22 -37 -7 7 -5 23 8 51 23 51 29 45 14
-14z m-1169 36 c0 -4 -9 -13 -20 -20 -11 -7 -20 -17 -20 -23 0 -20 -104 -120
-118 -114 -9 3 -12 0 -9 -9 6 -16 -29 -53 -41 -42 -4 4 2 14 12 22 11 8 15 14
10 14 -17 0 -77 -68 -70 -79 6 -8 -41 -41 -59 -41 -9 0 26 52 52 78 13 13 23
28 23 35 0 7 9 23 20 37 l20 25 -10 -29 c-10 -27 -9 -28 7 -15 29 23 62 58 74
81 8 15 13 17 19 8 6 -9 13 -5 25 14 9 14 20 24 24 22 3 -2 15 7 26 20 20 24
35 31 35 16z m-1470 -5 c0 -2 -16 -18 -35 -37 -19 -19 -35 -30 -35 -26 0 4 14
21 31 37 29 27 39 34 39 26z m50 -33 c-18 -21 -24 -10 -9 18 8 14 14 18 17 10
2 -7 -2 -19 -8 -28z m2368 -24 c-6 -22 -14 -40 -19 -40 -10 0 -1 49 12 66 5 6
5 15 1 19 -4 5 -2 5 4 2 9 -5 9 -18 2 -47z m137 7 c-8 -19 -20 -39 -26 -42 -6
-4 -8 -17 -5 -29 2 -11 -2 -30 -10 -40 -8 -11 -14 -30 -14 -44 0 -13 -4 -20
-10 -17 -6 4 -10 -7 -10 -24 0 -17 -5 -31 -11 -31 -7 0 -9 9 -6 23 32 129 52
179 85 215 6 7 12 18 12 24 0 6 2 9 5 6 3 -3 -1 -21 -10 -41z m143 -8 c-17
-10 -17 -9 -11 25 6 30 6 30 15 6 6 -16 5 -26 -4 -31z m-298 33 c0 -5 -7 -17
-15 -28 -14 -18 -14 -17 -4 9 12 27 19 34 19 19z m-2126 -36 c-3 -9 -10 -16
-15 -16 -6 0 -5 9 1 21 13 24 24 20 14 -5z m462 4 c9 0 12 -5 8 -11 -4 -7 -10
-7 -16 -1 -7 7 -15 7 -22 1 -6 -5 -24 -21 -41 -35 -45 -38 -106 -68 -99 -49 4
8 10 15 15 15 4 0 31 20 59 45 28 25 55 43 61 40 5 -4 9 0 10 7 0 10 2 10 6 1
2 -7 11 -13 19 -13z m1737 -47 c-3 -7 -6 -13 -8 -13 -2 0 -5 6 -8 13 -3 8 1
14 8 14 7 0 11 -6 8 -14z m-2170 -13 c-3 -11 -9 -20 -13 -20 -5 0 -16 -7 -24
-16 -17 -16 -37 -11 -35 9 0 9 2 9 6 0 6 -15 43 5 43 24 0 6 6 14 13 16 6 3
13 6 14 6 0 1 -1 -8 -4 -19z m2320 0 c-3 -12 -8 -19 -11 -16 -5 6 5 36 12 36
2 0 2 -9 -1 -20z m-222 -41 c-25 -41 -27 -30 -4 19 9 19 18 31 20 25 2 -6 -5
-26 -16 -44z m-2624 9 c-3 -8 -6 -5 -6 6 -1 11 2 17 5 13 3 -3 4 -12 1 -19z
m2180 -20 c-3 -8 -6 -5 -6 6 -1 11 2 17 5 13 3 -3 4 -12 1 -19z m-1408 -1
c-22 -18 -79 -44 -79 -38 0 9 58 40 74 41 5 0 7 -1 5 -3z m-339 -27 c0 -5 -5
-10 -11 -10 -5 0 -7 5 -4 10 3 6 8 10 11 10 2 0 4 -4 4 -10z m1723 -7 c-7 -3
-13 -12 -14 -21 0 -11 -2 -13 -6 -4 -6 15 17 46 26 36 3 -4 0 -9 -6 -11z
m-113 -14 c0 -11 -4 -17 -10 -14 -5 3 -10 13 -10 21 0 8 5 14 10 14 6 0 10 -9
10 -21z m820 9 c0 -7 -5 -20 -10 -28 -8 -12 -10 -9 -10 13 0 15 5 27 10 27 6
0 10 -6 10 -12z m-2215 -44 c-22 -18 -43 -34 -47 -34 -16 0 -7 20 14 31 12 6
31 20 42 30 11 10 22 16 25 13 3 -3 -12 -21 -34 -40z m835 37 c0 -12 -29 -35
-36 -28 -7 6 17 36 29 37 4 0 7 -4 7 -9z m530 -17 c0 -8 -5 -12 -10 -9 -6 4
-8 11 -5 16 9 14 15 11 15 -7z m771 -27 c-10 -9 -11 -8 -5 6 3 10 9 15 12 12
3 -3 0 -11 -7 -18z m56 -34 c-3 -10 -5 -4 -5 12 0 17 2 24 5 18 2 -7 2 -21 0
-30z m-2696 -14 c-12 -19 -21 -30 -21 -26 0 14 31 69 36 64 3 -3 -4 -20 -15
-38z m1569 37 c0 -3 -4 -8 -10 -11 -5 -3 -10 -1 -10 4 0 6 5 11 10 11 6 0 10
-2 10 -4z m-1168 -48 c-7 -7 -12 -8 -12 -2 0 14 12 26 19 19 2 -3 -1 -11 -7
-17z m818 -8 c0 -11 -6 -20 -14 -20 -9 0 -12 7 -9 20 3 11 9 20 14 20 5 0 9
-9 9 -20z m290 0 c0 -11 -4 -20 -9 -20 -5 0 -7 9 -4 20 3 11 7 20 9 20 2 0 4
-9 4 -20z m-30 -27 c0 -5 -23 -30 -50 -56 -28 -27 -50 -53 -50 -58 0 -5 -4 -9
-10 -9 -19 0 -10 19 30 61 22 23 40 46 40 51 0 5 5 6 10 3 6 -3 10 -1 10 4 0
6 5 11 10 11 6 0 10 -3 10 -7z m-1604 -30 l-6 -28 19 23 c26 30 33 28 15 -5
-7 -16 -14 -36 -14 -46 0 -9 -9 -36 -19 -60 -11 -23 -24 -59 -31 -79 -6 -21
-16 -40 -21 -43 -5 -4 -9 -14 -9 -23 0 -9 -24 -63 -53 -119 -48 -94 -134 -207
-232 -307 -17 -17 -46 -53 -65 -80 -42 -60 -66 -86 -81 -86 -6 0 -8 -9 -4 -22
6 -16 4 -20 -8 -15 -9 3 -21 -1 -27 -9 -7 -8 -18 -14 -24 -14 -6 0 -17 -9 -24
-20 -7 -11 -19 -20 -27 -20 -8 0 -15 -4 -15 -10 0 -5 -5 -10 -11 -10 -6 0 -20
-11 -31 -25 -11 -14 -27 -25 -36 -24 -14 0 -13 3 6 16 42 30 22 32 -27 4 -27
-16 -52 -27 -55 -24 -3 4 -6 1 -6 -5 0 -7 -7 -12 -15 -12 -8 0 -15 5 -15 11 0
6 -7 8 -16 5 -10 -4 -13 -2 -8 7 15 25 49 72 56 77 4 3 9 17 11 31 5 23 24 56
107 178 37 54 70 95 69 85 -2 -24 -27 -79 -35 -76 -5 2 -10 -1 -12 -7 -2 -6 1
-11 8 -11 6 0 8 -4 5 -10 -3 -5 -11 -10 -16 -10 -6 0 -7 5 -4 10 3 6 4 10 1
10 -3 0 -17 -23 -30 -50 -13 -28 -20 -48 -15 -44 14 8 11 -2 -11 -49 l-21 -42
26 30 c13 17 25 34 25 38 0 5 5 5 12 1 7 -4 8 -3 4 4 -4 7 -4 17 0 23 4 8 9 7
15 -2 7 -11 9 -10 9 3 0 9 5 18 11 20 6 2 13 18 15 36 4 35 19 69 41 90 17 17
30 8 15 -10 -10 -13 -62 -136 -62 -147 0 -3 9 8 19 24 31 48 70 91 71 77 0 -8
5 -10 13 -6 6 4 -9 -14 -35 -41 -45 -45 -58 -65 -40 -65 4 0 18 14 31 31 18
22 26 27 32 17 7 -10 9 -9 9 5 0 9 7 17 16 17 42 0 212 174 268 275 9 17 25
44 36 60 38 59 60 105 50 105 -5 0 -1 18 11 39 11 22 21 54 22 73 1 18 10 44
20 58 9 13 17 30 17 37 0 16 69 163 76 163 4 0 3 -12 0 -27z m408 2 c-15 -13
-30 -22 -32 -20 -6 6 40 44 52 45 5 0 -4 -11 -20 -25z m111 15 c-3 -5 -12 -10
-18 -10 -7 0 -6 4 3 10 19 12 23 12 15 0z m795 6 c0 -2 -7 -6 -15 -10 -8 -3
-15 -1 -15 4 0 6 7 10 15 10 8 0 15 -2 15 -4z m1327 -18 c-3 -8 -6 -5 -6 6 -1
11 2 17 5 13 3 -3 4 -12 1 -19z m-554 -23 c-8 -22 -22 -18 -16 5 3 11 9 17 14
15 4 -3 6 -12 2 -20z m-1728 -15 c-3 -5 -12 -10 -18 -10 -7 0 -6 4 3 10 19 12
23 12 15 0z m1739 -35 c-4 -8 -8 -15 -10 -15 -2 0 -4 7 -4 15 0 8 4 15 10 15
5 0 7 -7 4 -15z m696 -97 c0 -46 -4 -78 -8 -72 -7 12 -4 154 4 154 2 0 4 -37
4 -82z m-1329 44 c-5 -9 -19 -26 -30 -36 -25 -23 -28 -41 -5 -32 14 5 15 4 4
-8 -6 -9 -10 -21 -7 -28 4 -8 6 -7 6 5 1 17 21 25 21 8 0 -5 3 -17 7 -27 5
-13 3 -16 -10 -11 -10 4 -14 2 -12 -6 3 -7 -2 -30 -10 -52 -8 -22 -15 -35 -15
-30 -1 6 -10 -12 -20 -39 -11 -27 -16 -54 -13 -60 3 -6 2 -7 -2 -3 -10 8 -35
-64 -35 -101 0 -13 -6 -30 -14 -38 -8 -7 -17 -33 -21 -56 -4 -23 -14 -53 -22
-65 -9 -13 -13 -30 -9 -38 3 -8 2 -15 -2 -15 -12 0 -52 -78 -52 -100 0 -11 -5
-22 -12 -26 -8 -5 -9 4 -4 34 4 26 2 42 -4 42 -5 0 -11 -8 -11 -17 -1 -17 -2
-17 -6 0 -2 9 5 32 16 50 11 18 22 53 25 78 3 24 10 67 16 94 6 28 11 57 11
65 1 8 8 34 16 58 9 23 13 45 9 49 -3 4 -12 -8 -18 -25 -14 -36 -33 -44 -22
-9 4 12 9 24 13 27 3 3 6 11 7 18 2 26 4 30 20 36 12 5 14 1 9 -17 -5 -17 -4
-19 4 -7 6 8 11 21 11 29 0 8 7 22 15 31 8 9 16 27 17 41 2 13 8 30 15 37 7 7
10 19 7 27 -3 8 9 29 28 48 18 19 43 46 55 60 26 31 38 35 24 9z m-1664 -14
c-3 -8 -6 -5 -6 6 -1 11 2 17 5 13 3 -3 4 -12 1 -19z m1684 -31 c-10 -9 -11
-8 -5 6 3 10 9 15 12 12 3 -3 0 -11 -7 -18z m-1701 -6 c0 -6 -4 -13 -10 -16
-5 -3 -10 1 -10 9 0 9 5 16 10 16 6 0 10 -4 10 -9z m86 -70 c-11 -12 -15 -25
-10 -33 6 -10 4 -10 -9 1 -14 11 -15 17 -5 30 17 21 31 31 37 26 2 -3 -4 -14
-13 -24z m2811 -3 c-3 -8 -6 -5 -6 6 -1 11 2 17 5 13 3 -3 4 -12 1 -19z
m-1327 -2 c0 -2 -7 -7 -16 -10 -8 -3 -12 -2 -9 4 6 10 25 14 25 6z m260 -14
c0 -5 -6 -9 -12 -10 -7 0 -23 -3 -36 -6 -13 -3 -20 -1 -17 5 4 5 10 7 14 5 4
-3 13 -1 21 5 19 11 30 11 30 1z m1180 -23 c0 -3 -7 -6 -15 -6 -17 0 -17 0 -9
22 5 13 8 14 15 3 5 -7 9 -16 9 -19z m-2700 -9 c-6 -11 -15 -20 -20 -20 -6 0
-2 9 7 20 10 11 19 20 21 20 1 0 -2 -9 -8 -20z m2281 -32 c-15 -32 -20 -37
-21 -20 0 12 5 22 10 22 6 0 10 8 10 18 0 19 10 35 17 28 3 -2 -5 -24 -16 -48z
m-33 -30 c2 -44 -8 -89 -17 -83 -5 2 -6 17 -3 32 5 26 4 27 -13 13 -15 -13
-15 -9 4 28 12 23 23 42 25 42 1 0 4 -15 4 -32z m-2508 2 c0 -5 -2 -10 -4 -10
-3 0 -8 5 -11 10 -3 6 -1 10 4 10 6 0 11 -4 11 -10z m-94 -32 c-9 -12 -16 -19
-16 -15 0 11 24 47 28 42 2 -2 -3 -14 -12 -27z m66 -18 c-17 -31 -32 -39 -32
-18 0 12 30 46 42 47 4 1 -1 -12 -10 -29z m1270 -10 c-6 -17 -9 -37 -6 -45 4
-8 1 -15 -4 -15 -6 0 -14 -27 -18 -61 -4 -33 -10 -56 -14 -49 -12 19 34 220
47 206 3 -3 0 -19 -5 -36z m1828 -50 c30 -93 38 -250 16 -314 -17 -50 -35 -87
-36 -73 0 4 8 38 18 75 19 71 20 178 2 212 -6 10 -14 45 -19 77 -5 32 -12 69
-16 83 -17 56 15 2 35 -60z m-103 -87 c-3 -10 -5 -2 -5 17 0 19 2 27 5 18 2
-10 2 -26 0 -35z m-710 -35 c-3 -7 -5 -2 -5 12 0 14 2 19 5 13 2 -7 2 -19 0
-25z m-2732 -58 c-10 -11 -24 -20 -32 -20 -11 0 -11 -4 -2 -22 6 -13 8 -20 4
-16 -6 6 -65 -52 -65 -65 0 -4 -11 -22 -25 -42 -13 -21 -32 -54 -42 -76 -9
-21 -20 -39 -25 -39 -8 0 0 28 13 46 9 11 2 24 -12 24 -5 0 -20 -17 -34 -37
-19 -29 -25 -33 -25 -18 0 11 14 35 31 53 16 17 27 37 24 42 -3 5 0 7 7 5 13
-5 58 36 58 53 0 5 16 25 35 46 19 21 35 41 35 45 0 8 51 40 64 41 5 0 1 -9
-9 -20z m1666 -55 l-9 -60 -1 52 c0 28 2 59 6 69 11 30 13 2 4 -61z m-1474
-17 c-3 -8 -6 -5 -6 6 -1 11 2 17 5 13 3 -3 4 -12 1 -19z m-657 -24 c0 -8 -5
-12 -10 -9 -6 4 -8 11 -5 16 9 14 15 11 15 -7z m50 -95 c-7 -11 -14 -18 -17
-15 -3 3 0 12 7 21 18 21 23 19 10 -6z m3737 -41 c-3 -8 -6 -5 -6 6 -1 11 2
17 5 13 3 -3 4 -12 1 -19z m-3697 -3 c0 -8 -4 -15 -10 -15 -5 0 -7 7 -4 15 4
8 8 15 10 15 2 0 4 -7 4 -15z m3678 -50 c-3 -3 -9 2 -12 12 -6 14 -5 15 5 6 7
-7 10 -15 7 -18z m-3603 -18 c8 2 16 11 19 19 3 9 10 12 16 9 17 -11 11 -23
-15 -29 -28 -7 -31 -22 -10 -50 24 -32 18 -36 -30 -19 -25 8 -45 16 -45 18 0
17 14 33 26 28 18 -7 18 5 -1 23 -23 24 -18 37 6 15 12 -11 27 -17 34 -14z
m2216 -64 c-12 -20 -14 -14 -5 12 4 9 9 14 11 11 3 -2 0 -13 -6 -23z m-2349
-66 c14 -26 2 -34 -20 -14 -10 10 -24 17 -30 17 -7 0 -12 4 -12 8 0 16 52 6
62 -11z m2518 -138 c-7 -11 -14 -18 -17 -15 -8 8 5 36 17 36 7 0 7 -6 0 -21z
m-55 -181 c-7 -33 -25 -62 -25 -41 0 15 21 73 27 73 2 0 2 -15 -2 -32z m472
-197 c-5 -66 -22 -111 -41 -111 -4 0 -4 6 2 13 8 9 32 132 32 161 0 3 3 6 6 6
4 0 4 -31 1 -69z m-224 -106 c5 -28 4 -34 -3 -20 -8 19 -14 73 -6 64 2 -2 6
-22 9 -44z m184 -37 c-3 -8 -6 -5 -6 6 -1 11 2 17 5 13 3 -3 4 -12 1 -19z
m-577 2 c0 -5 -5 -10 -11 -10 -5 0 -7 5 -4 10 3 6 8 10 11 10 2 0 4 -4 4 -10z"/>
<path d="M5010 7253 c0 -5 12 -19 27 -33 l27 -25 -19 33 c-18 30 -35 42 -35
25z"/>
<path d="M5087 7165 c8 -23 33 -51 33 -37 0 5 -9 20 -20 33 -17 21 -19 21 -13
4z"/>
<path d="M5150 7061 c0 -6 4 -13 10 -16 6 -3 7 1 4 9 -7 18 -14 21 -14 7z"/>
<path d="M5130 7042 c0 -22 2 -27 11 -25 11 4 59 -90 59 -114 0 -15 -2 -16
-10 -3 -9 13 -10 13 -10 0 1 -15 23 -50 32 -50 13 0 0 81 -20 118 -12 24 -19
49 -16 55 4 7 3 9 -1 4 -5 -4 -17 0 -27 10 -11 9 -18 11 -18 5z"/>
<path d="M5090 6922 c0 -5 7 -16 16 -23 14 -12 16 -11 13 5 -4 20 -29 35 -29
18z"/>
<path d="M4822 6448 c-66 -11 -118 -41 -156 -88 -37 -46 -53 -98 -20 -66 8 9
20 13 26 10 7 -4 4 -10 -6 -16 -9 -5 -16 -16 -16 -23 0 -8 -5 -15 -12 -15 -6
0 -8 -3 -5 -7 11 -11 58 19 107 67 44 44 45 44 48 20 4 -38 23 -80 36 -82 6 0
16 -2 21 -2 6 -1 16 -5 23 -9 6 -5 18 -5 24 -1 18 11 42 14 132 14 81 0 116
14 116 46 0 7 4 14 9 16 4 2 11 12 15 24 5 18 3 20 -22 16 -26 -3 -61 20 -55
37 7 16 -10 41 -27 41 -10 0 -31 5 -47 12 -32 13 -131 16 -191 6z m68 -113 c0
-8 -7 -15 -15 -15 -16 0 -20 12 -8 23 11 12 23 8 23 -8z"/>
<path d="M5150 6413 c0 -5 7 -18 15 -29 13 -18 14 -18 8 4 -5 22 -23 41 -23
25z"/>
<path d="M5181 6314 c0 -11 3 -14 6 -6 3 7 2 16 -1 19 -3 4 -6 -2 -5 -13z"/>
<path d="M4457 6273 c-4 -3 -7 -13 -7 -22 1 -13 3 -13 11 2 11 19 8 33 -4 20z"/>
<path d="M5470 5708 c0 -2 7 -24 14 -50 11 -35 12 -48 3 -51 -9 -3 -9 -10 1
-31 6 -15 12 -46 12 -69 0 -23 5 -49 10 -57 8 -13 10 -12 10 3 0 32 20 7 21
-26 l1 -32 12 35 c9 24 15 30 19 20 3 -8 6 4 6 27 1 23 -3 44 -8 47 -5 3 -12
22 -16 42 -3 20 -14 49 -23 63 -17 27 -62 85 -62 79z"/>
<path d="M4405 5662 c-22 -5 -35 -20 -35 -40 0 -8 9 -11 28 -7 15 4 53 6 85 5
31 -1 57 1 57 4 0 19 -98 47 -135 38z"/>
<path d="M4197 5623 c-16 -15 -4 -29 40 -47 38 -16 43 -21 27 -26 -10 -4 -32
-3 -47 3 -27 9 -47 4 -34 -9 11 -12 137 -7 152 6 19 16 10 30 -19 30 -13 0
-40 11 -60 25 -39 26 -48 29 -59 18z"/>
<path d="M4599 5613 c-13 -16 -12 -17 4 -4 9 7 17 15 17 17 0 8 -8 3 -21 -13z"/>
<path d="M4677 5273 c-31 -11 -31 -11 24 -12 61 -1 119 8 119 18 0 11 -109 6
-143 -6z"/>
<path d="M5691 5274 c0 -11 3 -14 6 -6 3 7 2 16 -1 19 -3 4 -6 -2 -5 -13z"/>
<path d="M4432 5248 c-4 -3 -34 -9 -67 -12 -33 -4 -75 -8 -92 -10 -18 -1 -51
-16 -75 -32 l-42 -29 38 -3 c24 -2 44 2 55 12 19 18 167 60 180 51 5 -3 12 -1
16 5 3 5 17 10 31 10 13 0 24 4 24 10 0 10 -57 9 -68 -2z"/>
<path d="M5766 5105 c-6 -32 -26 -50 -26 -24 0 5 -4 7 -10 4 -5 -3 -7 -19 -4
-34 4 -18 -2 -46 -14 -74 -11 -25 -23 -59 -27 -76 -4 -17 -11 -31 -17 -31 -6
0 -3 -9 6 -19 11 -12 15 -27 11 -40 -10 -32 -13 -141 -4 -135 5 3 9 14 9 24 0
35 41 225 50 234 6 6 10 31 10 56 0 25 5 51 10 56 10 10 25 94 17 94 -3 0 -8
-16 -11 -35z"/>
<path d="M5611 4974 c0 -11 3 -14 6 -6 3 7 2 16 -1 19 -3 4 -6 -2 -5 -13z"/>
<path d="M5950 4971 c0 -12 5 -21 10 -21 6 0 10 6 10 14 0 8 -4 18 -10 21 -5
3 -10 -3 -10 -14z"/>
<path d="M5590 4920 c0 -11 2 -20 4 -20 2 0 6 9 9 20 3 11 1 20 -4 20 -5 0 -9
-9 -9 -20z"/>
<path d="M5836 4845 c-3 -9 -5 -29 -5 -43 1 -20 3 -17 9 13 8 43 7 57 -4 30z"/>
<path d="M5571 4814 c0 -11 3 -14 6 -6 3 7 2 16 -1 19 -3 4 -6 -2 -5 -13z"/>
<path d="M5265 4750 c-16 -16 -27 -32 -24 -35 7 -6 59 44 59 56 0 12 -1 12
-35 -21z"/>
<path d="M5490 4673 c-54 -113 -56 -118 -40 -108 10 6 11 -1 5 -31 -4 -21 -5
-37 -2 -34 8 8 88 253 85 260 -2 3 -23 -36 -48 -87z"/>
<path d="M5626 4745 c-9 -23 -20 -131 -13 -125 7 7 28 132 23 137 -2 2 -6 -3
-10 -12z"/>
<path d="M5821 4723 c-1 -6 -4 -20 -7 -30 -5 -17 -5 -17 6 0 6 10 9 23 6 30
-3 9 -5 9 -5 0z"/>
<path d="M5275 4689 c-4 -6 -5 -12 -2 -15 2 -3 7 2 10 11 7 17 1 20 -8 4z"/>
<path d="M5652 4660 c0 -14 2 -19 5 -12 2 6 2 18 0 25 -3 6 -5 1 -5 -13z"/>
<path d="M5797 4640 c-3 -11 -1 -23 4 -26 5 -3 9 6 9 20 0 31 -6 34 -13 6z"/>
<path d="M5780 4576 c-5 -15 -10 -42 -9 -59 0 -18 2 -27 4 -22 1 6 8 29 15 53
15 47 6 70 -10 28z"/>
<path d="M5365 4498 c-27 -51 -56 -120 -66 -153 -22 -78 -42 -128 -53 -136 -5
-4 -6 -11 -2 -17 3 -5 2 -23 -4 -38 -5 -16 -11 -47 -14 -69 -3 -22 -8 -56 -11
-75 l-5 -35 15 30 c8 17 14 37 15 46 0 29 75 267 101 325 11 22 19 47 19 56 0
9 14 46 31 82 47 101 28 89 -26 -16z"/>
<path d="M5337 4513 c-4 -3 -7 -11 -7 -17 0 -6 5 -5 12 2 6 6 9 14 7 17 -3 3
-9 2 -12 -2z"/>
<path d="M5610 4460 c0 -25 4 -39 10 -35 6 3 10 19 10 35 0 16 -4 32 -10 35
-6 4 -10 -10 -10 -35z"/>
<path d="M5177 4433 c-4 -3 -7 -13 -7 -22 1 -13 3 -13 11 2 11 19 8 33 -4 20z"/>
<path d="M5279 4413 c-8 -16 -16 -30 -19 -33 -10 -10 -70 -135 -70 -146 0 -6
-8 -28 -19 -49 -10 -21 -16 -47 -13 -58 3 -14 1 -18 -6 -13 -8 4 -12 0 -12
-11 0 -10 -3 -36 -7 -57 -4 -28 -3 -37 5 -32 7 4 12 16 12 27 0 11 3 18 8 16
4 -3 8 14 9 37 1 22 11 59 22 81 19 38 20 39 21 12 0 -18 4 -26 11 -21 6 3 8
17 5 30 -4 14 -2 24 4 24 5 0 10 7 10 16 0 8 -4 12 -10 9 -17 -11 -11 14 13
53 13 20 30 55 37 77 7 22 17 46 23 53 6 7 6 12 0 12 -5 0 -16 -12 -24 -27z"/>
<path d="M5212 4391 c-33 -37 -42 -53 -42 -76 0 -12 13 2 36 38 40 63 42 78 6
38z"/>
<path d="M5366 4383 c-6 -14 -5 -15 5 -6 7 7 10 15 7 18 -3 3 -9 -2 -12 -12z"/>
<path d="M5542 4370 c0 -14 2 -19 5 -12 2 6 2 18 0 25 -3 6 -5 1 -5 -13z"/>
<path d="M5604 4346 c-3 -21 -4 -39 -1 -42 3 -4 9 10 13 30 3 21 4 39 1 42 -3
4 -9 -10 -13 -30z"/>
<path d="M5140 4289 c0 -6 -6 -17 -14 -25 -14 -13 -28 -69 -41 -164 l-7 -45
22 38 c11 21 17 43 14 49 -4 6 -3 8 4 4 12 -7 27 47 18 63 -4 5 -1 11 4 13 15
5 26 78 11 78 -6 0 -11 -5 -11 -11z"/>
<path d="M5756 4264 c-4 -20 -5 -38 -3 -40 3 -3 8 11 11 32 4 20 5 38 3 40 -3
3 -8 -11 -11 -32z"/>
<path d="M5715 4238 c-4 -10 -12 -15 -17 -12 -6 4 -5 -4 2 -16 11 -21 13 -21
22 -6 5 9 7 24 5 34 -4 16 -4 16 -12 0z"/>
<path d="M5322 4165 c0 -16 2 -22 5 -12 2 9 2 23 0 30 -3 6 -5 -1 -5 -18z"/>
<path d="M5198 4125 c-3 -14 -1 -28 3 -31 5 -3 9 9 9 25 0 38 -6 40 -12 6z"/>
<path d="M5381 4084 c0 -11 3 -14 6 -6 3 7 2 16 -1 19 -3 4 -6 -2 -5 -13z"/>
<path d="M5121 4082 c-1 -7 -8 -20 -16 -28 -8 -9 -15 -25 -15 -37 0 -17 5 -13
21 17 11 21 18 43 15 49 -3 8 -5 8 -5 -1z"/>
<path d="M5183 4076 c1 -11 9 -21 17 -23 10 -3 11 -2 4 4 -6 4 -14 15 -17 23
-5 11 -6 9 -4 -4z"/>
<path d="M5161 4000 c-8 -29 -9 -45 -1 -58 9 -15 10 -14 8 8 -1 14 4 36 11 49
8 14 9 27 4 32 -6 6 -14 -6 -22 -31z"/>
<path d="M5114 3952 c-1 -20 0 -29 3 -19 2 9 8 17 13 17 4 0 6 9 3 20 -8 32
-18 23 -19 -18z"/>
<path d="M5070 3928 c-8 -29 -13 -64 -11 -78 3 -21 1 -22 -13 -11 -22 19 -25
13 -37 -64 -12 -72 -4 -138 11 -100 8 18 9 17 9 -7 1 -16 -3 -28 -9 -28 -5 0
-10 -5 -10 -12 0 -8 4 -8 14 2 8 8 16 41 19 73 5 54 17 93 17 54 0 -9 5 -17
11 -17 6 0 9 7 5 15 -3 8 -1 27 4 42 11 33 19 183 10 183 -3 0 -12 -24 -20
-52z m7 -90 c-2 -13 -4 -3 -4 22 0 25 2 35 4 23 2 -13 2 -33 0 -45z m-40 -80
c-3 -8 -6 -5 -6 6 -1 11 2 17 5 13 3 -3 4 -12 1 -19z"/>
<path d="M5157 3905 c-4 -8 -2 -17 3 -20 6 -4 10 3 10 14 0 25 -6 27 -13 6z"/>
<path d="M5132 3885 c0 -16 2 -22 5 -12 2 9 2 23 0 30 -3 6 -5 -1 -5 -18z"/>
<path d="M5141 3838 c0 -10 -5 -18 -11 -18 -5 0 -7 -15 -5 -32 4 -26 3 -29 -4
-13 -5 11 -10 15 -10 8 -1 -6 -4 -20 -7 -30 -5 -15 -4 -15 5 -3 9 12 11 11 12
-10 1 -15 7 -3 15 30 8 30 12 62 10 70 -3 11 -4 10 -5 -2z"/>
<path d="M4980 3820 c-9 -6 -10 -10 -3 -10 6 0 15 5 18 10 8 12 4 12 -15 0z"/>
<path d="M4980 3640 c0 -23 -29 -271 -36 -310 -4 -27 -3 -32 6 -24 7 7 13 25
15 40 2 16 10 67 20 114 19 98 21 152 6 177 -8 14 -10 15 -11 3z"/>
<path d="M5546 3628 c-20 -96 -31 -196 -20 -186 10 10 37 208 28 208 -2 0 -6
-10 -8 -22z"/>
<path d="M5500 3403 c0 -13 5 -23 10 -23 13 0 13 11 0 30 -8 12 -10 11 -10 -7z"/>
<path d="M5301 3294 c0 -11 3 -14 6 -6 3 7 2 16 -1 19 -3 4 -6 -2 -5 -13z"/>
<path d="M4925 3229 c-4 -6 -5 -12 -2 -15 2 -3 7 2 10 11 7 17 1 20 -8 4z"/>
<path d="M5450 3163 c-7 -21 -17 -44 -23 -50 -6 -9 -6 -13 1 -13 10 0 45 90
38 97 -2 3 -10 -13 -16 -34z"/>
<path d="M4932 3045 c-6 -14 -7 -25 -2 -25 9 0 25 39 18 46 -3 2 -10 -7 -16
-21z"/>
<path d="M5000 3011 c0 -6 5 -13 10 -16 6 -3 10 1 10 9 0 9 -4 16 -10 16 -5 0
-10 -4 -10 -9z"/>
<path d="M4977 2973 c-12 -12 -7 -30 8 -30 8 0 15 9 15 19 0 18 -11 24 -23 11z"/>
<path d="M5201 2914 c0 -11 3 -14 6 -6 3 7 2 16 -1 19 -3 4 -6 -2 -5 -13z"/>
<path d="M3290 3329 c0 -5 5 -7 10 -4 6 3 10 8 10 11 0 2 -4 4 -10 4 -5 0 -10
-5 -10 -11z"/>
<path d="M3357 3210 c-16 -17 -24 -30 -19 -30 4 0 21 14 37 30 16 17 25 30 19
30 -5 -1 -22 -14 -37 -30z"/>
<path d="M3150 3139 c0 -5 5 -7 10 -4 6 3 10 8 10 11 0 2 -4 4 -10 4 -5 0 -10
-5 -10 -11z"/>
<path d="M3340 3079 c-19 -17 -26 -26 -15 -21 18 9 64 52 54 52 -2 0 -20 -14
-39 -31z"/>
<path d="M3243 3009 c-18 -12 -33 -25 -33 -30 0 -6 16 2 35 17 30 23 41 34 33
34 -2 0 -18 -10 -35 -21z"/>
<path d="M3178 2967 c-7 -8 -23 -19 -36 -26 -21 -11 -30 -31 -14 -31 14 0 77
58 71 65 -4 3 -13 0 -21 -8z"/>
<path d="M3040 2877 c0 -13 -6 -17 -21 -15 -17 2 -28 -9 -55 -57 -18 -33 -33
-64 -34 -69 0 -15 30 15 43 43 6 14 21 30 32 35 31 13 55 50 44 67 -7 11 -9
11 -9 -4z"/>
<path d="M2890 3050 c0 -5 5 -10 10 -10 6 0 10 5 10 10 0 6 -4 10 -10 10 -5 0
-10 -4 -10 -10z"/>
<path d="M3155 2620 c-3 -5 -1 -10 4 -10 6 0 11 5 11 10 0 6 -2 10 -4 10 -3 0
-8 -4 -11 -10z"/>
<path d="M1901 1555 c0 -5 3 -16 8 -23 7 -11 9 -10 14 3 4 9 3 14 -2 10 -5 -3
-12 1 -14 7 -3 7 -6 9 -6 3z"/>
<path d="M5210 7496 c0 -2 6 -9 14 -15 10 -9 15 -8 19 2 3 8 -3 13 -14 14 -10
1 -19 0 -19 -1z"/>
<path d="M5356 7480 c7 -29 45 -90 57 -90 15 0 6 21 -18 42 -17 15 -23 28 -19
41 4 12 2 17 -4 13 -6 -3 -13 0 -16 6 -3 7 -3 2 0 -12z"/>
<path d="M5516 7485 c4 -8 10 -13 14 -10 5 3 10 -1 13 -7 2 -7 8 -10 12 -5 5
4 0 14 -11 22 -25 19 -35 19 -28 0z"/>
<path d="M5560 7431 c0 -6 4 -13 10 -16 6 -3 7 1 4 9 -7 18 -14 21 -14 7z"/>
<path d="M5630 7384 c0 -6 7 -19 16 -30 14 -18 14 -18 3 6 -14 31 -19 36 -19
24z"/>
<path d="M5361 7325 c0 -14 28 -50 34 -43 3 3 -3 16 -14 29 -11 13 -20 20 -20
14z"/>
<path d="M5630 7315 c0 -8 5 -15 10 -15 6 0 10 7 10 15 0 8 -4 15 -10 15 -5 0
-10 -7 -10 -15z"/>
<path d="M5101 7284 c0 -11 3 -14 6 -6 3 7 2 16 -1 19 -3 4 -6 -2 -5 -13z"/>
<path d="M5401 7265 c0 -5 3 -16 8 -23 7 -11 9 -10 14 3 4 9 3 14 -2 10 -5 -3
-12 1 -14 7 -3 7 -6 9 -6 3z"/>
<path d="M4525 7240 c3 -5 8 -10 11 -10 2 0 4 5 4 10 0 6 -5 10 -11 10 -5 0
-7 -4 -4 -10z"/>
<path d="M5175 7220 c3 -5 8 -10 11 -10 2 0 4 5 4 10 0 6 -5 10 -11 10 -5 0
-7 -4 -4 -10z"/>
<path d="M5710 7221 c0 -6 4 -13 10 -16 6 -3 7 1 4 9 -7 18 -14 21 -14 7z"/>
<path d="M5476 7182 c-3 -5 1 -15 9 -22 21 -17 27 -9 10 13 -7 10 -16 14 -19
9z"/>
<path d="M5563 7126 c7 -14 15 -26 20 -26 4 0 7 -7 7 -15 0 -8 5 -15 10 -15
13 0 -13 51 -34 69 -13 11 -13 9 -3 -13z"/>
<path d="M5560 7068 c1 -20 29 -53 37 -43 5 4 2 10 -4 12 -7 3 -13 11 -13 18
0 8 -4 17 -10 20 -5 3 -10 0 -10 -7z"/>
<path d="M5660 7035 c0 -8 4 -15 10 -15 5 0 7 7 4 15 -4 8 -8 15 -10 15 -2 0
-4 -7 -4 -15z"/>
<path d="M5280 7001 c0 -5 5 -13 10 -16 6 -3 10 -2 10 4 0 5 -4 13 -10 16 -5
3 -10 2 -10 -4z"/>
<path d="M5530 6959 c0 -9 7 -22 15 -29 8 -7 15 -21 15 -31 0 -11 5 -19 10
-19 15 0 12 11 -15 55 -13 22 -25 33 -25 24z"/>
<path d="M5830 6955 c0 -8 4 -15 10 -15 5 0 7 7 4 15 -4 8 -8 15 -10 15 -2 0
-4 -7 -4 -15z"/>
<path d="M5316 6937 c3 -10 9 -15 12 -12 3 3 0 11 -7 18 -10 9 -11 8 -5 -6z"/>
<path d="M5841 6894 c0 -11 3 -14 6 -6 3 7 2 16 -1 19 -3 4 -6 -2 -5 -13z"/>
<path d="M5351 6884 c0 -11 3 -14 6 -6 3 7 2 16 -1 19 -3 4 -6 -2 -5 -13z"/>
<path d="M5383 6865 c-15 -17 -17 -59 -3 -50 6 3 10 15 10 26 0 10 5 19 10 19
6 0 10 5 10 10 0 14 -13 12 -27 -5z"/>
<path d="M5380 6791 c0 -6 5 -13 10 -16 6 -3 10 1 10 9 0 9 -4 16 -10 16 -5 0
-10 -4 -10 -9z"/>
<path d="M5756 6766 c8 -11 14 -34 14 -51 0 -16 8 -39 17 -50 l16 -20 -7 20
c-6 16 -26 110 -26 120 0 1 -6 2 -14 2 -13 0 -13 -3 0 -21z"/>
<path d="M5864 6765 c-8 -20 4 -65 16 -65 6 0 10 5 10 10 0 6 -4 10 -10 10 -5
0 -7 7 -3 16 5 13 8 13 15 2 7 -9 8 -8 4 5 -3 10 -6 23 -6 28 0 15 -20 10 -26
-6z"/>
<path d="M6180 6766 c0 -25 49 -142 50 -118 0 12 -7 39 -15 59 -8 19 -15 44
-15 54 0 11 -4 19 -10 19 -5 0 -10 -6 -10 -14z"/>
<path d="M4970 6690 c0 -5 7 -10 15 -10 8 0 15 5 15 10 0 6 -7 10 -15 10 -8 0
-15 -4 -15 -10z"/>
<path d="M4944 6601 c3 -5 15 -7 26 -4 28 7 25 13 -6 13 -14 0 -23 -4 -20 -9z"/>
<path d="M5801 6584 c0 -11 3 -14 6 -6 3 7 2 16 -1 19 -3 4 -6 -2 -5 -13z"/>
<path d="M6280 6086 c0 -8 4 -17 9 -20 5 -4 7 3 4 14 -6 23 -13 26 -13 6z"/>
<path d="M3265 6079 c-4 -6 -5 -12 -2 -15 2 -3 7 2 10 11 7 17 1 20 -8 4z"/>
<path d="M6162 5550 c0 -14 2 -19 5 -12 2 6 2 18 0 25 -3 6 -5 1 -5 -13z"/>
<path d="M6215 5502 c-5 -37 -9 -116 -10 -177 -1 -60 -5 -118 -10 -127 -5 -13
-3 -18 9 -18 11 0 16 9 16 29 0 17 5 33 10 36 6 4 8 21 4 40 -3 19 -1 35 5 39
17 11 13 29 -5 22 -13 -5 -14 2 -8 52 4 31 11 67 15 80 6 14 5 21 0 17 -6 -3
-8 9 -4 29 3 18 1 36 -5 40 -6 3 -13 -21 -17 -62z"/>
<path d="M3241 5514 c0 -11 3 -14 6 -6 3 7 2 16 -1 19 -3 4 -6 -2 -5 -13z"/>
<path d="M6163 5475 c0 -27 2 -38 4 -22 2 15 2 37 0 50 -2 12 -4 0 -4 -28z"/>
<path d="M3283 5450 c0 -30 2 -43 4 -27 2 15 2 39 0 55 -2 15 -4 2 -4 -28z"/>
<path d="M3405 5339 c-4 -6 -5 -12 -2 -15 2 -3 7 2 10 11 7 17 1 20 -8 4z"/>
<path d="M3412 5290 c0 -14 2 -19 5 -12 2 6 2 18 0 25 -3 6 -5 1 -5 -13z"/>
<path d="M6315 5230 c-3 -5 -1 -10 4 -10 6 0 11 5 11 10 0 6 -2 10 -4 10 -3 0
-8 -4 -11 -10z"/>
<path d="M6291 5184 c0 -11 3 -14 6 -6 3 7 2 16 -1 19 -3 4 -6 -2 -5 -13z"/>
<path d="M6197 5164 c-4 -4 -7 -14 -7 -23 0 -11 3 -12 11 -4 6 6 10 16 7 23
-2 6 -7 8 -11 4z"/>
<path d="M6086 5061 c-4 -7 -5 -15 -2 -18 9 -9 19 4 14 18 -4 11 -6 11 -12 0z"/>
<path d="M6067 4611 c-4 -34 -2 -70 3 -83 10 -22 10 -21 5 4 -3 15 -1 30 5 33
12 7 13 75 1 93 -5 8 -10 -9 -14 -47z"/>
<path d="M3681 4494 c0 -11 3 -14 6 -6 3 7 2 16 -1 19 -3 4 -6 -2 -5 -13z"/>
<path d="M3490 4284 c0 -8 5 -12 10 -9 6 3 10 10 10 16 0 5 -4 9 -10 9 -5 0
-10 -7 -10 -16z"/>
<path d="M3510 4210 c0 -5 5 -10 10 -10 6 0 10 5 10 10 0 6 -4 10 -10 10 -5 0
-10 -4 -10 -10z"/>
<path d="M3562 4160 c0 -19 2 -27 5 -17 2 9 2 25 0 35 -3 9 -5 1 -5 -18z"/>
<path d="M3480 4168 c0 -9 -3 -23 -6 -32 -3 -9 -1 -16 4 -16 16 0 26 40 13 53
-8 8 -11 7 -11 -5z"/>
<path d="M3065 4093 c-16 -9 -47 -31 -67 -49 -21 -18 -50 -36 -65 -40 -16 -4
-39 -16 -53 -28 -50 -43 -109 -86 -134 -97 -14 -7 -28 -19 -31 -28 -2 -9 -25
-28 -50 -43 -25 -15 -50 -38 -56 -50 -6 -13 -24 -30 -42 -38 -20 -10 -39 -31
-54 -61 -12 -25 -48 -70 -80 -100 -32 -30 -103 -110 -158 -178 -101 -126 -135
-164 -269 -305 -68 -71 -156 -209 -143 -222 3 -3 19 14 35 38 33 47 127 147
153 163 121 73 255 122 384 140 28 3 73 13 100 20 28 8 69 16 91 18 35 3 51
14 102 66 33 33 55 61 49 61 -5 0 8 17 30 38 22 20 65 74 97 118 31 45 63 85
71 88 8 3 15 15 15 26 0 11 4 20 9 20 15 0 23 38 13 56 -7 12 -5 23 7 36 15
17 16 17 22 1 5 -14 12 -6 29 32 12 28 28 64 36 82 17 39 19 82 3 66 -6 -6
-17 -9 -24 -6 -9 3 -19 -12 -29 -44 l-16 -48 4 55 4 55 -19 -50 c-18 -47 -20
-27 -3 34 5 17 4 22 -4 17 -17 -10 -15 13 3 30 8 9 15 25 16 37 0 21 1 21 9 2
8 -19 9 -19 9 2 1 29 11 53 23 53 13 0 38 26 38 39 0 15 -20 13 -55 -6z m-81
-118 c-8 -20 6 -19 23 3 8 9 5 0 -6 -21 -12 -21 -21 -45 -21 -53 0 -8 -4 -14
-10 -14 -6 0 -6 9 0 26 13 34 13 53 -1 34 -9 -12 -10 -12 -5 3 3 10 6 23 6 28
0 5 4 9 10 9 5 0 7 -7 4 -15z m126 -79 c0 -11 -19 -15 -25 -6 -3 5 1 10 9 10
9 0 16 -2 16 -4z m-122 -187 c-3 -8 -7 -3 -11 10 -4 17 -3 21 5 13 5 -5 8 -16
6 -23z"/>
<path d="M3530 4088 c-1 -13 -7 -40 -14 -61 -14 -37 -11 -77 4 -77 5 0 8 12 8
28 0 15 5 40 11 55 14 35 14 77 1 77 -5 0 -10 -10 -10 -22z"/>
<path d="M3470 4070 c0 -5 5 -10 10 -10 6 0 10 5 10 10 0 6 -4 10 -10 10 -5 0
-10 -4 -10 -10z"/>
<path d="M3184 4034 c-5 -19 -9 -22 -15 -12 -6 9 -9 6 -9 -12 l1 -25 24 28
c26 29 32 47 15 47 -5 0 -13 -12 -16 -26z"/>
<path d="M3136 3985 c-3 -8 -10 -15 -16 -15 -6 0 -8 6 -5 13 4 6 -3 1 -14 -12
-26 -29 -28 -50 -3 -28 14 13 21 14 30 5 9 -9 12 -7 12 11 0 12 4 19 10 16 6
-3 7 1 4 9 -8 20 -10 20 -18 1z"/>
<path d="M3455 3976 c-11 -11 -26 -32 -33 -46 -7 -14 -26 -34 -42 -45 -17 -11
-30 -28 -30 -38 0 -10 -10 -21 -22 -26 l-21 -8 22 -15 22 -15 -38 -31 c-21
-17 -36 -33 -33 -36 3 -3 26 14 50 36 25 23 49 41 53 40 4 -1 10 5 14 14 5 13
8 13 15 2 7 -10 11 -10 15 0 2 6 10 12 17 12 7 0 18 16 26 35 7 19 16 33 18
30 7 -7 31 28 31 45 0 9 -6 5 -15 -10 -15 -25 -15 -25 -9 11 5 36 -1 70 -14
68 -3 -1 -15 -11 -26 -23z m28 -11 c-3 -9 -8 -14 -10 -11 -3 3 -2 9 2 15 9 16
15 13 8 -4z"/>
<path d="M3151 3835 c-1 -15 -3 -17 -10 -7 -6 11 -10 10 -15 -4 -3 -9 -4 -19
-1 -22 9 -10 38 25 32 40 -3 8 -6 5 -6 -7z"/>
<path d="M3481 3834 c0 -11 3 -14 6 -6 3 7 2 16 -1 19 -3 4 -6 -2 -5 -13z"/>
<path d="M3295 3790 c-3 -5 1 -10 9 -10 9 0 16 5 16 10 0 6 -4 10 -9 10 -6 0
-13 -4 -16 -10z"/>
<path d="M3290 3470 c0 -5 -4 -10 -10 -10 -14 0 -80 -47 -74 -53 9 -8 35 3 72
30 31 24 42 43 22 43 -5 0 -10 -4 -10 -10z"/>
<path d="M3155 3380 c-3 -6 1 -7 9 -4 18 7 21 14 7 14 -6 0 -13 -4 -16 -10z"/>
<path d="M2735 3290 c3 -5 8 -10 11 -10 2 0 4 5 4 10 0 6 -5 10 -11 10 -5 0
-7 -4 -4 -10z"/>
<path d="M2620 3194 c0 -6 -10 -10 -22 -9 -13 1 -27 0 -33 -3 -5 -3 -25 -7
-45 -9 -46 -4 -156 -31 -199 -49 -23 -10 -38 -11 -46 -4 -15 12 -47 2 -39 -12
4 -6 -1 -8 -14 -4 -38 12 -221 -101 -222 -137 0 -5 14 5 31 22 17 17 37 31 44
31 8 0 30 14 49 30 22 20 37 27 41 20 5 -8 15 -4 30 10 13 12 26 17 29 12 8
-13 -27 -43 -53 -45 -11 -1 -42 -20 -68 -44 -33 -31 -49 -39 -55 -30 -6 9 -8
8 -9 -3 -1 -8 -1 -18 0 -22 0 -5 -6 -8 -14 -8 -8 0 -15 -6 -15 -12 -1 -7 -12
-26 -26 -43 -17 -20 -22 -24 -17 -10 4 11 14 25 22 32 9 6 13 14 10 17 -5 5
-54 -38 -74 -66 -5 -8 -18 -23 -28 -35 -17 -20 -67 -176 -81 -253 l-6 -35 28
42 c15 24 32 43 39 43 6 0 28 21 49 48 21 26 64 69 96 96 43 36 55 52 46 58
-10 7 -9 9 2 5 8 -2 43 22 79 55 35 32 68 58 73 58 6 0 23 10 40 21 16 12 59
37 96 56 37 20 74 41 82 47 8 7 49 29 90 50 101 51 111 59 99 76 -5 8 -9 10
-9 4z m-120 -84 c-8 -5 -17 -7 -19 -4 -3 3 1 9 9 14 8 5 17 7 19 4 3 -3 -1 -9
-9 -14z m-180 -10 c0 -5 -10 -10 -22 -9 -22 0 -22 1 -3 9 11 5 21 9 23 9 1 1
2 -3 2 -9z m-437 -455 c-3 -9 -8 -14 -10 -11 -3 3 -2 9 2 15 9 16 15 13 8 -4z"/>
<path d="M2341 2503 c-17 -20 -29 -39 -26 -41 5 -6 27 16 49 51 26 39 13 33
-23 -10z"/>
<path d="M4565 2460 c3 -5 8 -10 11 -10 2 0 4 5 4 10 0 6 -5 10 -11 10 -5 0
-7 -4 -4 -10z"/>
<path d="M2278 2440 c-7 -24 -3 -38 8 -28 3 4 4 17 2 30 l-3 23 -7 -25z"/>
<path d="M4420 2399 c0 -5 5 -7 10 -4 6 3 10 8 10 11 0 2 -4 4 -10 4 -5 0 -10
-5 -10 -11z"/>
<path d="M4501 2384 c-13 -14 -22 -27 -19 -29 2 -3 15 6 28 20 13 14 21 27 19
29 -2 3 -15 -6 -28 -20z"/>
<path d="M2084 2348 l-19 -23 23 19 c21 18 27 26 19 26 -2 0 -12 -10 -23 -22z"/>
<path d="M4352 2345 c-17 -38 -14 -43 8 -15 21 27 25 40 12 40 -5 0 -14 -11
-20 -25z"/>
<path d="M4490 2319 c0 -5 5 -7 10 -4 6 3 10 8 10 11 0 2 -4 4 -10 4 -5 0 -10
-5 -10 -11z"/>
<path d="M4801 2264 c0 -11 3 -14 6 -6 3 7 2 16 -1 19 -3 4 -6 -2 -5 -13z"/>
<path d="M4636 2010 c-20 -30 -23 -40 -11 -40 8 0 23 18 34 40 10 22 16 40 11
40 -4 0 -19 -18 -34 -40z"/>
<path d="M4075 1993 l-17 -28 23 22 c12 12 20 25 17 28 -3 3 -13 -7 -23 -22z"/>
<path d="M4435 1996 c-6 -7 -25 -32 -42 -56 -39 -51 -44 -76 -7 -34 62 71 85
104 72 104 -7 0 -18 -6 -23 -14z"/>
<path d="M4487 1983 c-4 -3 -7 -13 -7 -22 1 -13 3 -13 11 2 11 19 8 33 -4 20z"/>
<path d="M1395 1970 c3 -5 2 -10 -4 -10 -5 0 -13 -10 -17 -22 -4 -13 -9 -25
-13 -28 -10 -9 -51 -100 -51 -115 0 -13 38 -41 45 -33 12 14 43 92 39 99 -3 5
3 20 12 34 10 16 12 25 5 25 -9 0 -9 5 -1 20 11 21 6 40 -11 40 -6 0 -7 -4 -4
-10z"/>
<path d="M4573 1925 c-24 -36 -30 -70 -14 -79 5 -3 12 11 16 32 3 20 13 47 21
60 8 12 11 22 7 22 -5 0 -18 -16 -30 -35z"/>
<path d="M4430 1911 c-13 -22 -27 -38 -31 -35 -4 2 -11 -1 -15 -7 -4 -8 -3 -9
4 -5 19 12 14 -6 -9 -30 -12 -12 -19 -29 -16 -36 3 -8 9 -3 17 15 7 15 17 27
21 27 7 0 69 94 69 105 0 16 -19 0 -40 -34z"/>
<path d="M1477 1915 c-4 -8 -3 -16 1 -19 4 -3 9 4 9 15 2 23 -3 25 -10 4z"/>
<path d="M4761 1914 c0 -11 3 -14 6 -6 3 7 2 16 -1 19 -3 4 -6 -2 -5 -13z"/>
<path d="M4016 1895 c-9 -26 -7 -32 5 -12 6 10 9 21 6 23 -2 3 -7 -2 -11 -11z"/>
<path d="M3979 1808 c-7 -18 -14 -36 -17 -40 -2 -5 0 -8 5 -8 10 0 36 71 29
78 -2 1 -10 -12 -17 -30z"/>
<path d="M4755 1800 c3 -5 2 -22 -2 -37 l-7 -28 -8 25 c-6 19 -6 16 -3 -12 4
-24 1 -38 -7 -40 -9 -3 -13 -28 -14 -76 0 -77 11 -96 21 -34 4 20 11 47 17 59
6 11 8 26 4 31 -3 6 -2 13 3 16 5 4 12 -2 15 -11 3 -10 3 9 1 42 -2 33 -4 63
-5 68 0 4 -5 7 -11 7 -5 0 -8 -4 -4 -10z"/>
<path d="M5051 1795 c0 -12 -6 -26 -12 -32 -6 -6 -12 -34 -14 -62 -1 -29 -6
-55 -10 -59 -5 -4 -5 2 -1 13 5 13 4 17 -3 10 -5 -5 -12 -28 -14 -50 -5 -39
-25 -100 -26 -80 -1 5 -33 -55 -72 -135 -38 -80 -75 -154 -81 -165 -24 -42
-58 -115 -58 -125 0 -5 -4 -10 -9 -10 -15 0 20 98 91 256 20 45 23 74 8 74 -5
0 -10 8 -10 18 -1 15 -2 15 -11 -2 -9 -14 -8 -20 2 -27 8 -5 9 -9 3 -9 -14 0
-35 -68 -23 -72 15 -5 -37 -99 -82 -148 -23 -25 -37 -38 -31 -30 5 8 12 28 16
43 4 17 11 25 18 21 6 -4 8 -3 4 4 -3 6 3 26 14 44 11 18 20 41 20 50 0 9 5
18 12 20 6 2 9 10 7 17 -5 13 -55 -60 -78 -114 -8 -17 -16 -25 -18 -17 -4 9
-9 10 -18 2 -10 -8 -11 -2 -5 30 4 23 11 44 15 48 4 4 5 -5 1 -20 -3 -15 -3
-29 2 -32 7 -4 9 3 13 47 3 34 -24 183 -36 200 -13 19 -15 8 -14 -96 0 -70 -4
-124 -11 -134 -9 -14 -10 -6 -7 37 3 30 1 75 -3 100 -6 33 -8 12 -9 -80 -1
-127 15 -218 38 -212 6 1 11 -5 11 -13 0 -13 -4 -14 -21 -4 -20 10 -21 9 -14
-23 9 -42 25 -96 38 -128 l11 -25 4 25 c2 14 8 29 13 35 5 5 9 14 9 21 0 21
33 89 37 77 2 -6 -3 -25 -11 -41 -8 -16 -12 -32 -9 -35 3 -4 0 -13 -6 -21 -10
-12 -8 -13 11 -8 13 3 28 12 33 19 6 8 19 13 30 12 48 -5 74 1 69 15 -4 10 4
16 25 21 20 4 28 11 24 21 -3 8 0 14 6 14 6 0 11 -5 11 -12 0 -9 3 -9 11 -1
10 10 17 33 18 66 1 9 7 17 15 17 8 0 18 19 25 46 7 26 15 44 18 40 12 -11 45
79 48 129 2 28 6 79 10 115 l6 65 -20 -24 c-12 -13 -24 -35 -26 -50 -3 -14
-10 -40 -15 -57 -6 -17 -10 -41 -9 -55 l1 -24 9 25 c7 21 8 20 4 -9 -3 -18 -5
-45 -5 -58 0 -22 -2 -24 -15 -13 -13 11 -15 8 -15 -13 0 -14 -4 -29 -10 -32
-13 -8 -13 65 0 100 5 14 12 41 14 58 2 18 7 41 11 52 5 13 -5 8 -29 -17 -22
-23 -36 -32 -36 -23 0 8 9 23 20 32 24 20 26 38 5 29 -24 -9 -17 10 10 28 14
9 25 24 26 34 0 14 2 14 6 2 6 -14 33 94 34 135 1 11 5 38 11 61 5 23 8 52 5
65 -4 20 -4 21 -6 4z"/>
<path d="M4338 1783 c0 -10 -1 -24 -1 -30 1 -7 -3 -10 -8 -7 -12 7 -67 -113
-73 -161 -3 -22 -7 -67 -10 -100 l-6 -60 13 43 c7 24 15 40 20 36 4 -4 7 0 7
10 0 10 11 36 24 59 13 23 29 67 36 97 7 30 18 66 25 80 12 23 12 27 -6 38
-16 10 -19 9 -21 -5z m22 -23 c0 -5 -2 -10 -4 -10 -3 0 -8 5 -11 10 -3 6 -1
10 4 10 6 0 11 -4 11 -10z"/>
<path d="M4510 1775 c0 -14 -4 -25 -8 -25 -4 0 -6 -16 -4 -35 7 -55 18 -41 19
25 1 33 0 60 -2 60 -3 0 -5 -11 -5 -25z"/>
<path d="M4464 1674 c0 -19 -6 -39 -13 -43 -8 -5 -11 -17 -7 -29 4 -12 0 -34
-9 -51 -10 -20 -13 -41 -9 -58 7 -25 8 -25 15 -8 6 15 8 12 8 -15 1 -26 -2
-31 -9 -20 -8 12 -10 12 -9 -5 0 -11 4 -29 9 -40 6 -16 9 -17 13 -5 13 35 14
75 4 98 -8 17 -8 25 0 30 6 4 13 16 15 27 2 11 9 19 15 18 6 -1 13 17 15 42 2
28 -1 44 -7 41 -5 -2 -9 -18 -9 -37 2 -31 1 -32 -9 -11 -7 16 -7 29 1 48 16
33 15 54 -1 54 -8 0 -13 -13 -13 -36z"/>
<path d="M4538 1660 c-9 -34 -8 -159 1 -165 4 -2 8 1 8 8 2 47 15 113 23 115
6 2 10 8 10 14 0 6 -6 8 -14 5 -10 -4 -16 2 -18 21 l-3 27 -7 -25z"/>
<path d="M4860 1659 c0 -5 5 -7 10 -4 6 3 10 8 10 11 0 2 -4 4 -10 4 -5 0 -10
-5 -10 -11z"/>
<path d="M3947 1646 c-4 -10 -5 -21 -2 -24 9 -9 17 6 13 25 -3 17 -4 17 -11
-1z"/>
<path d="M4762 1630 c0 -17 -3 -39 -7 -49 -3 -11 0 -23 6 -27 8 -5 10 -2 6 8
-3 9 1 28 9 44 15 28 13 54 -4 54 -5 0 -9 -14 -10 -30z"/>
<path d="M3860 1624 c0 -8 -4 -12 -10 -9 -6 3 -7 -1 -4 -10 6 -14 8 -14 20 2
16 22 18 33 4 33 -5 0 -10 -7 -10 -16z"/>
<path d="M4654 1624 c3 -9 9 -34 12 -57 11 -69 23 -78 24 -17 0 39 -3 51 -10
40 -7 -11 -10 -7 -10 18 0 17 -5 32 -11 32 -6 0 -8 -7 -5 -16z"/>
<path d="M4061 1604 c0 -11 3 -14 6 -6 3 7 2 16 -1 19 -3 4 -6 -2 -5 -13z"/>
<path d="M3917 1590 c-3 -11 -3 -20 -1 -20 2 0 8 9 14 20 6 11 7 20 2 20 -6 0
-12 -9 -15 -20z"/>
<path d="M4588 1584 c-5 -4 -8 -23 -8 -43 1 -30 2 -33 11 -18 11 19 8 73 -3
61z"/>
<path d="M4908 1560 c-16 -20 -28 -49 -32 -82 -8 -55 -1 -78 9 -32 3 16 17 51
31 77 31 59 27 79 -8 37z"/>
<path d="M4641 1544 c0 -11 3 -14 6 -6 3 7 2 16 -1 19 -3 4 -6 -2 -5 -13z"/>
<path d="M4067 1527 c-4 -10 -7 -28 -6 -40 0 -21 1 -21 10 2 5 14 8 32 7 40
-3 13 -5 13 -11 -2z"/>
<path d="M4481 1514 c0 -11 3 -14 6 -6 3 7 2 16 -1 19 -3 4 -6 -2 -5 -13z"/>
<path d="M4855 1499 c-4 -6 -5 -12 -2 -15 2 -3 7 2 10 11 7 17 1 20 -8 4z"/>
<path d="M4712 1462 c0 -23 4 -42 9 -42 12 0 11 51 -1 70 -6 10 -9 2 -8 -28z"/>
<path d="M3867 1473 c-2 -10 -8 -26 -12 -35 -12 -29 9 -20 23 9 14 32 15 43 3
43 -5 0 -11 -8 -14 -17z"/>
<path d="M3756 1472 c-10 -17 -26 -62 -21 -62 7 0 37 62 32 67 -3 2 -8 0 -11
-5z"/>
<path d="M4520 1460 c0 -5 5 -10 10 -10 6 0 10 5 10 10 0 6 -4 10 -10 10 -5 0
-10 -4 -10 -10z"/>
<path d="M4160 1365 c0 -16 -2 -50 -4 -75 -3 -29 1 -53 10 -65 13 -17 14 -10
12 63 -2 79 -17 142 -18 77z"/>
<path d="M4361 1300 c-1 -82 6 -120 21 -120 7 0 8 16 3 43 -4 23 -11 67 -15
97 l-7 55 -2 -75z"/>
<path d="M4441 1348 c0 -9 -4 -25 -7 -35 -5 -14 -4 -15 5 -7 7 7 11 22 8 35
-2 13 -5 16 -6 7z"/>
<path d="M4285 1338 c-2 -7 -9 -30 -15 -50 -6 -21 -16 -40 -21 -43 -5 -3 -3
-15 4 -27 9 -16 9 -22 0 -25 -15 -6 -17 -43 -3 -43 6 0 10 7 10 15 0 9 7 27
16 41 15 22 15 24 0 18 -20 -8 -21 15 -1 30 8 6 17 30 19 54 3 41 -1 55 -9 30z"/>
<path d="M4071 1294 c0 -11 3 -14 6 -6 3 7 2 16 -1 19 -3 4 -6 -2 -5 -13z"/>
<path d="M4050 1225 c-1 -90 -24 -264 -38 -292 -26 -47 -5 -45 26 3 26 40 38
120 36 245 -1 103 -23 143 -24 44z"/>
<path d="M4442 1260 c0 -14 2 -19 5 -12 2 6 2 18 0 25 -3 6 -5 1 -5 -13z"/>
<path d="M4141 1164 c0 -11 3 -14 6 -6 3 7 2 16 -1 19 -3 4 -6 -2 -5 -13z"/>
<path d="M4090 1101 c0 -33 -3 -68 -7 -78 -6 -16 -5 -16 10 -4 9 7 17 20 17
27 0 8 5 14 11 14 10 0 7 31 -7 83 -11 37 -24 14 -24 -42z"/>
<path d="M4161 1144 c0 -11 3 -14 6 -6 3 7 2 16 -1 19 -3 4 -6 -2 -5 -13z"/>
<path d="M4971 1124 c0 -11 3 -14 6 -6 3 7 2 16 -1 19 -3 4 -6 -2 -5 -13z"/>
<path d="M4230 1120 c0 -5 5 -10 10 -10 6 0 10 5 10 10 0 6 -4 10 -10 10 -5 0
-10 -4 -10 -10z"/>
<path d="M4190 1107 c0 -19 16 -31 24 -18 3 5 -1 14 -9 21 -12 10 -15 10 -15
-3z"/>
<path d="M4442 1100 c0 -14 2 -19 5 -12 2 6 2 18 0 25 -3 6 -5 1 -5 -13z"/>
<path d="M4125 1021 c-3 -5 -1 -12 5 -16 5 -3 10 1 10 9 0 18 -6 21 -15 7z"/>
<path d="M4160 1011 c0 -6 5 -13 10 -16 6 -3 10 1 10 9 0 9 -4 16 -10 16 -5 0
-10 -4 -10 -9z"/>
<path d="M4170 950 c0 -5 5 -10 10 -10 6 0 10 5 10 10 0 6 -4 10 -10 10 -5 0
-10 -4 -10 -10z"/>
<path d="M4640 950 c0 -21 17 -46 25 -38 4 4 0 17 -9 30 -10 14 -16 17 -16 8z"/>
<path d="M4122 920 c0 -14 2 -19 5 -12 2 6 2 18 0 25 -3 6 -5 1 -5 -13z"/>
<path d="M4456 183 c5 -29 24 -56 78 -110 l70 -73 126 0 125 1 -30 25 c-16 15
-56 51 -88 82 -53 50 -64 56 -118 64 -33 4 -77 17 -99 28 -60 31 -72 27 -64
-17z"/>
</g>
</svg>
