<?xml version="1.0" standalone="no"?>
<!DOCTYPE svg PUBLIC "-//W3C//DTD SVG 20010904//EN"
 "http://www.w3.org/TR/2001/REC-SVG-20010904/DTD/svg10.dtd">
<svg version="1.0" xmlns="http://www.w3.org/2000/svg"
 width="960.000000pt" height="959.000000pt" viewBox="0 0 960.000000 959.000000"
 preserveAspectRatio="xMidYMid meet">

<g transform="translate(0.000000,959.000000) scale(0.100000,-0.100000)"
fill="#000000" stroke="none">
<path d="M0 9184 l0 -405 298 5 c444 9 769 15 1147 22 711 13 1332 33 1384 43
30 6 57 9 59 6 2 -2 -10 -27 -27 -54 -37 -61 -25 -67 20 -11 42 52 54 51 23
-2 -13 -24 -29 -60 -35 -82 -6 -21 -26 -61 -45 -88 -19 -28 -34 -56 -34 -63 0
-7 -11 -28 -23 -47 -28 -41 -51 -127 -101 -378 -36 -182 -58 -266 -115 -435
-76 -225 -119 -368 -125 -420 -7 -56 -22 -130 -45 -222 -16 -67 -32 -142 -37
-178 0 -5 -3 -17 -6 -25 -18 -48 -30 -134 -19 -138 15 -5 14 -38 -3 -54 -7 -8
-12 -27 -11 -42 5 -39 15 -45 15 -8 0 17 5 34 11 38 11 7 7 -51 -8 -113 -8
-34 -23 -28 -16 7 3 17 1 30 -4 30 -17 0 -32 -101 -24 -155 5 -28 9 -39 10
-25 2 14 9 43 17 65 14 40 14 40 9 -35 -6 -126 -53 -295 -122 -447 -14 -29
-29 -53 -34 -53 -5 0 -9 -11 -9 -25 0 -48 -77 -185 -104 -185 -4 0 -10 10 -15
23 -8 21 -9 21 -31 -15 -17 -30 -28 -38 -50 -38 -16 0 -32 -5 -35 -10 -8 -13
-72 -40 -95 -40 -10 0 -23 -7 -30 -15 -8 -9 -21 -13 -34 -10 -17 5 -18 4 -6
-4 13 -10 13 -11 0 -11 -12 0 -12 -2 -2 -9 12 -7 12 -12 1 -30 -16 -25 -21
-25 -95 -6 -60 16 -76 12 -109 -25 -22 -24 -30 -99 -11 -101 6 -1 27 -2 46 -4
19 -1 43 -3 53 -3 24 -3 32 -28 14 -46 -8 -9 -44 -27 -80 -41 -65 -26 -115
-65 -136 -104 -18 -33 -13 -33 40 4 28 19 55 32 60 29 6 -3 17 0 25 7 8 6 16
10 19 7 2 -2 -29 -38 -70 -80 -41 -43 -75 -81 -75 -86 0 -5 -9 -17 -21 -28
-16 -14 -109 -167 -109 -179 0 -2 -16 -26 -35 -55 -19 -29 -32 -56 -29 -61 11
-18 32 -8 39 18 12 49 45 73 45 33 0 -29 17 -24 25 8 4 15 9 22 12 15 2 -6 -3
-26 -13 -44 -11 -21 -16 -56 -16 -98 0 -68 -16 -132 -82 -335 -40 -123 -63
-157 -178 -273 -23 -23 -44 -40 -46 -38 -6 6 28 147 38 160 4 6 10 24 13 40 7
44 45 187 56 210 5 11 11 29 14 40 2 11 14 44 26 73 13 34 17 52 9 50 -13 -5
-70 -163 -105 -293 -13 -49 -26 -99 -29 -110 -3 -11 -12 -51 -20 -90 -21 -105
-21 -107 -55 -145 -55 -61 -80 -114 -80 -167 -1 -48 24 -123 40 -123 10 0 2
48 -10 56 -5 3 -9 26 -9 52 0 58 45 152 72 152 10 0 18 7 18 16 0 16 86 101
105 105 6 1 23 20 39 42 17 22 32 35 33 30 2 -6 -7 -55 -22 -109 -14 -54 -25
-115 -25 -136 0 -24 -7 -45 -19 -57 -10 -10 -24 -47 -31 -87 -12 -66 -34 -109
-51 -99 -7 5 -49 -46 -49 -59 0 -4 12 -3 26 0 20 5 25 3 22 -6 -5 -16 -24 -27
-60 -35 -23 -4 -28 -11 -28 -37 0 -24 12 -43 58 -88 31 -32 71 -62 87 -67 27
-9 30 -14 32 -54 5 -96 27 -215 50 -271 13 -32 21 -64 17 -69 -4 -8 -188 -9
-595 -4 l-589 8 0 -1497 0 -1496 2495 0 c2343 0 2497 1 2523 17 15 10 55 41
90 70 65 54 76 59 102 43 18 -11 20 -9 -65 -54 -38 -20 -81 -46 -95 -56 -25
-19 -21 -20 410 -20 l435 0 -33 21 c-18 12 -53 24 -78 27 -24 2 -47 9 -50 13
-8 13 -78 11 -92 -3 -9 -9 -18 -7 -39 8 -16 11 -75 36 -133 54 -58 19 -130 47
-160 63 -68 36 -130 94 -130 122 0 28 -15 50 -24 36 -10 -16 -46 -13 -52 4 -5
12 -10 13 -20 4 -8 -6 -21 -9 -29 -5 -8 3 -15 0 -15 -6 0 -7 -4 -7 -14 1 -7 6
-20 9 -29 5 -8 -3 -18 0 -22 5 -3 6 -10 9 -15 6 -15 -9 -18 35 -4 50 15 14 70
15 92 1 7 -4 28 -5 47 -2 28 6 36 3 54 -21 11 -16 21 -22 21 -15 0 16 18 35
48 51 22 12 268 7 407 -8 33 -3 78 -3 100 0 27 4 31 7 14 8 -14 0 -39 5 -55
10 -16 6 -54 15 -85 21 -31 6 -65 18 -75 26 -11 9 -13 12 -5 8 20 -10 43 24
31 46 -13 25 -54 34 -140 31 -50 -2 -98 4 -145 17 -39 10 -87 17 -108 14 -25
-3 -43 1 -55 11 -9 9 -21 15 -26 14 -5 -1 -16 17 -23 41 -8 23 -18 42 -22 42
-4 0 -28 20 -53 45 -44 43 -66 53 -82 38 -15 -15 -37 -11 -32 5 3 9 8 30 12
45 4 18 16 32 33 39 32 13 489 11 546 -2 22 -5 81 -10 131 -10 87 0 170 -18
202 -43 16 -13 32 6 32 38 0 11 14 49 30 83 34 72 34 72 20 72 -5 0 -10 -7
-10 -16 0 -9 -9 -18 -20 -21 -11 -3 -20 -9 -20 -13 0 -4 -27 -22 -60 -39 -33
-18 -60 -30 -60 -27 0 3 43 92 96 199 l95 194 40 -11 c58 -17 65 -28 50 -76
-7 -22 -16 -38 -21 -35 -6 4 -10 -3 -10 -15 0 -12 -12 -37 -26 -56 -15 -19
-22 -34 -16 -34 6 0 32 33 58 73 43 66 55 95 95 227 l14 45 7 -105 c3 -58 13
-124 22 -147 12 -36 13 -43 1 -53 -21 -18 -90 -171 -122 -273 -4 -13 -8 -15
-13 -7 -4 7 -12 -8 -19 -35 -10 -42 -10 -49 10 -76 25 -36 31 -32 54 40 10 29
35 91 56 137 22 47 39 92 39 102 0 10 10 26 21 36 21 18 21 22 16 260 -4 178
-9 256 -21 300 -16 57 -14 87 4 56 5 -8 55 -73 111 -145 119 -151 143 -199
160 -314 13 -92 3 -300 -16 -331 -6 -10 -55 -307 -55 -335 0 -20 3 -22 32 -16
l33 7 27 164 c15 91 27 186 28 212 0 26 4 49 9 53 17 10 0 185 -25 264 -13 41
-22 76 -20 78 2 2 35 -36 73 -84 39 -49 96 -110 127 -138 66 -58 96 -114 96
-176 0 -49 -13 -79 -25 -60 -5 9 -10 9 -21 0 -15 -12 -20 -64 -5 -55 5 4 7 -4
4 -16 -5 -19 1 -16 29 15 25 28 37 34 45 26 6 -6 16 -8 22 -5 14 9 14 71 0 98
-21 39 -1 28 45 -26 46 -54 46 -54 31 -88 -12 -29 -14 -30 -15 -9 0 17 -4 22
-16 17 -9 -3 -20 -6 -24 -6 -5 0 -2 -16 6 -35 7 -19 14 -56 14 -82 0 -26 3
-59 7 -71 5 -21 10 -23 42 -19 20 3 99 13 176 21 368 41 511 71 755 159 233
83 296 117 397 212 26 25 50 45 54 45 11 0 39 30 39 41 0 5 -11 9 -25 9 -16 0
-28 7 -31 18 -13 40 -29 62 -41 58 -7 -3 -13 -2 -13 3 0 4 -32 41 -71 82 -44
46 -73 85 -76 104 -3 16 -17 43 -30 58 -12 16 -23 34 -23 40 0 7 -16 26 -35
42 -19 17 -35 37 -35 46 0 9 -7 22 -15 29 -8 7 -15 19 -15 26 0 8 -9 19 -20
26 -11 7 -20 18 -20 25 0 7 -9 17 -21 23 -16 9 -19 19 -17 52 3 40 5 43 73 80
39 21 115 56 170 79 55 23 104 45 108 49 14 12 -70 -7 -157 -35 -43 -14 -84
-25 -91 -25 -6 0 -26 -7 -44 -16 -58 -29 -57 -8 1 25 32 18 61 38 65 44 20 33
-16 129 -63 166 -34 26 -37 26 -103 -4 -58 -27 -98 -27 -70 0 8 7 68 41 134
75 66 33 109 59 95 56 -37 -7 -161 -51 -221 -79 -30 -13 -72 -30 -93 -37 -34
-11 -40 -10 -48 4 -5 9 -13 14 -18 11 -5 -3 -12 7 -16 22 -3 15 -12 33 -19 38
-6 6 -15 28 -18 49 -3 22 -10 42 -14 45 -19 14 -34 55 -35 98 0 36 -5 47 -19
50 -11 3 -19 14 -19 24 0 10 -9 23 -20 29 -23 13 -27 40 -5 40 8 0 15 9 15 20
0 11 -4 20 -8 20 -12 0 -75 127 -68 139 3 5 0 16 -9 24 -8 8 -12 24 -10 35 4
25 -1 23 -93 -25 -35 -18 -70 -33 -78 -33 -8 0 -14 -4 -14 -9 0 -15 -33 -22
-42 -9 -13 21 -9 28 17 28 18 0 23 4 18 16 -4 12 0 14 23 9 16 -3 22 -2 14 1
-27 12 -30 28 -7 41 l22 12 -25 1 c-24 1 -24 1 -5 15 11 8 27 20 35 28 8 8 79
63 158 122 252 188 410 328 441 392 11 23 25 44 31 48 11 7 14 108 4 118 -4 3
-15 -10 -26 -31 -11 -20 -26 -49 -34 -63 -43 -81 -394 -357 -628 -494 -47 -27
-48 -27 -41 -6 3 12 3 21 -2 20 -20 -3 -27 2 -13 11 13 8 12 11 -4 23 -11 8
-16 19 -12 25 4 7 2 12 -3 12 -6 0 -11 -4 -11 -10 0 -22 -17 -8 -28 24 -7 19
-20 37 -30 41 -9 3 -12 9 -7 13 33 23 44 49 36 79 -11 38 0 51 108 132 80 59
209 166 348 290 61 53 92 89 113 132 33 65 39 133 15 165 -14 19 -14 19 -15
-2 0 -53 -50 -131 -128 -201 -106 -96 -371 -306 -405 -321 -36 -16 -42 -15
-27 3 6 8 9 19 5 25 -4 6 -2 17 5 24 8 10 8 32 1 77 -16 97 -26 88 -25 -24 0
-117 -8 -140 -79 -199 -43 -36 -107 -78 -118 -78 -3 0 -5 22 -5 49 1 60 -25
101 -72 116 -32 9 -42 29 -19 38 9 4 8 8 -3 16 -10 7 -11 11 -2 11 6 0 12 7
12 15 0 8 -5 15 -11 15 -5 0 -7 5 -4 10 5 8 11 7 21 -1 8 -6 18 -9 21 -5 4 4
1 11 -7 16 -15 9 83 107 245 243 50 41 126 105 170 142 108 90 192 173 217
213 17 28 20 48 19 114 -1 51 -7 91 -17 107 -14 25 -15 25 -11 -24 3 -27 8
-58 12 -67 9 -22 -99 -128 -324 -317 -303 -254 -401 -321 -401 -276 0 9 -9 15
-21 15 -15 0 -19 5 -15 15 3 8 1 15 -4 15 -6 0 -10 -4 -10 -10 0 -16 -47 -23
-71 -10 -20 11 -21 10 -16 -8 3 -12 -1 -26 -9 -33 -12 -10 -13 -8 -8 7 5 16 3
16 -14 -3 -31 -35 -37 -27 -12 15 13 20 36 62 53 92 16 30 33 60 37 65 30 39
139 328 194 515 37 124 75 254 86 290 11 36 26 91 34 122 8 31 26 89 40 128
14 39 26 82 26 94 0 23 -34 76 -43 66 -2 -3 -18 -52 -36 -110 -18 -58 -39
-124 -47 -148 -8 -23 -14 -47 -14 -52 0 -5 -20 -60 -44 -122 -48 -124 -139
-417 -185 -599 -43 -171 -69 -251 -88 -279 -35 -49 -301 -280 -324 -280 -15 0
-19 34 -4 49 17 20 24 65 10 66 -5 0 -16 4 -22 8 -9 6 -13 0 -13 -20 -1 -63
-68 -138 -130 -145 -21 -3 -25 1 -27 32 -1 19 -9 80 -17 135 -14 98 -14 100 6
122 29 31 35 29 42 -12 9 -46 29 -46 24 0 -2 19 -2 32 1 30 2 -3 15 5 28 17
28 26 38 20 22 -16 -18 -38 -6 -42 43 -13 44 26 121 114 152 175 10 20 25 98
37 193 15 123 34 213 83 392 35 128 71 266 81 307 25 109 72 243 118 335 48
96 61 183 32 215 -10 11 -23 20 -29 20 -7 0 -19 -37 -28 -83 -8 -46 -22 -95
-29 -109 -79 -143 -99 -193 -132 -328 -69 -276 -119 -515 -124 -595 -11 -166
-46 -285 -109 -360 -31 -39 -47 -20 -28 33 15 43 18 102 5 102 -5 0 -13 9 -16
21 -4 11 -9 18 -13 15 -3 -3 -11 3 -19 14 -16 22 -58 27 -70 8 -4 -7 -6 -24
-4 -36 3 -25 -23 -146 -41 -195 -11 -30 -42 -52 -58 -42 -21 13 -9 196 17 265
4 8 6 18 5 22 -3 11 29 25 76 32 23 3 65 11 92 17 48 10 50 12 50 45 l0 35
-67 -1 c-107 -2 -110 -2 -116 22 -4 12 -1 28 5 35 5 7 7 24 4 38 -5 21 -3 25
10 23 9 -2 19 3 22 11 3 10 0 12 -12 8 -13 -5 -16 1 -16 43 0 45 -2 50 -22 51
-22 1 -22 1 2 9 l25 7 -25 11 c-24 10 -24 11 -2 11 12 1 22 5 22 10 0 13 37
22 125 28 44 3 81 6 82 7 0 0 3 14 5 31 3 26 -1 30 -32 38 -19 4 -83 8 -142 8
-66 0 -108 4 -108 10 0 5 8 21 17 35 13 21 14 27 3 34 -7 4 -15 32 -17 61 -7
87 -11 99 -36 100 -12 0 -16 3 -9 6 22 9 12 22 -20 25 -56 7 -10 15 142 28
129 11 171 11 245 -2 16 -2 21 3 23 30 2 17 1 32 -2 32 -2 0 -31 7 -63 15 -48
12 -119 16 -376 25 -5 0 -6 4 -2 10 3 5 -6 17 -20 26 -32 21 -33 44 -2 37 16
-3 18 -2 8 5 -11 8 -11 10 0 14 7 2 13 20 13 40 0 28 5 39 23 47 31 14 30 54
-2 79 -14 11 -25 25 -25 30 0 6 -8 16 -17 22 -33 21 63 2 99 -20 30 -17 300
-111 305 -106 8 7 -157 91 -199 103 -37 9 -65 26 -102 61 -50 47 -109 81 -168
95 -16 4 -28 12 -28 17 0 5 7 7 14 4 18 -7 65 26 66 44 0 10 -13 7 -42 -11
-54 -31 -95 -24 -48 8 47 32 30 45 -44 32 -5 -1 -11 4 -13 12 -4 10 1 11 18 6
23 -7 23 -6 4 8 -11 8 -33 18 -50 24 -20 6 -33 20 -40 39 -17 50 -67 133 -78
131 -6 -1 -11 5 -12 13 -1 16 -22 15 -42 -2 -17 -14 -16 -71 1 -113 13 -29 12
-34 -1 -39 -27 -11 -53 -6 -53 8 0 8 -4 18 -10 21 -6 3 -7 -1 -4 -9 3 -9 2
-16 -4 -16 -5 0 -9 -8 -8 -17 0 -12 -5 -17 -16 -15 -10 1 -21 -9 -29 -27 -7
-16 -16 -28 -19 -26 -4 2 -21 -8 -39 -23 l-32 -27 22 -60 c28 -79 29 -203 1
-278 -11 -28 -29 -104 -41 -167 -12 -63 -42 -189 -66 -280 -24 -91 -69 -266
-100 -390 -31 -124 -69 -270 -85 -325 -43 -148 -51 -178 -185 -705 -67 -267
-140 -542 -160 -613 -35 -116 -40 -128 -64 -133 -65 -14 -130 -39 -171 -66
-46 -30 -120 -124 -120 -152 0 -18 -59 -87 -60 -70 0 16 -88 9 -148 -11 -26
-9 -72 -28 -102 -42 -30 -15 -64 -30 -75 -34 -54 -19 -104 -46 -172 -91 -23
-15 -46 -28 -53 -28 -6 0 -18 -7 -26 -15 -9 -8 -26 -15 -39 -15 -13 0 -28 -6
-32 -13 -11 -17 -58 -37 -88 -37 -13 0 -27 -4 -30 -10 -10 -16 -45 -12 -45 5
0 8 -4 15 -10 15 -5 0 -10 -7 -10 -15 0 -8 -7 -15 -15 -15 -8 0 -15 5 -15 11
0 7 -9 9 -21 6 -12 -3 -18 -3 -15 0 8 8 -49 43 -69 43 -8 0 -15 9 -15 20 0 13
5 18 15 14 8 -4 15 -2 15 2 -1 14 -27 44 -33 38 -3 -3 -13 8 -22 26 -12 24
-13 35 -5 45 8 10 8 19 -2 34 -7 12 -16 21 -20 21 -12 0 -10 65 3 97 10 25 12
26 18 9 7 -18 8 -18 14 -2 4 10 7 31 7 47 0 21 10 39 32 60 24 22 28 29 15 29
-22 0 -22 15 2 48 10 15 20 36 23 47 2 12 11 19 22 18 10 0 22 9 28 23 6 13
15 24 20 24 4 0 8 11 8 24 0 16 7 27 19 31 11 3 24 18 30 33 7 15 18 38 26 52
8 14 15 33 15 43 0 11 9 21 20 24 11 3 31 29 48 62 19 39 33 55 45 53 11 -2
19 6 23 22 3 14 9 26 13 26 4 0 14 12 22 27 8 15 23 37 34 49 11 13 30 36 43
51 12 15 40 48 63 73 22 25 54 72 71 104 16 33 41 68 54 79 13 10 24 24 24 32
0 7 6 18 14 25 8 6 12 18 9 26 -3 8 4 23 16 33 11 10 21 28 21 40 0 12 6 21
15 21 9 0 18 8 21 18 10 31 39 86 51 100 7 7 14 20 14 28 3 36 27 84 45 91 8
3 20 15 25 27 6 11 23 44 38 71 23 41 34 51 60 53 30 3 31 5 31 51 0 33 6 56
20 74 11 14 18 32 14 40 -3 8 2 17 11 21 9 3 13 10 10 16 -3 6 1 13 9 16 9 3
16 12 16 19 0 6 9 20 20 30 11 10 20 24 20 31 0 7 9 18 20 24 11 6 20 17 20
26 0 8 12 33 26 55 14 23 34 62 45 87 11 25 26 50 33 56 8 6 17 27 20 46 4 19
18 58 32 85 25 50 50 130 59 194 3 19 10 53 15 77 6 24 9 75 9 114 -1 70 -1
72 36 106 21 19 43 34 50 34 29 0 56 48 61 106 5 60 -18 156 -43 182 -7 7 -13
19 -13 26 0 17 -59 134 -71 141 -5 4 -9 15 -9 26 0 10 -4 19 -10 19 -5 0 -12
11 -16 25 -3 14 -15 42 -25 62 -10 21 -19 45 -19 55 0 9 -4 20 -10 23 -5 3
-10 14 -10 24 0 17 -28 84 -55 131 -7 14 -24 46 -36 73 -12 26 -25 47 -29 47
-24 0 -27 -170 -4 -240 15 -46 15 -51 -1 -66 -9 -9 -14 -22 -11 -29 3 -8 -8
-15 -31 -18 -58 -10 -117 25 -156 90 -37 63 -75 113 -85 112 -17 -3 -20 3 -13
29 5 16 3 45 -5 72 -8 25 -14 54 -14 65 -1 11 -11 39 -23 62 -94 180 -111 220
-126 288 -13 55 -34 109 -50 129 -9 11 -17 60 -22 139 -4 67 -13 143 -20 168
-17 64 -3 133 29 137 35 5 63 -36 88 -129 12 -46 33 -115 47 -154 14 -38 39
-113 56 -165 16 -52 44 -133 61 -180 33 -90 130 -280 143 -280 4 0 7 18 7 40
l0 40 25 -16 c14 -9 25 -22 25 -29 0 -7 7 -18 15 -25 12 -10 15 -10 15 4 0 9
5 16 10 16 6 0 10 14 10 31 0 35 -27 148 -40 164 -11 14 -24 67 -21 87 3 24
-30 138 -40 138 -12 0 -49 65 -49 86 0 11 -11 42 -25 69 -13 28 -25 59 -25 71
0 11 -8 38 -19 60 -10 21 -21 56 -25 76 -4 20 -13 50 -21 65 -8 15 -15 42 -15
60 0 25 -3 30 -19 26 -21 -5 -61 43 -54 65 3 6 -3 12 -13 12 -14 0 -13 3 6 20
47 41 96 19 154 -69 24 -36 53 -86 66 -110 12 -24 41 -74 65 -111 53 -83 79
-134 114 -225 36 -95 145 -308 166 -325 16 -14 17 -10 12 50 -3 36 -3 55 0 42
4 -22 5 -23 18 -5 15 19 21 123 8 123 -5 0 -9 17 -11 37 -1 20 -6 39 -11 43
-5 3 -12 20 -16 38 -4 18 -9 31 -12 28 -6 -6 -14 7 -60 97 -14 27 -31 51 -39
54 -9 3 -13 12 -10 20 4 8 -4 17 -19 23 -15 6 -25 17 -25 29 0 26 -51 111 -67
111 -6 0 -15 10 -19 23 -7 24 -44 75 -44 61 0 -5 -8 7 -19 26 -10 19 -29 41
-42 47 -13 7 -20 13 -15 13 4 0 1 10 -7 23 -8 13 -12 28 -9 33 9 11 182 16
197 5 5 -5 64 -21 130 -36 66 -15 143 -38 170 -51 53 -24 64 -27 108 -25 30 1
36 17 10 25 -19 6 -53 59 -53 82 0 10 7 13 24 8 19 -4 26 -1 31 16 9 27 95 67
154 71 38 3 45 0 59 -25 13 -22 14 -30 5 -33 -18 -6 -16 -52 2 -59 8 -4 15
-12 15 -20 0 -8 8 -14 18 -15 9 0 37 -1 62 -2 l45 -2 0 -44 c0 -40 3 -45 28
-52 15 -4 27 -4 27 1 0 17 28 17 64 -1 21 -10 42 -16 47 -13 15 9 29 79 23
119 -4 22 -7 68 -8 102 -3 67 -19 97 -60 107 -14 3 -25 17 -31 38 -6 18 -17
33 -25 33 -8 0 -30 8 -48 18 -38 21 -106 25 -221 14 -56 -5 -71 -3 -63 5 20
20 14 24 -23 20 -19 -2 -41 1 -48 7 -9 7 -24 8 -44 2 -46 -13 -76 -3 -102 37
-18 29 -21 40 -12 54 15 24 14 28 -9 28 -12 0 -20 7 -20 16 0 9 9 18 20 21 24
6 26 20 4 25 -22 4 -43 85 -32 123 4 16 3 56 -1 89 -9 64 -6 81 11 70 7 -5 8
-2 4 5 -5 8 4 23 23 40 17 15 31 33 31 39 0 7 4 12 9 12 5 0 14 12 20 28 16
42 31 56 106 97 125 69 179 93 259 115 43 12 93 29 110 39 17 9 55 25 84 34
45 14 134 76 177 123 15 17 81 64 89 64 4 0 4 -10 1 -22 -6 -15 -4 -20 6 -15
8 3 31 12 52 21 l37 16 0 -25 c0 -43 60 -86 73 -52 3 6 6 2 6 -10 1 -24 26
-32 33 -11 3 9 12 8 32 -5 21 -14 30 -16 42 -6 7 6 24 9 36 6 13 -4 35 2 55
14 18 11 33 17 33 13 0 -4 11 3 25 16 14 13 25 31 25 41 0 10 4 20 9 23 16 10
0 45 -38 79 -33 30 -64 77 -65 102 -1 5 -23 13 -51 18 -27 4 -54 12 -60 18 -5
5 -19 9 -30 9 -12 0 -31 9 -43 20 -12 11 -26 20 -32 20 -6 0 -16 14 -22 30 -8
24 -15 29 -29 25 -13 -5 -19 -1 -19 10 0 21 -24 45 -44 45 -20 0 -59 57 -52
76 4 10 -1 18 -14 21 -46 12 -13 21 93 27 61 3 252 10 422 17 171 6 400 15
510 20 110 4 389 13 620 18 545 13 707 20 721 31 6 5 190 16 410 25 219 8 487
19 594 25 107 6 283 13 390 16 107 3 214 7 238 10 l42 5 0 235 0 234 -4800 0
-4800 0 0 -406z m4554 -27 c-3 -8 -22 -23 -42 -35 -20 -12 -31 -22 -23 -22 7
0 37 14 66 30 44 25 54 28 64 16 9 -11 5 -18 -23 -36 -20 -12 -35 -24 -35 -28
3 -21 -3 -32 -18 -32 -13 0 -14 3 -5 12 16 16 15 28 -3 28 -15 0 -55 -19 -65
-31 -3 -3 -22 -6 -43 -6 -37 -1 -38 0 -21 18 9 10 23 19 29 19 7 0 15 7 19 15
3 8 12 15 19 15 8 0 21 7 28 16 11 13 35 27 56 33 1 1 0 -5 -3 -12z m301 -23
c-27 -13 -57 -24 -66 -24 -9 0 -27 -8 -40 -19 -13 -10 -36 -20 -51 -23 -44 -8
-34 17 15 40 79 36 105 43 182 50 6 0 -12 -10 -40 -24z m-203 -33 c3 8 8 11
11 8 4 -3 -2 -21 -12 -40 -16 -32 -55 -58 -108 -74 -27 -8 -32 12 -5 22 28 10
52 35 52 55 0 21 41 41 51 26 4 -6 9 -5 11 3z m-1662 -258 c-1 -15 -30 -46
-37 -40 -3 4 2 16 13 26 22 23 24 24 24 14z m1949 -62 c-26 -22 -69 -28 -69
-10 0 5 3 8 8 6 4 -3 23 3 42 12 43 21 51 18 19 -8z m67 -41 c-3 -42 12 -55
21 -19 4 15 11 19 27 15 11 -3 29 -6 39 -6 24 0 21 -17 -9 -45 -22 -21 -23
-24 -7 -28 14 -4 13 -5 -4 -6 -13 0 -23 -5 -23 -10 0 -5 -16 -8 -36 -7 -20 1
-38 -2 -40 -6 -3 -5 -13 -8 -22 -8 -16 1 -16 2 1 14 23 18 22 26 -5 26 -21 0
-21 1 5 28 15 15 32 42 38 60 15 43 19 40 15 -8z m-360 -18 c-18 -16 -18 -16
-6 6 6 13 14 21 18 18 3 -4 -2 -14 -12 -24z m64 24 c0 -3 -4 -8 -10 -11 -5 -3
-10 -1 -10 4 0 6 5 11 10 11 6 0 10 -2 10 -4z m160 -16 c0 -5 -5 -10 -11 -10
-5 0 -7 5 -4 10 3 6 8 10 11 10 2 0 4 -4 4 -10z m305 -10 c3 -5 -1 -10 -10
-10 -9 0 -13 5 -10 10 3 6 8 10 10 10 2 0 7 -4 10 -10z m150 -1 c19 0 19 -1
-1 -9 -27 -11 -106 -1 -98 12 4 6 23 8 43 4 20 -3 45 -6 56 -7z m92 -76 c-3
-3 -11 -2 -17 2 -9 6 -9 10 1 16 14 8 27 -7 16 -18z m123 16 c0 -8 -15 -13
-32 -10 -5 0 -8 -10 -8 -22 0 -20 -5 -24 -29 -25 -37 -1 -90 -28 -113 -57 -9
-12 -31 -25 -47 -28 -16 -4 -44 -19 -63 -35 -28 -25 -78 -48 -78 -36 0 10 49
47 87 65 37 18 83 64 83 83 0 3 -21 3 -47 0 -72 -10 -41 10 40 25 37 8 71 11
74 7 4 -3 1 -6 -5 -6 -7 0 -12 -4 -12 -9 0 -17 39 1 45 20 4 10 15 19 25 19
10 0 21 3 23 8 7 10 57 12 57 1z m186 -50 c3 -5 -10 -9 -28 -8 -18 0 -27 3
-20 6 6 2 10 8 7 13 -3 4 4 6 15 3 11 -3 23 -9 26 -14z m-513 -6 c-7 -2 -21
-2 -30 0 -10 3 -4 5 12 5 17 0 24 -2 18 -5z m607 -38 c0 -6 -33 -10 -77 -11
-43 -1 -99 -4 -125 -8 -31 -5 -48 -4 -48 3 0 15 75 26 182 26 39 0 68 -4 68
-10z m-365 -85 c-3 -5 1 -10 11 -10 36 0 -7 -28 -54 -35 -25 -4 -60 -16 -75
-27 -22 -16 -31 -18 -37 -8 -5 9 -9 9 -14 1 -4 -6 -13 -11 -21 -11 -9 0 -6 9
11 27 13 14 27 23 30 20 4 -4 20 5 36 18 34 28 53 32 65 10 6 -10 13 -11 23
-5 13 8 12 10 -3 10 -10 0 -15 5 -12 10 3 6 15 10 26 10 11 0 17 -4 14 -10z
m-175 -104 c0 -2 -9 -6 -20 -9 -11 -3 -20 -1 -20 4 0 5 9 9 20 9 11 0 20 -2
20 -4z m-598 -931 c0 -5 -5 -11 -11 -13 -6 -2 -11 4 -11 13 0 9 5 15 11 13 6
-2 11 -8 11 -13z m433 -196 c4 -6 5 -12 3 -14 -6 -7 -167 -9 -174 -3 -17 18
14 28 86 28 45 0 82 -5 85 -11z m-1206 -16 c15 -12 30 -48 46 -113 32 -123 31
-131 -6 -152 -39 -23 -75 -14 -86 20 -13 39 -7 108 11 134 18 25 22 118 6 118
-5 0 -10 -15 -10 -33 0 -40 -8 -51 -27 -36 -13 12 -18 61 -6 72 12 13 51 7 72
-10z m571 -533 c0 -5 -2 -10 -4 -10 -3 0 -8 5 -11 10 -3 6 -1 10 4 10 6 0 11
-4 11 -10z m-2180 -234 c0 -3 -4 -8 -10 -11 -5 -3 -10 -1 -10 4 0 6 5 11 10
11 6 0 10 -2 10 -4z m204 -302 c-33 -61 -41 -32 -12 46 9 23 10 24 20 7 8 -14
6 -27 -8 -53z m-2 -143 c-6 -31 -14 -86 -18 -123 -7 -73 -25 -102 -43 -71 -9
17 -11 17 -26 -5 -13 -17 -20 -20 -35 -12 -10 5 -26 7 -34 4 -20 -8 -20 6 -1
32 8 10 15 28 15 38 0 19 0 19 14 1 13 -17 14 -17 29 16 9 19 21 56 27 83 10
46 41 102 65 118 16 11 18 -19 7 -81z m-472 -311 c0 -5 -7 -10 -16 -10 -8 0
-12 5 -9 10 3 6 10 10 16 10 5 0 9 -4 9 -10z m-225 -139 c6 -10 -21 -41 -36
-41 -15 0 -10 22 9 36 21 16 20 16 27 5z m462 -53 c-3 -8 -6 -5 -6 6 -1 11 2
17 5 13 3 -3 4 -12 1 -19z m3399 -205 c-10 -10 -19 5 -10 18 6 11 8 11 12 0 2
-7 1 -15 -2 -18z m-122 -78 c-4 -8 -8 -15 -10 -15 -2 0 -4 7 -4 15 0 8 4 15
10 15 5 0 7 -7 4 -15z m13 -47 c-3 -8 -6 -5 -6 6 -1 11 2 17 5 13 3 -3 4 -12
1 -19z m-34 -8 c-5 -19 -23 -39 -23 -25 0 9 20 45 24 45 2 0 2 -9 -1 -20z
m-175 -100 c0 -32 0 -32 -7 -10 -5 14 -11 48 -14 75 l-6 50 14 -40 c7 -22 13
-56 13 -75z m202 80 c0 -5 -4 -10 -10 -10 -5 0 -10 5 -10 10 0 6 5 10 10 10 6
0 10 -4 10 -10z m-4025 -82 c-7 -18 -55 -42 -55 -28 0 6 6 10 13 10 7 0 19 9
27 20 16 22 23 21 15 -2z m3977 -50 c-7 -7 -12 -8 -12 -2 0 14 12 26 19 19 2
-3 -1 -11 -7 -17z m275 -164 c-3 -3 -12 -4 -19 -1 -8 3 -5 6 6 6 11 1 17 -2
13 -5z m33 -144 c0 -5 -4 -10 -10 -10 -5 0 -10 5 -10 10 0 6 5 10 10 10 6 0
10 -4 10 -10z m-4001 -165 c24 -26 46 -32 56 -15 9 15 25 12 19 -3 -2 -7 4
-22 16 -32 18 -16 20 -16 20 -2 0 24 15 21 37 -6 10 -13 25 -26 33 -30 8 -3
-1 -6 -20 -7 -19 -1 -42 -3 -50 -4 -8 -2 -48 -6 -88 -10 -41 -4 -104 -14 -140
-22 -80 -16 -95 -17 -87 -4 3 6 15 10 27 10 17 0 18 2 8 15 -10 12 -10 15 3
15 8 0 18 11 21 25 4 14 11 23 16 20 5 -3 25 -3 45 1 25 4 35 11 35 25 0 11
-5 19 -11 19 -8 0 -8 5 1 15 17 21 31 19 59 -10z m-409 -175 c6 -11 12 -34 13
-50 1 -19 6 -28 15 -25 23 9 12 -11 -29 -50 -22 -22 -51 -60 -64 -85 -56 -109
-115 -163 -115 -105 0 46 58 207 72 199 4 -3 14 12 23 33 19 44 57 103 67 103
4 0 12 -9 18 -20z m611 -27 c33 -7 33 -7 9 -14 l-25 -7 28 -1 c31 -1 32 -4 15
-31 -10 -15 -9 -24 2 -44 7 -14 19 -26 27 -26 7 0 13 -11 13 -23 0 -26 25 -41
84 -52 21 -4 36 -13 36 -21 0 -8 6 -14 13 -15 9 0 9 -2 -1 -6 -6 -2 -10 -8 -7
-13 3 -4 -88 -10 -203 -13 -174 -3 -221 -8 -292 -27 -75 -20 -220 -82 -253
-108 -7 -5 -23 -13 -37 -17 -18 -5 -15 0 13 17 21 13 35 27 31 31 -4 4 0 7 9
7 8 0 25 11 35 25 12 15 23 21 27 15 10 -15 28 -12 22 4 -4 9 2 17 14 21 10 4
16 11 13 17 -4 6 -8 28 -9 49 -2 34 0 37 16 28 15 -7 17 -6 13 6 -4 9 0 15 9
15 23 0 28 14 14 44 -9 21 -17 25 -35 21 -17 -4 -23 -2 -19 7 2 7 9 12 15 11
5 -1 13 4 16 12 3 8 0 15 -7 15 -7 0 -1 6 13 13 53 28 135 48 213 53 45 3 84
8 86 10 7 6 65 5 102 -3z m3346 -130 c-3 -10 -5 -4 -5 12 0 17 2 24 5 18 2 -7
2 -21 0 -30z m-3877 -17 c0 -2 -8 -10 -17 -17 -16 -13 -17 -12 -4 4 13 16 21
21 21 13z m4039 -100 c2 -60 -6 -39 -12 34 -3 41 -2 54 3 35 4 -16 8 -48 9
-69z m-32 52 c-3 -8 -6 -5 -6 6 -1 11 2 17 5 13 3 -3 4 -12 1 -19z m-4077 -48
c4 0 -1 -18 -11 -40 -11 -22 -24 -40 -29 -40 -6 0 -10 -10 -10 -22 0 -12 -7
-29 -16 -39 -9 -10 -17 -31 -18 -48 -1 -16 -9 -37 -17 -48 -9 -10 -20 -28 -23
-40 -4 -12 -26 -38 -48 -58 -55 -46 -67 -34 -44 42 10 32 19 70 19 85 1 17 16
41 41 65 22 21 55 63 74 93 19 30 42 63 51 74 16 18 16 18 19 -3 2 -11 7 -21
12 -21z m4080 -27 c0 -20 -3 -24 -11 -16 -7 7 -9 19 -6 27 10 24 17 19 17 -11z
m35 -128 c-1 -22 -3 -78 -5 -125 l-3 -85 -7 80 c-8 89 0 266 10 205 3 -19 5
-53 5 -75z m-38 23 c-2 -13 -4 -5 -4 17 -1 22 1 32 4 23 2 -10 2 -28 0 -40z
m-3289 6 c18 -5 21 -11 16 -28 -4 -11 -7 -22 -8 -22 0 -1 -84 -4 -185 -8 -101
-3 -202 -9 -224 -13 -33 -5 -39 -3 -32 8 5 8 4 11 -1 6 -5 -5 -8 -11 -6 -15 2
-3 -20 -12 -48 -19 -44 -11 -54 -11 -66 2 -9 8 -21 15 -27 15 -7 0 -6 4 3 10
20 13 31 12 28 -2 -2 -6 6 -13 17 -15 13 -3 16 -1 8 4 -29 20 25 47 137 67 77
14 347 21 388 10z m72 -39 c0 -9 10 -15 23 -16 12 0 16 -3 9 -6 -7 -3 -29 -2
-48 1 -28 6 -32 9 -21 21 16 19 37 19 37 0z m-720 -70 c0 -8 10 -16 23 -16
l22 -2 -22 -4 c-13 -2 -23 -8 -23 -12 0 -4 -19 -14 -42 -20 -24 -7 -47 -16
-53 -21 -27 -20 -95 -21 -95 -1 0 3 23 17 52 31 37 18 52 22 55 13 6 -18 23
-16 23 2 0 13 4 14 20 5 18 -9 20 -8 20 15 0 14 5 25 10 25 6 0 10 -7 10 -15z
m45 5 c3 -5 1 -10 -4 -10 -6 0 -11 5 -11 10 0 6 2 10 4 10 3 0 8 -4 11 -10z
m2627 -62 c-15 -15 -24 -6 -16 16 5 12 10 14 17 7 8 -8 8 -14 -1 -23z m-2859
-53 c-3 -9 -8 -14 -10 -11 -3 3 -2 9 2 15 9 16 15 13 8 -4z m4691 -11 c9 -22
8 -24 -9 -24 -8 0 -15 9 -15 20 0 24 15 27 24 4z m-4756 -6 c-3 -13 -79 -86
-105 -101 -8 -5 -17 -6 -21 -2 -10 10 10 35 43 53 38 22 55 38 55 51 0 6 7 11
15 11 8 0 14 -6 13 -12z m-208 -134 c0 -8 -5 -12 -10 -9 -6 4 -8 11 -5 16 9
14 15 11 15 -7z m1225 -86 c14 -20 17 -21 37 -9 16 10 23 10 26 2 2 -6 15 -11
28 -11 14 0 22 -4 19 -10 -3 -5 0 -10 8 -10 16 0 30 -24 20 -34 -4 -3 -15 -6
-25 -6 -15 0 -17 -5 -12 -27 24 -96 38 -112 90 -99 34 9 30 26 -6 26 -34 0
-38 7 -12 26 16 13 16 15 -1 28 -16 13 -16 14 5 18 16 3 30 -3 43 -19 11 -13
28 -33 37 -45 12 -14 25 -19 42 -16 18 4 23 1 18 -10 -3 -10 -1 -13 6 -8 7 4
12 2 12 -4 0 -6 10 -15 23 -21 71 -32 154 -104 162 -141 4 -16 11 -28 16 -28
17 0 64 -62 61 -81 -2 -10 1 -19 6 -19 15 0 34 -52 23 -63 -7 -7 -7 -16 0 -29
5 -10 7 -23 4 -29 -4 -5 -1 -17 6 -25 7 -8 13 -35 13 -59 1 -27 6 -47 14 -50
8 -3 11 -13 7 -25 -4 -12 -2 -20 5 -20 8 0 10 -10 7 -27 -22 -120 -30 -153
-38 -153 -5 0 -9 -9 -9 -19 0 -11 -4 -23 -10 -26 -5 -3 -10 -14 -10 -23 0 -10
-8 -25 -17 -34 -35 -31 -54 -63 -60 -100 -3 -22 -11 -38 -19 -38 -7 0 -16 -9
-19 -20 -5 -16 -15 -20 -52 -20 -40 0 -45 -2 -40 -19 3 -14 -2 -21 -16 -25
-26 -7 -62 23 -47 38 15 15 12 36 -5 36 -8 0 -15 7 -15 16 0 9 -9 29 -21 45
-13 18 -16 29 -8 29 8 0 5 7 -6 20 -10 11 -24 20 -32 20 -7 0 -14 12 -15 28
-3 48 -5 56 -18 84 -7 15 -16 25 -21 23 -4 -3 -14 -2 -23 1 -12 5 -13 11 -6
24 7 13 7 21 -1 25 -6 4 -8 18 -4 34 4 14 3 23 -1 19 -11 -12 -39 34 -36 58 2
14 -6 28 -20 38 -12 9 -23 22 -24 29 0 6 -2 31 -2 55 -2 29 -6 42 -17 42 -8 0
-19 16 -25 39 -5 21 -17 44 -25 51 -12 10 -12 15 1 35 8 13 11 26 7 28 -5 3
-6 33 -3 67 5 53 3 63 -16 81 -12 11 -30 38 -40 59 -10 22 -26 42 -35 45 -17
6 -34 45 -19 45 10 0 7 70 -3 87 -4 6 -3 14 3 18 5 3 10 1 10 -6 0 -7 2 -10 5
-8 2 3 0 20 -5 38 -7 27 -5 36 12 57 27 30 42 30 63 2z m3192 -10 c-3 -8 -6
-5 -6 6 -1 11 2 17 5 13 3 -3 4 -12 1 -19z m1082 -27 c-23 -19 -39 -19 -39 -1
0 5 6 7 14 4 8 -3 17 -1 21 5 3 6 11 11 17 11 5 0 0 -9 -13 -19z m-4359 -97
c0 -8 -4 -12 -10 -9 -5 3 -10 10 -10 16 0 5 5 9 10 9 6 0 10 -7 10 -16z m-653
-20 l61 -7 16 -56 c8 -31 32 -112 52 -181 20 -69 37 -131 38 -138 1 -11 -42
-13 -229 -11 -126 1 -242 3 -258 3 -30 1 -42 23 -32 56 4 11 0 42 -8 68 -9 26
-18 65 -22 87 -7 48 -27 105 -35 105 -3 0 -4 16 -2 35 l4 34 97 4 c208 7 260
7 318 1z m5066 -39 c-3 -9 -8 -14 -10 -11 -3 3 -2 9 2 15 9 16 15 13 8 -4z
m-516 -158 c12 -130 12 -133 -10 -163 -21 -31 -110 -104 -125 -104 -4 0 -23
-8 -42 -19 -60 -31 -80 -34 -101 -15 -27 25 -24 39 6 20 34 -23 35 -21 28 29
-3 25 -1 50 5 57 5 7 9 42 8 76 -1 58 2 67 29 97 17 17 57 49 89 71 33 21 66
50 75 65 9 15 18 26 20 23 3 -3 11 -64 18 -137z m73 118 c-7 -9 -15 -13 -17
-11 -7 7 7 26 19 26 6 0 6 -6 -2 -15z m703 -212 c-7 -2 -13 -14 -14 -26 0 -12
-3 -17 -5 -10 -3 7 -12 9 -20 6 -11 -4 -12 -8 -4 -13 6 -4 -3 -7 -20 -7 l-30
0 32 28 c18 16 42 28 53 28 11 0 14 -3 8 -6z m-657 -110 c15 -43 11 -54 -19
-49 -12 3 -28 5 -34 5 -21 1 -15 49 9 71 25 23 28 22 44 -27z m-87 -79 c-6 -8
-13 -45 -15 -82 -5 -110 -21 -151 -79 -209 -29 -29 -70 -60 -91 -69 -21 -9
-57 -29 -79 -44 -44 -30 -113 -51 -100 -30 11 18 8 156 -4 178 -6 12 -7 31 -2
48 4 16 6 35 4 41 -5 14 43 37 58 27 5 -3 9 -16 9 -29 0 -13 9 -45 21 -72 17
-40 22 -45 30 -31 7 13 4 29 -11 57 -11 22 -20 49 -20 61 0 20 1 20 38 4 53
-23 135 -54 144 -54 22 0 3 18 -41 39 -28 13 -57 31 -66 41 -14 16 -12 20 37
56 29 22 65 47 79 56 15 9 40 37 55 61 l29 44 8 -39 c6 -27 5 -44 -4 -54z
m-369 55 c0 -6 -4 -7 -10 -4 -5 3 -10 11 -10 16 0 6 5 7 10 4 6 -3 10 -11 10
-16z m-815 -109 c-4 -12 -9 -19 -12 -17 -3 3 -2 15 2 27 4 12 9 19 12 17 3 -3
2 -15 -2 -27z m-1679 -112 c8 -26 -5 -38 -17 -15 -6 9 -17 17 -26 17 -12 0
-13 3 -4 14 6 7 8 22 5 32 -6 15 -3 14 14 -5 12 -13 24 -32 28 -43z m1785
-128 c-11 -79 -51 -220 -63 -220 -8 0 -3 19 13 55 9 22 33 139 45 225 4 30 10
45 12 33 2 -12 -1 -54 -7 -93z m1056 -37 c-1 -10 -6 -23 -10 -29 -3 -6 -6 -39
-6 -72 1 -33 -2 -66 -7 -73 -5 -9 -2 -11 9 -6 12 4 14 2 10 -11 -3 -9 -9 -21
-13 -27 -4 -5 -10 -21 -13 -35 -13 -55 -197 -205 -278 -228 l-35 -9 -12 50
c-11 49 -8 74 6 50 8 -12 79 -63 88 -63 3 0 2 6 -3 13 -4 6 -8 17 -9 24 -1 7
-12 26 -23 42 -12 16 -21 35 -21 43 0 8 -4 18 -9 24 -5 5 -12 26 -15 46 -6 35
-5 38 31 54 21 9 52 27 68 39 41 30 80 42 72 22 -3 -9 3 -19 19 -26 15 -6 24
-7 24 -1 0 6 -5 10 -11 10 -6 0 -7 5 -2 13 4 6 8 17 8 24 0 12 115 140 127
142 5 0 7 -7 5 -16z m-1279 -178 c3 -3 -62 -5 -144 -5 -103 0 -164 -5 -198
-15 -50 -15 -63 -14 -52 3 7 12 120 32 201 35 63 2 184 -9 193 -18z m-2088
-180 c0 -8 -32 -35 -41 -35 -5 0 -9 11 -9 24 0 19 4 22 25 18 14 -2 25 -6 25
-7z m3270 -100 c-8 -10 -9 -15 -2 -15 6 0 9 -7 5 -16 -4 -12 0 -14 18 -9 17 4
27 0 36 -13 12 -20 7 -62 -8 -62 -5 0 -6 7 -3 15 4 8 1 15 -5 15 -6 0 -11 -11
-11 -25 0 -14 -4 -25 -10 -25 -5 0 -10 -4 -10 -10 0 -5 6 -7 14 -4 8 3 16 -4
20 -20 5 -19 -1 -36 -21 -63 -26 -37 -130 -130 -137 -122 -39 53 -84 169 -65
169 12 0 11 37 -1 45 -17 10 -11 20 23 40 17 10 61 43 97 71 61 50 88 63 60
29z m-1776 -95 c29 -76 85 -151 185 -250 198 -197 493 -350 813 -422 145 -32
380 -33 483 -1 97 31 157 71 192 130 25 43 28 57 27 131 -1 59 2 82 11 82 7 0
24 12 38 26 16 15 33 24 42 20 15 -5 22 9 8 17 -5 2 -2 2 5 1 7 -2 17 6 22 19
5 12 9 16 9 9 1 -7 -6 -24 -15 -37 -9 -13 -13 -29 -9 -34 3 -6 -1 -21 -10 -35
-10 -15 -17 -49 -18 -90 -2 -64 -14 -86 -24 -46 -9 35 -34 18 -55 -37 -36 -97
-147 -178 -277 -203 -325 -61 -932 148 -1226 423 -50 47 -109 109 -132 138
-50 66 -103 168 -103 200 0 30 13 15 34 -41z m3580 11 c16 -17 50 -110 43
-117 -1 -2 -24 -12 -51 -23 -42 -18 -47 -19 -42 -5 5 13 2 15 -14 11 -11 -3
-20 -1 -20 4 0 5 5 9 10 9 7 0 7 6 0 20 -6 11 -17 20 -25 20 -8 0 -15 7 -15
15 0 18 -17 20 -22 3 -3 -7 -11 -9 -24 -4 -15 7 -16 9 -4 14 8 3 17 8 20 12 7
10 102 59 116 60 6 0 19 -9 28 -19z m-2036 -81 c7 -11 11 -20 9 -20 -2 0 -12
9 -22 20 -10 11 -14 20 -9 20 5 0 15 -9 22 -20z m302 10 c0 -5 -5 -10 -11 -10
-5 0 -7 5 -4 10 3 6 8 10 11 10 2 0 4 -4 4 -10z m-94 -485 c-6 -17 -26 -12
-26 6 0 6 5 7 10 4 6 -3 10 -1 10 6 0 7 3 10 6 6 4 -3 4 -13 0 -22z m-3828
-62 c9 -52 0 -89 -19 -77 -6 3 -9 -14 -8 -43 0 -26 -3 -66 -8 -88 l-9 -40 -8
40 c-16 92 -14 179 7 233 23 60 30 56 45 -25z m3872 69 c0 -5 -9 -17 -20 -27
-22 -20 -26 -14 -10 16 11 19 30 26 30 11z m-251 -268 c-17 -38 -51 -111 -75
-162 -24 -51 -44 -96 -44 -99 0 -2 -9 -16 -20 -30 -18 -23 -20 -24 -20 -6 0
11 3 23 8 27 4 4 8 11 8 14 6 28 18 51 24 47 4 -3 18 23 31 58 13 34 40 94 60
133 45 89 50 96 56 91 2 -3 -10 -36 -28 -73z m-3745 -104 c4 -75 2 -120 -3
-115 -5 6 -12 21 -15 35 -2 14 -3 3 -2 -25 2 -27 1 -44 -1 -37 -8 22 -35 14
-28 -8 4 -11 2 -20 -4 -20 -6 0 -11 -6 -11 -13 0 -8 -11 -19 -25 -25 -40 -19
-32 -42 15 -42 22 0 40 5 40 10 0 6 8 10 18 10 10 0 24 6 31 13 11 10 12 -1 7
-63 -10 -122 -14 -135 -53 -189 -1 -2 -14 8 -27 22 -30 32 -42 34 -51 6 -9
-28 2 -36 22 -16 15 15 17 15 28 0 7 -9 10 -25 7 -35 -4 -15 -10 -18 -34 -12
-27 5 -29 4 -24 -14 7 -22 -2 -52 -16 -52 -6 0 -8 7 -4 15 3 8 1 15 -4 15 -5
0 -10 -7 -12 -15 -2 -10 -8 -12 -17 -6 -22 14 -23 190 -2 276 10 39 23 79 29
90 6 11 37 89 68 172 32 84 58 152 59 150 1 -1 5 -58 9 -127z m172 -81 c-5
-39 -4 -49 5 -43 9 5 10 2 5 -12 -4 -10 -10 -35 -13 -54 -4 -19 -14 -42 -24
-51 -10 -8 -21 -27 -24 -42 -4 -15 -12 -30 -18 -34 -6 -4 -8 0 -4 10 3 9 9 51
13 94 4 43 11 84 16 90 6 7 8 20 4 28 -3 8 -2 23 1 33 6 14 8 13 14 -8 7 -24
7 -24 14 8 12 50 18 38 11 -19z m2674 -14 c0 -14 -10 -45 -22 -68 l-23 -42 -3
30 c-3 34 23 105 38 105 6 0 10 -11 10 -25z m-2779 -325 c5 0 9 -5 9 -11 0 -8
-5 -8 -15 1 -8 7 -14 22 -14 34 2 20 2 20 6 -1 2 -13 9 -23 14 -23z m75 -97
c-7 -7 -26 7 -26 19 0 6 6 6 15 -2 9 -7 13 -15 11 -17z m35 -38 c5 3 6 -1 3
-10 -4 -11 -2 -14 9 -9 8 3 18 1 22 -5 3 -7 0 -8 -9 -5 -10 4 -16 1 -16 -7 0
-8 -9 1 -20 19 -11 18 -20 36 -20 40 0 4 5 -1 11 -11 6 -9 14 -15 20 -12z
m-327 -40 c3 -8 1 -15 -4 -15 -6 0 -10 7 -10 15 0 8 2 15 4 15 2 0 6 -7 10
-15z m-87 -102 c-3 -10 -5 -2 -5 17 0 19 2 27 5 18 2 -10 2 -26 0 -35z m4
-155 c3 -27 -3 -53 -13 -63 -7 -7 -9 0 -6 22 2 18 1 30 -4 27 -4 -3 -8 2 -8
10 0 19 29 22 31 4z m2279 -138 c0 -5 -2 -10 -4 -10 -3 0 -8 5 -11 10 -3 6 -1
10 4 10 6 0 11 -4 11 -10z m1210 -29 c0 -5 -13 -23 -29 -40 -23 -25 -37 -31
-71 -31 -51 0 -46 11 23 50 53 30 77 37 77 21z m-3313 -37 c-3 -3 -12 -4 -19
-1 -8 3 -5 6 6 6 11 1 17 -2 13 -5z"/>
<path d="M5448 8623 c6 -2 18 -2 25 0 6 3 1 5 -13 5 -14 0 -19 -2 -12 -5z"/>
<path d="M1670 4450 c-13 -8 -13 -10 2 -10 9 0 20 5 23 10 8 13 -5 13 -25 0z"/>
<path d="M2320 3418 c0 -7 -3 -22 -6 -33 -3 -12 2 -29 13 -42 10 -12 23 -29
28 -38 8 -14 18 -16 43 -10 38 8 44 35 7 35 -26 0 -29 4 -39 52 -7 29 -46 60
-46 36z"/>
<path d="M2240 3325 c0 -9 5 -15 11 -13 6 2 11 8 11 13 0 5 -5 11 -11 13 -6 2
-11 -4 -11 -13z"/>
<path d="M2533 3313 c-26 -5 -30 -18 -10 -30 8 -4 20 -26 29 -48 27 -68 51
-55 27 14 -8 23 -8 35 0 45 6 7 8 16 4 19 -7 7 -13 7 -50 0z"/>
<path d="M2460 3266 c0 -13 8 -38 18 -55 20 -37 47 -43 36 -8 -24 80 -54 115
-54 63z"/>
<path d="M2589 3180 c-14 -8 -15 -16 -7 -52 14 -56 29 -72 63 -64 14 4 23 11
19 17 -3 6 -12 8 -20 5 -18 -7 -29 13 -15 27 16 16 14 24 -11 31 l-23 7 23 9
c12 5 22 14 22 20 0 13 -30 13 -51 0z"/>
<path d="M2477 3146 c-3 -7 0 -36 7 -62 11 -44 15 -49 41 -49 42 0 54 27 31
67 -30 54 -68 74 -79 44z"/>
<path d="M2665 2320 c-3 -5 -1 -10 4 -10 6 0 11 5 11 10 0 6 -2 10 -4 10 -3 0
-8 -4 -11 -10z"/>
<path d="M5910 3094 c0 -18 8 -38 20 -49 11 -10 20 -13 20 -7 0 7 -9 29 -20
49 l-20 38 0 -31z"/>
<path d="M5914 2995 c-7 -30 13 -85 31 -85 16 0 17 46 3 83 -13 34 -26 35 -34
2z"/>
<path d="M6000 2290 c0 -5 5 -10 11 -10 5 0 7 5 4 10 -3 6 -8 10 -11 10 -2 0
-4 -4 -4 -10z"/>
<path d="M6050 1690 c0 -5 5 -10 10 -10 6 0 10 5 10 10 0 6 -4 10 -10 10 -5 0
-10 -4 -10 -10z"/>
<path d="M2141 1314 c0 -11 3 -14 6 -6 3 7 2 16 -1 19 -3 4 -6 -2 -5 -13z"/>
<path d="M1985 821 c-3 -5 -1 -12 5 -16 5 -3 10 1 10 9 0 18 -6 21 -15 7z"/>
<path d="M2000 692 c0 -5 7 -15 16 -23 13 -10 17 -10 25 2 5 8 9 19 9 24 0 6
-4 4 -9 -4 -8 -12 -12 -12 -25 -2 -9 8 -16 9 -16 3z"/>
<path d="M5804 7371 c-19 -15 -44 -52 -44 -64 0 -9 56 7 73 21 35 31 8 73 -29
43z"/>
<path d="M5738 7253 c-41 -16 -50 -33 -18 -33 22 0 24 -5 21 -70 -2 -34 1 -41
8 -30 6 8 11 23 11 33 0 10 5 15 10 12 18 -11 87 29 98 57 9 25 7 28 -21 37
-40 14 -64 13 -109 -6z"/>
<path d="M5760 7026 c0 -2 7 -9 15 -16 9 -7 15 -8 15 -2 0 5 -7 12 -15 16 -8
3 -15 4 -15 2z"/>
<path d="M4800 6942 c0 -5 11 -12 25 -14 14 -3 25 -1 25 3 0 5 -4 9 -9 9 -5 0
-16 3 -25 6 -9 3 -16 2 -16 -4z"/>
<path d="M5298 6639 c-10 -5 -18 -15 -18 -22 0 -7 -23 -36 -50 -66 -28 -29
-50 -58 -50 -63 0 -6 -10 -24 -22 -41 -30 -42 -26 -95 10 -124 15 -12 32 -22
37 -23 6 0 28 -10 50 -21 37 -20 44 -21 105 -9 36 7 89 26 119 41 30 16 66 29
80 29 36 0 51 17 51 57 0 46 -39 83 -90 83 -58 0 -102 31 -133 94 -15 30 -27
60 -27 65 0 14 -39 14 -62 0z"/>
<path d="M2261 6336 c-8 -14 -12 -29 -8 -32 7 -7 29 34 25 47 -2 6 -10 -1 -17
-15z"/>
<path d="M4642 6210 c0 -14 2 -19 5 -12 2 6 2 18 0 25 -3 6 -5 1 -5 -13z"/>
<path d="M4980 6080 c-57 -5 -115 -12 -128 -15 -27 -7 -25 -28 4 -34 10 -2 38
-15 62 -28 42 -25 43 -27 37 -64 -6 -35 -4 -40 18 -48 14 -5 27 -21 31 -35 3
-14 13 -26 21 -26 8 0 15 -4 15 -9 0 -5 8 -12 18 -15 9 -4 30 -14 46 -22 55
-31 256 -14 256 21 0 9 -17 16 -47 21 -57 8 -141 48 -150 71 -7 18 -43 57 -43
47 0 -4 -9 5 -20 19 -11 14 -20 28 -20 31 0 13 118 4 185 -13 48 -13 78 -16
100 -10 16 5 53 9 82 9 28 0 55 5 58 10 7 12 -42 33 -56 24 -5 -3 -9 0 -9 7 0
7 -8 5 -20 -6 -19 -18 -20 -17 -20 6 0 20 -9 29 -42 45 -49 23 -196 28 -378
14z m20 -110 c0 -13 -5 -18 -15 -14 -8 4 -15 12 -15 20 0 8 7 14 15 14 8 0 15
-9 15 -20z"/>
<path d="M2072 5895 c-14 -31 -16 -53 -3 -39 9 9 24 64 18 64 -2 0 -9 -11 -15
-25z"/>
<path d="M2120 5899 c0 -5 5 -7 10 -4 6 3 10 8 10 11 0 2 -4 4 -10 4 -5 0 -10
-5 -10 -11z"/>
<path d="M5552 5830 c-6 -11 -12 -22 -12 -24 0 -3 25 -4 56 -3 l55 2 -28 22
c-35 28 -54 29 -71 3z"/>
<path d="M2040 5823 c0 -10 -3 -29 -6 -43 -4 -18 -3 -21 4 -10 15 25 23 70 12
70 -5 0 -10 -8 -10 -17z"/>
<path d="M5670 5603 c-32 -22 -64 -27 -91 -12 -25 13 -20 -1 14 -38 25 -28 32
-28 80 -3 67 36 137 18 200 -53 l39 -42 -20 40 c-31 61 -121 125 -176 125 -12
0 -33 -8 -46 -17z"/>
<path d="M1650 5590 c0 -5 4 -10 9 -10 6 0 13 5 16 10 3 6 -1 10 -9 10 -9 0
-16 -4 -16 -10z"/>
<path d="M5955 5500 c29 -54 163 -120 243 -120 21 0 60 -6 85 -14 26 -8 45
-11 42 -6 -6 9 -111 37 -144 38 -46 2 -171 55 -203 86 -17 17 -27 24 -23 16z"/>
<path d="M5960 5333 c0 -20 88 -85 127 -93 21 -5 70 -12 108 -15 69 -7 114
-23 148 -53 15 -13 17 -13 17 0 0 14 -30 47 -57 62 -7 4 -54 10 -105 13 -101
6 -178 32 -216 74 -12 12 -22 18 -22 12z"/>
<path d="M1230 4741 c0 -6 5 -13 10 -16 6 -3 10 1 10 9 0 9 -4 16 -10 16 -5 0
-10 -4 -10 -9z"/>
<path d="M1192 4699 c-8 -12 -10 -25 -5 -30 5 -5 14 4 20 21 13 35 4 40 -15 9z"/>
<path d="M7140 4499 c0 -17 -14 -32 -80 -85 -46 -37 -254 -229 -297 -274 -28
-29 -130 -214 -115 -209 14 6 148 125 277 249 61 58 143 135 183 172 39 37 72
73 72 80 -1 20 -39 85 -40 67z"/>
<path d="M6255 3600 c-4 -6 -11 -8 -16 -5 -5 4 -9 -8 -9 -24 0 -38 21 -41 60
-7 l29 23 -25 12 c-30 13 -31 14 -39 1z"/>
<path d="M6187 3563 c-12 -12 -7 -33 8 -33 17 0 19 9 7 28 -5 7 -11 9 -15 5z"/>
<path d="M6173 3493 c-22 -8 -14 -23 12 -23 18 0 23 4 19 15 -6 16 -11 17 -31
8z"/>
<path d="M6960 3030 c0 -5 7 -7 15 -4 8 4 15 8 15 10 0 2 -7 4 -15 4 -8 0 -15
-4 -15 -10z"/>
<path d="M7920 2896 c0 -4 47 -89 104 -189 142 -249 242 -431 335 -605 77
-145 247 -459 301 -557 15 -27 64 -115 108 -195 108 -196 255 -478 362 -692
91 -182 120 -272 120 -365 0 -56 -28 -168 -58 -237 -12 -27 -22 -50 -22 -53 0
-2 64 -2 143 -1 l142 3 9 38 c5 20 14 37 19 37 15 0 57 -49 57 -66 0 -9 10
-14 30 -14 l30 0 0 115 c0 70 -4 115 -10 115 -5 0 -10 9 -10 20 0 11 5 20 10
20 6 0 10 45 10 114 0 108 -1 114 -19 109 -11 -3 -27 -14 -37 -24 -24 -27 -31
-24 -39 18 -9 50 -14 56 -31 42 -11 -9 -14 -6 -14 17 0 37 -10 52 -45 70 -27
14 -30 13 -52 -9 -22 -22 -23 -27 -15 -81 7 -46 6 -65 -6 -89 l-15 -31 -13 37
c-9 25 -11 62 -6 119 6 72 10 83 27 86 11 2 30 8 42 14 13 6 49 9 90 5 l68 -6
33 37 c26 29 32 44 32 79 0 41 -1 43 -29 43 -16 0 -36 -7 -45 -15 -8 -8 -18
-15 -21 -15 -4 0 -29 -16 -55 -35 -26 -19 -51 -35 -55 -35 -4 0 -20 -11 -37
-25 -16 -14 -33 -25 -38 -25 -5 0 -11 30 -15 68 -9 88 -30 181 -60 265 -30 83
-33 112 -7 80 9 -12 43 -31 76 -42 86 -30 111 -14 147 96 6 18 3 23 -9 23 -10
0 -23 4 -31 9 -11 7 1 17 49 40 35 17 68 31 74 31 6 1 21 9 34 19 l22 19 0
800 0 799 -487 7 c-269 3 -647 9 -840 13 -194 3 -353 3 -353 -1z m1270 -1735
c0 -5 7 -17 16 -26 10 -10 13 -20 7 -26 -5 -5 -15 5 -25 26 -8 19 -12 35 -7
35 5 0 9 -4 9 -9z m172 -921 c2 -25 -1 -46 -7 -48 -6 -1 -11 23 -13 55 -4 69
15 62 20 -7z m123 -118 c-12 -13 -24 22 -12 37 10 12 13 11 15 -8 2 -13 1 -26
-3 -29z"/>
<path d="M3378 1833 c7 -3 16 -2 19 1 4 3 -2 6 -13 5 -11 0 -14 -3 -6 -6z"/>
<path d="M6620 660 c-17 -32 -5 -52 27 -48 22 2 29 9 31 31 2 15 -1 27 -7 27
-5 0 -16 3 -24 6 -10 3 -20 -3 -27 -16z"/>
</g>
</svg>
